<?xml version="1.0" standalone="no"?>
<!DOCTYPE svg PUBLIC "-//W3C//DTD SVG 1.1//EN" "http://www.w3.org/Graphics/SVG/1.1/DTD/svg11.dtd" >
<svg xmlns="http://www.w3.org/2000/svg" xmlns:xlink="http://www.w3.org/1999/xlink" version="1.1">
<metadata>
Created by FontForge 20161013 at Wed Sep  9 19:00:53 1998
 By ,,,
Digitized data copyright (c) 1997 The Monotype Corporation, Inc. All rights reserved. Gill Sans is a trademark of The Monotype Corporation, Inc. which may be registered in certain jurisdictions.
</metadata>
<defs>
<font id="GillSansMT-BoldCondensed" horiz-adv-x="1067" >
  <font-face 
    font-family="Gill Sans MT Condensed"
    font-weight="700"
    font-stretch="condensed"
    units-per-em="2048"
    panose-1="2 11 8 6 2 1 4 2 2 3"
    ascent="1638"
    descent="-410"
    x-height="946"
    cap-height="1399"
    bbox="-367 -487 2062 1913"
    underline-thickness="102"
    underline-position="-307"
    unicode-range="U+0020-F002"
  />
<missing-glyph horiz-adv-x="2048" 
d="M256 0v1536h1536v-1536h-1536zM384 128h1280v1280h-1280v-1280z" />
    <glyph glyph-name=".notdef" horiz-adv-x="2048" 
d="M256 0v1536h1536v-1536h-1536zM384 128h1280v1280h-1280v-1280z" />
    <glyph glyph-name=".null" horiz-adv-x="0" 
 />
    <glyph glyph-name="nonmarkingreturn" horiz-adv-x="682" 
 />
    <glyph glyph-name="space" unicode=" " horiz-adv-x="682" 
 />
    <glyph glyph-name="exclam" unicode="!" horiz-adv-x="555" 
d="M317 410h-77q-47 126 -87 381.5t-40 390.5q0 235 166 235q165 0 165 -235q0 -135 -40 -390.5t-87 -381.5zM115 145q0 68 47 115t114 47q68 0 116 -47.5t48 -114.5t-48 -115t-116 -48q-66 0 -113.5 48t-47.5 115z" />
    <glyph glyph-name="quotedbl" unicode="&#x22;" horiz-adv-x="971" 
d="M557 1466h307v-247l-53 -273h-201l-53 273v247zM106 1466h308v-247l-54 -273h-200l-54 273v247z" />
    <glyph glyph-name="numbersign" unicode="#" horiz-adv-x="1366" 
d="M70 1034h309l80 375h215l-80 -375h326l79 375h215l-79 -375h161v-215h-206l-58 -272h264v-215h-309l-80 -375h-215l80 375h-326l-79 -375h-215l79 375h-161v215h206l58 272h-264v215zM549 819l-57 -272h325l57 272h-325z" />
    <glyph glyph-name="dollar" unicode="$" horiz-adv-x="1044" 
d="M82 59v242q198 -99 371 -98v342q-201 75 -293 173t-92 240q0 151 104.5 260t280.5 128v71h145v-67q177 -7 303 -64v-235q-168 78 -303 77v-333q379 -130 379 -420q0 -149 -105 -260.5t-274 -126.5v-224h-145v218q-201 5 -371 77zM453 846v268q-136 -33 -136 -133
q0 -86 136 -135zM598 487v-264q119 39 119 127q0 82 -119 137z" />
    <glyph glyph-name="percent" unicode="%" horiz-adv-x="1516" 
d="M264 -53l785 1507h196l-776 -1507h-205zM319 678q-135 0 -208.5 95.5t-73.5 273.5t73.5 274t208.5 96q137 0 211 -96t74 -274q0 -177 -74 -273t-211 -96zM319 1270q-41 0 -56 -51.5t-15 -171.5t15 -171t56 -51q43 0 58.5 51t15.5 171q0 121 -15.5 172t-58.5 51zM1194 -10
q-136 0 -209.5 95.5t-73.5 272.5q0 179 73.5 275t209.5 96t210.5 -96t74.5 -275q0 -177 -74.5 -272.5t-210.5 -95.5zM1194 582q-42 0 -57 -51.5t-15 -172.5q0 -119 15.5 -170t56.5 -51q43 0 58.5 50.5t15.5 170.5q0 121 -15.5 172.5t-58.5 51.5z" />
    <glyph glyph-name="ampersand" unicode="&#x26;" horiz-adv-x="1237" 
d="M1204 0h-334l-69 117q-150 -135 -324 -135q-166 0 -279.5 112.5t-113.5 278.5q0 258 289 434q-82 168 -82 274q0 146 97 241t247 95q142 0 238 -89.5t96 -221.5q0 -189 -232 -344l121 -199q50 88 82 170h264q-70 -210 -203 -397zM623 954q122 86 122 160q0 40 -31 70
t-71 30t-68 -27t-28 -65q0 -72 76 -168zM672 326l-180 284q-130 -102 -130 -204q0 -65 46.5 -112.5t107.5 -47.5q77 0 156 80z" />
    <glyph glyph-name="quotesingle" unicode="'" horiz-adv-x="487" 
d="M90 1466h307v-247l-53 -273h-201l-53 273v247z" />
    <glyph glyph-name="parenleft" unicode="(" horiz-adv-x="725" 
d="M711 1417q-147 -184 -212 -400t-65 -546t65 -546t212 -400h-207q-387 473 -387 946t387 946h207z" />
    <glyph glyph-name="parenright" unicode=")" horiz-adv-x="725" 
d="M14 -475q147 184 212 400t65 546t-65 546t-212 400h207q387 -473 387 -946t-387 -946h-207z" />
    <glyph glyph-name="asterisk" unicode="*" horiz-adv-x="1024" 
d="M594 911l-39 -20l105 -324q4 -12 4 -20q0 -35 -121 -35t-121 34q0 9 4 23l105 322l-37 18l-238 -245q-16 -17 -27 -17q-25 0 -72.5 86t-47.5 113q0 22 31 28l335 72v37l-307 68q-59 13 -59 38t49 108.5t75 83.5q12 0 36 -26l223 -237l39 20l-105 324q-4 12 -4 20
q0 35 121 35t121 -34q0 -9 -4 -23l-105 -322l37 -18l238 246q16 16 27 16q25 0 72.5 -86t47.5 -113q0 -22 -31 -28l-335 -72v-37l307 -67q59 -14 59 -39t-49 -108.5t-75 -83.5q-12 0 -36 26z" />
    <glyph glyph-name="plus" unicode="+" horiz-adv-x="1366" 
d="M121 807h438v438h248v-438h438v-248h-438v-438h-248v438h-438v248z" />
    <glyph glyph-name="comma" unicode="," horiz-adv-x="555" 
d="M113 -311v51q93 79 106 250q-115 46 -115 162q0 67 47.5 114t114.5 47q86 0 139.5 -64.5t53.5 -170.5q0 -296 -346 -389z" />
    <glyph glyph-name="hyphen" unicode="-" horiz-adv-x="705" 
d="M76 334v272h551v-272h-551z" />
    <glyph glyph-name="period" unicode="." horiz-adv-x="555" 
d="M115 145q0 67 48 114.5t116 47.5q67 0 114 -47t47 -115q0 -67 -47.5 -115t-113.5 -48q-68 0 -116 48t-48 115z" />
    <glyph glyph-name="slash" unicode="/" horiz-adv-x="575" 
d="M12 -18l340 1417h211l-342 -1417h-209z" />
    <glyph glyph-name="zero" unicode="0" 
d="M532 -18q-221 0 -339.5 184t-118.5 532q0 351 119 535t344 184q221 0 338.5 -187t117.5 -532q0 -344 -118.5 -530t-342.5 -186zM532 1176q-72 0 -106.5 -89.5t-34.5 -390.5q0 -299 34.5 -386t106.5 -87q83 0 113.5 101t30.5 374q0 291 -33.5 384.5t-110.5 93.5z" />
    <glyph glyph-name="one" unicode="1" 
d="M375 0v1399h317v-1399h-317z" />
    <glyph glyph-name="two" unicode="2" 
d="M938 276v-276h-903v23q133 145 327.5 472.5t194.5 456.5q0 90 -56.5 149.5t-142.5 59.5q-122 0 -282 -102v254q175 104 362 104q180 0 297 -108t117 -273q0 -152 -87.5 -333.5t-264.5 -426.5h438z" />
    <glyph glyph-name="three" unicode="3" 
d="M102 53v250q158 -80 275 -80q104 0 167.5 54t63.5 141q0 89 -71 143t-193 47v234q109 -5 172.5 41.5t63.5 126.5q0 75 -55 120.5t-144 45.5q-112 0 -258 -74v250q186 65 326 65q198 0 323 -105.5t125 -271.5q0 -204 -211 -297q240 -95 240 -344q0 -182 -136.5 -299.5
t-349.5 -117.5q-145 0 -338 71z" />
    <glyph glyph-name="four" unicode="4" 
d="M571 0v360h-530v228l543 829h282v-839h123v-218h-123v-360h-295zM571 578v483h-4l-313 -483h317z" />
    <glyph glyph-name="five" unicode="5" 
d="M125 35v246q121 -58 250 -58q109 0 177.5 56t68.5 145q0 90 -74 143.5t-201 53.5q-78 0 -164 -19v797h723v-277h-452v-274q225 -2 355 -115.5t130 -306.5q0 -199 -141.5 -321.5t-372.5 -122.5q-155 0 -299 53z" />
    <glyph glyph-name="six" unicode="6" 
d="M844 1417l-322 -532q42 8 86 8q179 0 285 -126.5t106 -315.5q0 -200 -130.5 -334.5t-323.5 -134.5q-207 0 -336 135t-129 352q0 126 45.5 253.5t161.5 317.5l229 377h328zM547 670q-73 0 -116.5 -58.5t-43.5 -158.5q0 -106 44 -168t118 -62q71 0 113.5 60t42.5 163
q0 107 -41.5 165.5t-116.5 58.5z" />
    <glyph glyph-name="seven" unicode="7" 
d="M213 94l373 1028h-516v277h905v-62l-486 -1355z" />
    <glyph glyph-name="eight" unicode="8" 
d="M303 725q-190 102 -190 309q0 166 119.5 274.5t304.5 108.5q179 0 297 -109t118 -274q0 -209 -194 -309q239 -97 239 -334q0 -163 -124.5 -286t-344.5 -123q-216 0 -339 116.5t-123 288.5q0 239 237 338zM532 1221q-124 0 -124 -199q0 -217 129 -217q120 0 120 217
q0 199 -125 199zM532 621q-70 0 -109.5 -60t-39.5 -168q0 -100 40.5 -157.5t108.5 -57.5q69 0 108.5 58t39.5 161q0 105 -39.5 164.5t-108.5 59.5z" />
    <glyph glyph-name="nine" unicode="9" 
d="M229 -18l322 532q-42 -8 -86 -8q-178 0 -285.5 126.5t-107.5 315.5q0 200 130.5 334.5t323.5 134.5q207 0 337 -135.5t130 -351.5q0 -232 -151 -479l-287 -469h-326zM526 729q73 0 116.5 59t43.5 158q0 106 -44 168t-118 62q-72 0 -114.5 -60.5t-42.5 -163.5
q0 -105 42 -164t117 -59z" />
    <glyph glyph-name="colon" unicode=":" horiz-adv-x="555" 
d="M115 762q0 67 48 114.5t116 47.5q67 0 114 -47.5t47 -114.5q0 -68 -47.5 -116t-113.5 -48q-68 0 -116 48.5t-48 115.5zM115 145q0 67 48 114.5t116 47.5q67 0 114 -47t47 -115q0 -67 -47.5 -115t-113.5 -48q-68 0 -116 48t-48 115z" />
    <glyph glyph-name="semicolon" unicode=";" horiz-adv-x="555" 
d="M115 762q0 67 48 114.5t116 47.5q67 0 114 -47.5t47 -114.5q0 -68 -47.5 -116t-113.5 -48q-68 0 -116 48.5t-48 115.5zM113 -311v51q93 79 106 250q-115 46 -115 162q0 67 47.5 114t114.5 47q86 0 139.5 -64.5t53.5 -170.5q0 -296 -346 -389z" />
    <glyph glyph-name="less" unicode="&#x3c;" horiz-adv-x="1366" 
d="M123 569v226l1120 467v-269l-780 -311l780 -311v-269z" />
    <glyph glyph-name="equal" unicode="=" horiz-adv-x="1366" 
d="M121 1047h1124v-248h-1124v248zM121 565h1124v-248h-1124v248z" />
    <glyph glyph-name="greater" unicode="&#x3e;" horiz-adv-x="1366" 
d="M1243 569l-1120 -467v269l780 311l-780 311v269l1120 -467v-226z" />
    <glyph glyph-name="question" unicode="?" horiz-adv-x="725" 
d="M354 410h-75q-82 118 -82 235q0 103 69.5 236.5t69.5 191.5q0 54 -37 91.5t-90 37.5q-73 0 -135 -59l-27 6l64 246q85 22 165 22q168 0 270.5 -89t102.5 -234q0 -62 -27.5 -134.5t-126 -204.5t-122 -189.5t-23.5 -104.5q0 -23 4 -51zM156 145q0 68 47 115t114 47
q68 0 116 -47.5t48 -114.5t-48 -115t-116 -48q-67 0 -114 48t-47 115z" />
    <glyph glyph-name="at" unicode="@" horiz-adv-x="1997" 
d="M1399 1034l-125 -790q-4 -22 -4 -36q0 -42 39 -42q86 0 193.5 131.5t107.5 361.5q0 261 -151 415.5t-406 154.5q-294 0 -479 -203t-185 -526q0 -314 179 -506.5t470 -192.5q284 0 518 187h226q-126 -162 -329.5 -258.5t-410.5 -96.5q-351 0 -588 249t-237 618
q0 366 220.5 632.5t615.5 266.5q337 0 533 -210.5t196 -529.5q0 -295 -181 -478t-358 -183q-121 0 -156 119q-118 -119 -239 -119q-144 0 -235 119t-91 311q0 247 125 444t303 197q137 0 236 -147l18 112h195zM985 897q-105 0 -173.5 -152.5t-68.5 -371.5q0 -103 36.5 -160
t101.5 -57q108 0 171.5 162t63.5 393q0 186 -131 186z" />
    <glyph glyph-name="A" unicode="A" horiz-adv-x="1087" 
d="M12 0l367 1407h330l366 -1407h-307l-66 291h-315l-68 -291h-307zM432 518h223l-112 508z" />
    <glyph glyph-name="B" unicode="B" horiz-adv-x="1153" 
d="M135 0v1399h473q192 0 302 -102.5t110 -252.5q0 -192 -189 -284q236 -109 236 -348q0 -177 -125 -294.5t-330 -117.5h-477zM453 834h67q182 0 182 170q0 167 -182 167h-67v-337zM453 227h102q195 0 195 189q0 87 -45.5 138.5t-129.5 51.5h-122v-379z" />
    <glyph glyph-name="C" unicode="C" 
d="M969 358v-272q-131 -104 -326 -104q-252 0 -409.5 193t-157.5 511q0 332 155.5 531.5t411.5 199.5q165 0 315 -78v-268q-139 82 -239 82q-148 0 -234 -117t-86 -331q0 -224 78.5 -341.5t224.5 -117.5q116 0 267 112z" />
    <glyph glyph-name="D" unicode="D" horiz-adv-x="1237" 
d="M135 0v1399h414q287 0 445.5 -191.5t158.5 -496.5q0 -303 -155 -507t-433 -204h-430zM453 236h75q155 0 228 109.5t73 348.5q0 469 -284 469h-92v-927z" />
    <glyph glyph-name="E" unicode="E" horiz-adv-x="1044" 
d="M135 0v1399h815v-242h-497v-326h462v-241h-462v-348h516v-242h-834z" />
    <glyph glyph-name="F" unicode="F" horiz-adv-x="918" 
d="M135 0v1399h735v-242h-417v-330h403v-241h-403v-586h-318z" />
    <glyph glyph-name="G" unicode="G" horiz-adv-x="1217" 
d="M1126 754v-609q-215 -163 -454 -163q-257 0 -425.5 197t-168.5 499q0 322 178.5 530.5t450.5 208.5q189 0 370 -110v-291q-162 137 -327 137q-167 0 -258 -122.5t-91 -348.5q0 -206 72 -321t201 -115q70 0 135 37v235h-158v236h475z" />
    <glyph glyph-name="H" unicode="H" horiz-adv-x="1260" 
d="M137 0v1399h318v-572h350v572h317v-1399h-317v586h-350v-586h-318z" />
    <glyph glyph-name="I" unicode="I" horiz-adv-x="598" 
d="M139 0v1399h318v-1399h-318z" />
    <glyph glyph-name="J" unicode="J" horiz-adv-x="598" 
d="M-37 -446l-18 256q36 -11 59 -11q137 0 137 185v1415h318v-1397q0 -236 -94 -356.5t-244 -120.5q-69 0 -158 29z" />
    <glyph glyph-name="K" unicode="K" horiz-adv-x="1194" 
d="M111 0v1399h317v-678h4l350 678h318l-348 -666l436 -733h-354l-402 676h-4v-676h-317z" />
    <glyph glyph-name="L" unicode="L" horiz-adv-x="981" 
d="M135 0v1399h318v-1147h512v-252h-830z" />
    <glyph glyph-name="M" unicode="M" horiz-adv-x="1493" 
d="M139 0v1399h287l322 -576l321 576h287v-1399h-299v895h-4l-275 -530h-61l-275 530h-4v-895h-299z" />
    <glyph glyph-name="N" unicode="N" horiz-adv-x="1260" 
d="M141 0v1399h295l379 -791h4v791h299v-1399h-276l-398 825h-4v-825h-299z" />
    <glyph glyph-name="O" unicode="O" horiz-adv-x="1260" 
d="M629 -18q-240 0 -395.5 191.5t-155.5 539.5q0 323 160 513.5t391 190.5q237 0 394 -188t157 -531q0 -346 -158.5 -531t-392.5 -185zM629 1143q-117 0 -172.5 -106t-55.5 -337q0 -235 55 -339.5t173 -104.5q123 0 175 107.5t52 336.5q0 237 -56 340t-171 103z" />
    <glyph glyph-name="P" unicode="P" horiz-adv-x="1110" 
d="M135 0v1399h453q215 0 338 -121.5t123 -298.5q0 -181 -117 -295.5t-346 -114.5h-133v-569h-318zM453 811h92q186 0 186 172q0 174 -176 174h-102v-346z" />
    <glyph glyph-name="Q" unicode="Q" horiz-adv-x="1260" 
d="M508 -4q-209 55 -319.5 240.5t-110.5 470.5q0 331 157.5 520.5t393.5 189.5q237 0 394 -189.5t157 -529.5q0 -525 -359 -680q98 -114 226 -114q38 0 102 26l29 -18l-172 -229q-157 5 -293 93.5t-205 219.5zM631 1143q-119 0 -174.5 -106t-55.5 -337q0 -233 54 -337.5
t174 -104.5q121 0 174 104t53 338q0 241 -54.5 342t-170.5 101z" />
    <glyph glyph-name="R" unicode="R" horiz-adv-x="1130" 
d="M135 0v1399h457q208 0 329 -107t121 -284q0 -232 -235 -328q56 -31 96 -121t100 -278.5t97 -280.5h-330l-76 262q-65 226 -103 277t-138 51v-590h-318zM453 831h100q172 0 172 168q0 158 -176 158h-96v-326z" />
    <glyph glyph-name="S" unicode="S" horiz-adv-x="918" 
d="M90 92v301q179 -147 295 -147q56 0 92.5 33t36.5 83q0 43 -29 94.5t-172 188t-189 232t-46 184.5q0 150 115.5 253t285.5 103q149 0 305 -86v-262q-178 100 -270 100q-57 0 -93 -26.5t-36 -69.5q0 -33 27.5 -77t174.5 -186.5t199 -244t52 -192.5q0 -167 -116.5 -279
t-289.5 -112q-158 0 -342 110z" />
    <glyph glyph-name="T" unicode="T" horiz-adv-x="1024" 
d="M352 0v1157h-319v242h956v-242h-319v-1157h-318z" />
    <glyph glyph-name="U" unicode="U" horiz-adv-x="1217" 
d="M119 1399h317v-963q0 -87 46 -138.5t126 -51.5q172 0 172 207v946h318v-920q0 -240 -125.5 -368.5t-364.5 -128.5q-237 0 -363 125.5t-126 367.5v924z" />
    <glyph glyph-name="V" unicode="V" horiz-adv-x="1110" 
d="M481 -18l-469 1417h322l215 -721h4l203 721h321l-448 -1417h-148z" />
    <glyph glyph-name="W" unicode="W" horiz-adv-x="1745" 
d="M453 -18l-439 1417h305l199 -740h4l223 740h254l220 -740h4l202 740h306l-437 -1417h-137l-285 905h-4l-278 -905h-137z" />
    <glyph glyph-name="X" unicode="X" horiz-adv-x="1237" 
d="M35 0l409 741l-368 658h348l199 -385l200 385h346l-368 -658l409 -741h-346l-241 459l-242 -459h-346z" />
    <glyph glyph-name="Y" unicode="Y" horiz-adv-x="1110" 
d="M406 0v639l-388 760h340l211 -430l174 430h338l-350 -760v-639h-325z" />
    <glyph glyph-name="Z" unicode="Z" horiz-adv-x="1024" 
d="M27 0l499 1157h-444v242h876l-495 -1157h495v-242h-931z" />
    <glyph glyph-name="bracketleft" unicode="[" horiz-adv-x="768" 
d="M182 -451v1850h563v-213h-274v-1424h274v-213h-563z" />
    <glyph glyph-name="backslash" unicode="\" horiz-adv-x="575" 
d="M563 -18h-207l-344 1417h213z" />
    <glyph glyph-name="bracketright" unicode="]" horiz-adv-x="768" 
d="M586 -451h-563v213h274v1424h-274v213h563v-1850z" />
    <glyph glyph-name="asciicircum" unicode="^" horiz-adv-x="1194" 
d="M115 692l370 799h224l370 -799h-284l-197 490l-199 -490h-284z" />
    <glyph glyph-name="underscore" unicode="_" horiz-adv-x="1024" 
d="M-12 -154h1048v-102h-1048v102z" />
    <glyph glyph-name="grave" unicode="`" horiz-adv-x="682" 
d="M553 1075h-154l-379 342h361z" />
    <glyph glyph-name="a" unicode="a" horiz-adv-x="981" 
d="M963 242v-168q-147 -90 -246 -90q-131 0 -152 131q-135 -133 -274 -133q-103 0 -173.5 68.5t-70.5 168.5q0 120 110 205.5t396 177.5v33q0 129 -119 129q-148 0 -323 -143v215q174 129 393 129q344 0 344 -273v-385q0 -67 5 -84.5t24 -17.5q32 0 86 37zM553 244v227
q-129 -46 -184.5 -89t-55.5 -101q0 -45 28.5 -73t74.5 -28q61 0 137 64z" />
    <glyph glyph-name="b" unicode="b" horiz-adv-x="1110" 
d="M119 0v1399h295v-498q113 64 219 64q171 0 283 -138t112 -352q0 -208 -113 -346.5t-280 -138.5q-123 0 -221 92v-82h-295zM414 688v-395q66 -88 151 -88q72 0 114 71t42 195q0 129 -45.5 204t-122.5 75q-70 0 -139 -62z" />
    <glyph glyph-name="c" unicode="c" horiz-adv-x="874" 
d="M809 270v-227q-146 -61 -264 -61q-201 0 -336 138.5t-135 346.5q0 216 133.5 357t337.5 141q119 0 252 -64v-223q-102 61 -191 61q-98 0 -161.5 -73t-63.5 -187q0 -122 65.5 -198t169.5 -76q91 0 193 65z" />
    <glyph glyph-name="d" unicode="d" horiz-adv-x="1110" 
d="M696 0v94q-122 -112 -256 -112q-155 0 -259.5 139.5t-104.5 351.5q0 217 105 354.5t268 137.5q127 0 247 -105v539h295v-1399h-295zM696 301v361q-75 77 -149 77q-164 0 -164 -268q0 -128 41 -198t115 -70q87 0 157 98z" />
    <glyph glyph-name="e" unicode="e" horiz-adv-x="961" 
d="M856 254v-178q-158 -94 -344 -94q-214 0 -326 133t-112 340q0 220 119.5 365t300.5 145q179 0 285.5 -139.5t103.5 -397.5h-510q24 -250 237 -250q119 0 246 76zM373 563h237q-3 234 -116 234q-121 0 -121 -234z" />
    <glyph glyph-name="f" unicode="f" horiz-adv-x="598" 
d="M147 0v778h-92v168h92v68q0 190 108.5 296.5t285.5 106.5q75 0 157 -18v-209q-63 12 -104 12q-152 0 -152 -164v-92h152v-168h-152v-778h-295z" />
    <glyph glyph-name="g" unicode="g" horiz-adv-x="981" 
d="M975 791h-187q95 -101 95 -226q0 -101 -77 -203t-319 -122q-98 -8 -120.5 -23t-22.5 -41t29 -40t153 -18q279 -8 363 -93t84 -197q0 -139 -122 -221t-347 -82q-226 0 -341.5 75t-115.5 179q0 158 211 209v4q-137 43 -137 153q0 119 155 160q-178 111 -178 305
q0 154 118 254.5t312 100.5h447v-174zM496 782q-131 0 -131 -188q0 -203 133 -203q131 0 131 201q0 190 -133 190zM514 -82q-99 0 -157 -31.5t-58 -83.5q0 -116 217 -116q215 0 215 112q0 119 -217 119z" />
    <glyph glyph-name="h" unicode="h" horiz-adv-x="1087" 
d="M115 0v1399h295v-576h4q96 142 262 142q136 0 219.5 -90.5t83.5 -258.5v-616h-295v580q0 92 -26.5 131t-86.5 39q-35 0 -59 -13t-63 -64t-39 -67v-606h-295z" />
    <glyph glyph-name="i" unicode="i" horiz-adv-x="532" 
d="M104 1249q0 67 48.5 114.5t115.5 47.5q68 0 115 -47t47 -115q0 -67 -47.5 -115.5t-114.5 -48.5t-115.5 48.5t-48.5 115.5zM119 0v946h295v-946h-295z" />
    <glyph glyph-name="j" unicode="j" horiz-adv-x="532" 
d="M104 1249q0 67 48.5 114.5t115.5 47.5q68 0 115 -47t47 -115q0 -67 -47.5 -115.5t-114.5 -48.5t-115.5 48.5t-48.5 115.5zM72 -475l-78 258q79 31 104 69t25 117v977h295v-960q0 -206 -79 -314.5t-267 -146.5z" />
    <glyph glyph-name="k" unicode="k" 
d="M119 0v1399h295v-926h4l284 473h310l-279 -465l330 -481h-322l-323 473h-4v-473h-295z" />
    <glyph glyph-name="l" unicode="l" horiz-adv-x="532" 
d="M119 0v1399h295v-1399h-295z" />
    <glyph glyph-name="m" unicode="m" horiz-adv-x="1665" 
d="M117 0v946h295v-145h4q112 164 280 164q192 0 265 -193q97 193 288 193q127 0 216 -89.5t89 -246.5v-629h-294v514q0 145 -25 188t-80 43q-96 0 -172 -131v-614h-295v557q0 188 -110 188q-86 0 -166 -139v-606h-295z" />
    <glyph glyph-name="n" unicode="n" horiz-adv-x="1087" 
d="M115 0v946h295v-133h4q102 152 266 152q139 0 220 -89.5t81 -248.5v-627h-295v580q0 170 -115 170q-68 0 -114.5 -67t-46.5 -85v-598h-295z" />
    <glyph glyph-name="o" unicode="o" 
d="M532 965q192 0 326.5 -139t134.5 -357q0 -215 -129.5 -354.5t-331.5 -139.5q-197 0 -327.5 141t-130.5 353q0 221 134.5 358.5t323.5 137.5zM532 190q150 0 150 279q0 281 -150 281q-151 0 -151 -281q0 -279 151 -279z" />
    <glyph glyph-name="p" unicode="p" horiz-adv-x="1110" 
d="M119 -451v1397h295v-90q124 109 256 109q155 0 257.5 -141.5t102.5 -358.5q0 -208 -102.5 -345.5t-253.5 -137.5q-123 0 -260 106v-539h-295zM414 655v-362q73 -82 151 -82q72 0 115 73t43 197q0 128 -39.5 198.5t-108.5 70.5q-80 0 -161 -95z" />
    <glyph glyph-name="q" unicode="q" horiz-adv-x="1110" 
d="M696 -451v502q-105 -69 -217 -69q-170 0 -284.5 138t-114.5 347q0 229 124 363.5t277 134.5q114 0 215 -74v55h295v-1397h-295zM696 264v404q-63 82 -137 82q-79 0 -125.5 -74t-46.5 -203q0 -127 48 -201.5t128 -74.5q70 0 133 67z" />
    <glyph glyph-name="r" unicode="r" horiz-adv-x="811" 
d="M115 0v946h272v-358h4q94 368 260 368q81 0 170 -55l-63 -262q-69 47 -123 47q-103 0 -164 -155t-61 -386v-145h-295z" />
    <glyph glyph-name="s" unicode="s" horiz-adv-x="811" 
d="M82 61v220q172 -99 303 -99q109 0 109 82q0 25 -24 47.5t-163 77.5t-190 123.5t-51 151.5q0 132 96.5 216.5t249.5 84.5t307 -86v-195q-176 94 -309 94q-115 0 -115 -67q0 -24 24.5 -46t173 -78.5t206 -131.5t57.5 -166q0 -135 -99 -221t-254 -86q-148 0 -321 79z" />
    <glyph glyph-name="t" unicode="t" horiz-adv-x="811" 
d="M752 279v-218q-149 -79 -267 -79q-137 0 -225 83t-88 238v457h-135v37l379 442h51v-293h270v-186h-270v-402q0 -149 106 -149q65 0 179 70z" />
    <glyph glyph-name="u" unicode="u" horiz-adv-x="1087" 
d="M678 0v121h-4q-79 -139 -262 -139q-141 0 -224.5 92t-83.5 264v608h295v-592q0 -157 115 -157q75 0 119.5 61.5t44.5 87.5v600h295v-946h-295z" />
    <glyph glyph-name="v" unicode="v" horiz-adv-x="981" 
d="M426 -18l-399 964h282l191 -500h4l168 500h284l-376 -964h-154z" />
    <glyph glyph-name="w" unicode="w" horiz-adv-x="1450" 
d="M377 -18l-354 964h280l152 -485h4l168 485h196l168 -485h4l152 485h280l-352 -964h-149l-199 559h-4l-195 -559h-151z" />
    <glyph glyph-name="x" unicode="x" horiz-adv-x="981" 
d="M23 0l299 481l-299 465h327l135 -239l129 239h330l-291 -461l308 -485h-328l-137 256l-146 -256h-327z" />
    <glyph glyph-name="y" unicode="y" horiz-adv-x="981" 
d="M86 -451l256 625l-332 772h299l180 -432l170 432h299l-573 -1397h-299z" />
    <glyph glyph-name="z" unicode="z" horiz-adv-x="918" 
d="M37 0l385 731h-342v215h768l-375 -731h375v-215h-811z" />
    <glyph glyph-name="braceleft" unicode="{" horiz-adv-x="797" 
d="M63 352v242q116 0 168 69t52 306q0 197 25.5 278t110 134t230.5 53h99v-242h-54q-104 0 -128.5 -46.5t-26.5 -245t-51.5 -293t-131.5 -134.5q82 -40 131.5 -134.5t51.5 -293.5t26.5 -245t128.5 -46h54v-241h-99q-152 0 -235 55t-107 136t-24 273q0 237 -52 306t-168 69z
" />
    <glyph glyph-name="bar" unicode="|" horiz-adv-x="1159" 
d="M453 1399h249v-1702h-249v1702z" />
    <glyph glyph-name="braceright" unicode="}" horiz-adv-x="797" 
d="M733 594v-242q-116 0 -167.5 -69t-51.5 -306q0 -197 -25.5 -278t-110 -133.5t-231.5 -52.5h-98v241h53q105 0 129.5 46.5t26 245t51.5 293t131 134.5q-81 40 -131 134.5t-51.5 293.5t-26.5 245t-129 46h-53v242h98q153 0 236 -55.5t107 -136.5t24 -273q0 -237 51.5 -306
t167.5 -69z" />
    <glyph glyph-name="asciitilde" unicode="~" horiz-adv-x="1366" 
d="M1243 915v-253q-161 -144 -319 -144q-108 0 -263.5 80t-230.5 80q-148 0 -307 -152v256q161 142 326 142q96 0 259.5 -79t237.5 -79q131 0 297 149z" />
    <glyph glyph-name="nonbreakingspace" unicode="&#xa0;" horiz-adv-x="682" 
 />
    <glyph glyph-name="exclamdown" unicode="&#xa1;" horiz-adv-x="555" 
d="M440 801q0 -67 -48 -114.5t-116 -47.5q-67 0 -114 47.5t-47 114.5t47.5 115.5t113.5 48.5q68 0 116 -48.5t48 -115.5zM238 537h77q47 -127 87 -382.5t40 -390.5q0 -235 -166 -235q-165 0 -165 235q0 135 40 390.5t87 382.5z" />
    <glyph glyph-name="cent" unicode="&#xa2;" horiz-adv-x="874" 
d="M827 1288l-100 -356q23 -6 74 -31v-223q-87 50 -131 53l-142 -508q49 -18 93 -18q90 0 190 65v-227q-145 -61 -262 -61q-43 0 -88 8l-107 -377h-96l111 403q-142 60 -218.5 178t-76.5 273q0 214 134.5 356t336.5 142q39 0 90 -7l94 330h98zM449 291l124 444
q-192 -52 -192 -258q0 -97 68 -186z" />
    <glyph glyph-name="sterling" unicode="&#xa3;" horiz-adv-x="1044" 
d="M113 -18h-37q58 346 119 583h-107v248h166q136 604 526 604q67 0 107 -14l86 -258q-60 16 -121 16q-108 0 -169.5 -78.5t-109.5 -269.5h170v-248h-237q-43 -178 -57 -260q29 10 81 10q41 0 144.5 -26.5t140.5 -26.5q73 0 164 43v-287q-119 -36 -213 -36q-73 0 -212 26.5
t-210 26.5q-75 0 -157 -27z" />
    <glyph glyph-name="currency" unicode="&#xa4;" horiz-adv-x="1366" 
d="M141 1059l162 162l135 -136q114 68 244 68q131 0 244 -68l135 136l162 -162l-136 -135q66 -121 66 -242q0 -130 -68 -244l138 -137l-162 -162l-137 137q-116 -67 -242 -67q-132 0 -242 67l-137 -137l-162 162l138 137q-70 103 -70 244q0 134 67 242zM928 682
q0 101 -72.5 172.5t-173.5 71.5t-172.5 -71.5t-71.5 -172.5t71.5 -173.5t172.5 -72.5t173.5 72.5t72.5 173.5z" />
    <glyph glyph-name="yen" unicode="&#xa5;" horiz-adv-x="1110" 
d="M406 215h-388v154h388v116h-388v152h390l-390 762h340l211 -430l174 430h338l-350 -760h350v-154h-350v-116h350v-154h-350v-215h-325v215z" />
    <glyph glyph-name="brokenbar" unicode="&#xa6;" horiz-adv-x="1159" 
d="M453 1399h249v-733h-249v733zM453 430h249v-733h-249v733z" />
    <glyph glyph-name="section" unicode="&#xa7;" 
d="M827 57q88 -101 88 -223q0 -136 -106 -219.5t-281 -83.5q-162 0 -270 69t-108 169q0 58 43 98.5t106 40.5q56 0 78.5 -25t39.5 -73t37.5 -71.5t69.5 -23.5q54 0 87.5 24t33.5 60q0 44 -48.5 103t-225 190t-239 226t-62.5 221q0 198 174 338q-92 111 -92 227
q0 137 114.5 225t302.5 88q152 0 253.5 -69t101.5 -170q0 -60 -44.5 -101t-109.5 -41q-59 0 -81 27t-36.5 77t-33.5 73.5t-66 23.5q-53 0 -87 -28t-34 -68q0 -44 37 -95.5t221.5 -188.5t245.5 -237t61 -196q0 -208 -170 -367zM688 213q55 71 55 147q0 48 -30.5 96t-152 137
t-173.5 134q-59 -68 -59 -147q0 -92 95 -164z" />
    <glyph glyph-name="dieresis" unicode="&#xa8;" horiz-adv-x="682" 
d="M426 1243q0 46 32.5 78.5t78.5 32.5q45 0 77.5 -32.5t32.5 -78.5t-32.5 -78t-77.5 -32q-46 0 -78.5 32t-32.5 78zM35 1243q0 46 32.5 78.5t77.5 32.5q46 0 78.5 -32.5t32.5 -78.5t-32.5 -78t-78.5 -32q-45 0 -77.5 32t-32.5 78z" />
    <glyph glyph-name="copyright" unicode="&#xa9;" horiz-adv-x="1511" 
d="M-10 729q0 316 224.5 541t541.5 225q316 0 541 -225t225 -541t-225 -541t-541 -225q-317 0 -541.5 225t-224.5 541zM1372 729q0 254 -181.5 435.5t-434.5 181.5q-254 0 -435.5 -181.5t-181.5 -435.5t181.5 -435t435.5 -181q253 0 434.5 181t181.5 435zM940 616l162 -55
q-80 -258 -336 -258q-174 0 -279.5 115t-105.5 307q0 198 104.5 314t282.5 116q248 0 334 -244l-162 -39q-52 140 -176 140q-98 0 -153.5 -74.5t-55.5 -208.5q0 -133 52.5 -209t142.5 -76q143 0 190 172z" />
    <glyph glyph-name="ordfeminine" unicode="&#xaa;" horiz-adv-x="618" 
d="M625 995v-135q-103 -57 -170 -57q-77 0 -105 69q-88 -69 -168 -69q-71 0 -119.5 45t-48.5 110q0 80 79 134t245 102q0 70 -66 70q-92 0 -217 -97v162q123 82 262 82q234 0 234 -180v-221q0 -49 10 -49q4 0 64 34zM338 979v106q-78 -29 -103.5 -47t-25.5 -45q0 -45 53 -45
q36 0 76 31z" />
    <glyph glyph-name="guillemotleft" unicode="&#xab;" horiz-adv-x="1044" 
d="M727 471l270 -471h-237l-271 471l271 471h237zM293 471l270 -471h-237l-271 471l271 471h237z" />
    <glyph glyph-name="logicalnot" unicode="&#xac;" horiz-adv-x="1366" 
d="M121 1047h1124v-730h-248v482h-876v248z" />
    <glyph glyph-name="sfthyphen" unicode="&#xad;" horiz-adv-x="705" 
d="M76 334v272h551v-272h-551z" />
    <glyph glyph-name="registered" unicode="&#xae;" horiz-adv-x="1511" 
d="M-10 729q0 316 224.5 541t541.5 225q316 0 541 -225t225 -541t-225 -541t-541 -225q-317 0 -541.5 225t-224.5 541zM1372 729q0 254 -181.5 435.5t-434.5 181.5q-254 0 -435.5 -181.5t-181.5 -435.5t181.5 -435t435.5 -181q253 0 434.5 181t181.5 435zM410 319v814h385
q132 0 203 -62t71 -168q0 -89 -58 -150.5t-161 -74.5v-4q71 -18 156 -162l112 -193h-205l-67 132q-59 115 -105 158.5t-123 43.5h-43v-334h-165zM575 782h181q63 0 101 31.5t38 81.5q0 109 -170 109h-150v-222z" />
    <glyph glyph-name="overscore" unicode="&#xaf;" horiz-adv-x="1024" 
d="M-12 1632h1048v-102h-1048v102z" />
    <glyph glyph-name="degree" unicode="&#xb0;" horiz-adv-x="819" 
d="M90 1171q0 132 94 226t226 94q131 0 225 -94t94 -226q0 -131 -94 -225t-225 -94q-132 0 -226 94t-94 225zM563 1171q0 63 -45.5 108.5t-107.5 45.5q-63 0 -108.5 -45.5t-45.5 -108.5q0 -62 45.5 -107.5t108.5 -45.5q62 0 107.5 45.5t45.5 107.5z" />
    <glyph glyph-name="plusminus" unicode="&#xb1;" horiz-adv-x="1368" 
d="M123 991h438v439h248v-439h438v-248h-438v-438h-248v438h-438v248zM123 182h1124v-248h-1124v248z" />
    <glyph glyph-name="twosuperior" unicode="&#xb2;" horiz-adv-x="618" 
d="M4 688v31q104 102 204.5 249.5t100.5 209.5q0 36 -28.5 60t-73.5 24q-74 0 -178 -58v158q112 55 225 55q112 0 184 -57t72 -146q0 -80 -49 -164t-144 -200h244v-162h-557z" />
    <glyph glyph-name="threesuperior" unicode="&#xb3;" horiz-adv-x="641" 
d="M53 717v153q114 -43 174 -43q56 0 89.5 23t33.5 59t-33 58t-88 22q-12 0 -32 -2v148q65 -3 103 16.5t38 52.5q0 29 -31 48.5t-78 19.5q-65 0 -163 -41v149q112 37 204 37q122 0 198.5 -56t76.5 -144q0 -87 -96 -148q116 -64 116 -170q0 -96 -84 -158.5t-215 -62.5
q-82 0 -213 39z" />
    <glyph glyph-name="acute" unicode="&#xb4;" horiz-adv-x="682" 
d="M129 1075l172 342h361l-379 -342h-154z" />
    <glyph glyph-name="mu" unicode="&#xb5;" horiz-adv-x="1251" 
d="M190 946h295v-547q0 -202 150 -202q129 0 129 202v547h295v-946h-271v113h-4q-7 -57 -50 -92t-99 -35q-53 0 -96.5 35.5t-49.5 91.5h-4v-471h-295v1304z" />
    <glyph glyph-name="paragraph" unicode="&#xb6;" horiz-adv-x="1139" 
d="M633 -303h-238v878q-189 16 -291 123.5t-102 282.5q0 187 116 302.5t326 115.5h689v-262h-113v-1440h-238v1440h-149v-1440z" />
    <glyph glyph-name="periodcentered" unicode="&#xb7;" horiz-adv-x="555" 
d="M115 700q0 67 48 114.5t116 47.5q67 0 114 -47t47 -115q0 -67 -47.5 -115t-113.5 -48q-68 0 -116 48t-48 115z" />
    <glyph glyph-name="periodcentered" unicode="&#x2219;" horiz-adv-x="555" 
d="M115 700q0 67 48 114.5t116 47.5q67 0 114 -47t47 -115q0 -67 -47.5 -115t-113.5 -48q-68 0 -116 48t-48 115z" />
    <glyph glyph-name="cedilla" unicode="&#xb8;" horiz-adv-x="682" 
d="M137 -471v147q168 0 168 74q0 28 -24.5 47t-63.5 15l92 202l180 -10l-43 -94q123 -45 123 -164q0 -94 -79.5 -155.5t-213.5 -61.5h-139z" />
    <glyph glyph-name="onesuperior" unicode="&#xb9;" horiz-adv-x="618" 
d="M203 688v719h213v-719h-213z" />
    <glyph glyph-name="ordmasculine" unicode="&#xba;" horiz-adv-x="682" 
d="M342 793q-133 0 -220 88.5t-87 224.5q0 135 87 223t220 88t219 -88.5t86 -224.5q0 -135 -86 -223t-219 -88zM342 1262q-86 0 -86 -156q0 -158 86 -158q84 0 84 164q0 150 -84 150z" />
    <glyph glyph-name="guillemotright" unicode="&#xbb;" horiz-adv-x="1044" 
d="M752 471l-271 471h238l270 -471l-270 -471h-238zM317 471l-270 471h238l270 -471l-270 -471h-238z" />
    <glyph glyph-name="onequarter" unicode="&#xbc;" horiz-adv-x="1516" 
d="M262 -53l787 1507h194l-774 -1507h-207zM203 688v719h213v-719h-213zM1204 0v178h-311v131l326 420h184v-416h72v-135h-72v-178h-199zM1204 313v191h-4l-143 -191h147z" />
    <glyph glyph-name="onehalf" unicode="&#xbd;" horiz-adv-x="1516" 
d="M227 -53l787 1507h194l-774 -1507h-207zM203 688v719h213v-719h-213zM899 0v31q104 102 204.5 249.5t100.5 208.5q0 37 -28.5 60.5t-73.5 23.5q-74 0 -178 -57v158q112 55 225 55q112 0 184 -57t72 -146q0 -80 -49 -164t-144 -200h244v-162h-557z" />
    <glyph glyph-name="threequarters" unicode="&#xbe;" horiz-adv-x="1516" 
d="M262 -53l787 1507h194l-774 -1507h-207zM53 717v153q114 -43 174 -43q56 0 89.5 23t33.5 59t-33 58t-88 22q-12 0 -32 -2v148q65 -3 103 16.5t38 52.5q0 29 -31 48.5t-78 19.5q-65 0 -163 -41v149q112 37 204 37q122 0 198.5 -56t76.5 -144q0 -87 -96 -148
q116 -64 116 -170q0 -96 -84 -158.5t-215 -62.5q-82 0 -213 39zM1204 0v178h-311v131l326 420h184v-416h72v-135h-72v-178h-199zM1204 313v191h-4l-143 -191h147z" />
    <glyph glyph-name="questiondown" unicode="&#xbf;" horiz-adv-x="725" 
d="M569 801q0 -67 -48 -114.5t-115 -47.5q-68 0 -115 47.5t-47 114.5t47.5 115.5t114.5 48.5t115 -48.5t48 -115.5zM371 537h75q82 -119 82 -236q0 -103 -69.5 -236.5t-69.5 -191.5q0 -54 37 -91.5t90 -37.5q73 0 135 59l27 -6l-64 -246q-85 -22 -165 -22
q-168 0 -270.5 89.5t-102.5 234.5q0 61 27.5 133.5t126 204.5t122 189.5t23.5 104.5q0 23 -4 52z" />
    <glyph glyph-name="Agrave" unicode="&#xc0;" horiz-adv-x="1087" 
d="M12 0l367 1407h330l366 -1407h-307l-66 291h-315l-68 -291h-307zM432 518h223l-112 508zM756 1501h-154l-379 342h361z" />
    <glyph glyph-name="Aacute" unicode="&#xc1;" horiz-adv-x="1087" 
d="M12 0l367 1407h330l366 -1407h-307l-66 291h-315l-68 -291h-307zM432 518h223l-112 508zM332 1501l172 342h361l-379 -342h-154z" />
    <glyph glyph-name="Acircumflex" unicode="&#xc2;" horiz-adv-x="1087" 
d="M12 0l367 1407h330l366 -1407h-307l-66 291h-315l-68 -291h-307zM432 518h223l-112 508zM236 1493l176 350h264l176 -350h-182l-125 176l-127 -176h-182z" />
    <glyph glyph-name="Atilde" unicode="&#xc3;" horiz-adv-x="1087" 
d="M12 0l367 1407h330l366 -1407h-307l-66 291h-315l-68 -291h-307zM432 518h223l-112 508zM330 1546h-123q0 105 58 174.5t149 69.5q54 0 144 -35t120 -35q58 0 82 70h123q-6 -111 -66 -177.5t-145 -66.5q-57 0 -136.5 36t-113.5 36q-73 0 -92 -72z" />
    <glyph glyph-name="Adieresis" unicode="&#xc4;" horiz-adv-x="1087" 
d="M12 0l367 1407h330l366 -1407h-307l-66 291h-315l-68 -291h-307zM432 518h223l-112 508zM629 1669q0 46 32.5 78.5t78.5 32.5q45 0 77.5 -32.5t32.5 -78.5t-32.5 -78t-77.5 -32q-46 0 -78.5 32t-32.5 78zM238 1669q0 46 32.5 78.5t77.5 32.5q46 0 78.5 -32.5t32.5 -78.5
t-32.5 -78t-78.5 -32q-45 0 -77.5 32t-32.5 78z" />
    <glyph glyph-name="Aring" unicode="&#xc5;" horiz-adv-x="1087" 
d="M12 0l367 1407h330l366 -1407h-307l-66 291h-315l-68 -291h-307zM432 518h223l-112 508zM326 1694q0 90 64.5 154.5t154.5 64.5t154.5 -64.5t64.5 -154.5t-64.5 -154.5t-154.5 -64.5t-154.5 64.5t-64.5 154.5zM670 1694q0 52 -36.5 88.5t-88.5 36.5t-88.5 -36.5
t-36.5 -88.5t36.5 -88.5t88.5 -36.5t88.5 36.5t36.5 88.5z" />
    <glyph glyph-name="AE" unicode="&#xc6;" horiz-adv-x="1686" 
d="M-18 0l540 1399h1049v-242h-457v-328h418v-241h-418v-346h473v-242h-790v588h-289l-211 -588h-315zM588 815h209v412h-66z" />
    <glyph glyph-name="Ccedilla" unicode="&#xc7;" 
d="M410 -188l86 190q-198 55 -309 238.5t-111 445.5q0 332 155.5 531.5t411.5 199.5q165 0 315 -78v-268q-139 82 -239 82q-148 0 -234 -117t-86 -331q0 -224 78.5 -341.5t224.5 -117.5q116 0 267 112v-272q-126 -100 -297 -102l-33 -74q123 -45 123 -164
q0 -94 -79.5 -155.5t-213.5 -61.5h-139v147q168 0 168 74q0 28 -24.5 47t-63.5 15z" />
    <glyph glyph-name="Egrave" unicode="&#xc8;" horiz-adv-x="1044" 
d="M135 0v1399h815v-242h-497v-326h462v-241h-462v-348h516v-242h-834zM736 1501h-154l-379 342h361z" />
    <glyph glyph-name="Eacute" unicode="&#xc9;" horiz-adv-x="1044" 
d="M135 0v1399h815v-242h-497v-326h462v-241h-462v-348h516v-242h-834zM311 1501l172 342h361l-379 -342h-154z" />
    <glyph glyph-name="Ecircumflex" unicode="&#xca;" horiz-adv-x="1044" 
d="M135 0v1399h815v-242h-497v-326h462v-241h-462v-348h516v-242h-834zM215 1493l176 350h264l176 -350h-182l-125 176l-127 -176h-182z" />
    <glyph glyph-name="Edieresis" unicode="&#xcb;" horiz-adv-x="1044" 
d="M135 0v1399h815v-242h-497v-326h462v-241h-462v-348h516v-242h-834zM608 1669q0 46 32.5 78.5t78.5 32.5q45 0 77.5 -32.5t32.5 -78.5t-32.5 -78t-77.5 -32q-46 0 -78.5 32t-32.5 78zM217 1669q0 46 32.5 78.5t77.5 32.5q46 0 78.5 -32.5t32.5 -78.5t-32.5 -78t-78.5 -32
q-45 0 -77.5 32t-32.5 78z" />
    <glyph glyph-name="Igrave" unicode="&#xcc;" horiz-adv-x="598" 
d="M139 0v1399h318v-1399h-318zM513 1501h-154l-379 342h361z" />
    <glyph glyph-name="Iacute" unicode="&#xcd;" horiz-adv-x="598" 
d="M139 0v1399h318v-1399h-318zM88 1501l172 342h361l-379 -342h-154z" />
    <glyph glyph-name="Icircumflex" unicode="&#xce;" horiz-adv-x="598" 
d="M139 0v1399h318v-1399h-318zM-8 1493l176 350h264l176 -350h-182l-125 176l-127 -176h-182z" />
    <glyph glyph-name="Idieresis" unicode="&#xcf;" horiz-adv-x="598" 
d="M139 0v1399h318v-1399h-318zM385 1669q0 46 32.5 78.5t78.5 32.5q45 0 77.5 -32.5t32.5 -78.5t-32.5 -78t-77.5 -32q-46 0 -78.5 32t-32.5 78zM-6 1669q0 46 32.5 78.5t77.5 32.5q46 0 78.5 -32.5t32.5 -78.5t-32.5 -78t-78.5 -32q-45 0 -77.5 32t-32.5 78z" />
    <glyph glyph-name="Eth" unicode="&#xd0;" horiz-adv-x="1237" 
d="M135 0v602h-160v195h160v602h414q287 0 445.5 -191.5t158.5 -496.5q0 -303 -155 -507t-433 -204h-430zM453 236h75q155 0 228 109.5t73 348.5q0 469 -284 469h-92v-366h245v-195h-245v-366z" />
    <glyph glyph-name="Ntilde" unicode="&#xd1;" horiz-adv-x="1260" 
d="M141 0v1399h295l379 -791h4v791h299v-1399h-276l-398 825h-4v-825h-299zM416 1546h-123q0 105 58 174.5t149 69.5q54 0 144 -35t120 -35q58 0 82 70h123q-6 -111 -66 -177.5t-145 -66.5q-57 0 -136.5 36t-113.5 36q-73 0 -92 -72z" />
    <glyph glyph-name="Ograve" unicode="&#xd2;" horiz-adv-x="1260" 
d="M629 -18q-240 0 -395.5 191.5t-155.5 539.5q0 323 160 513.5t391 190.5q237 0 394 -188t157 -531q0 -346 -158.5 -531t-392.5 -185zM629 1143q-117 0 -172.5 -106t-55.5 -337q0 -235 55 -339.5t173 -104.5q123 0 175 107.5t52 336.5q0 237 -56 340t-171 103zM842 1501
h-154l-379 342h361z" />
    <glyph glyph-name="Oacute" unicode="&#xd3;" horiz-adv-x="1260" 
d="M629 -18q-240 0 -395.5 191.5t-155.5 539.5q0 323 160 513.5t391 190.5q237 0 394 -188t157 -531q0 -346 -158.5 -531t-392.5 -185zM629 1143q-117 0 -172.5 -106t-55.5 -337q0 -235 55 -339.5t173 -104.5q123 0 175 107.5t52 336.5q0 237 -56 340t-171 103zM418 1501
l172 342h361l-379 -342h-154z" />
    <glyph glyph-name="Ocircumflex" unicode="&#xd4;" horiz-adv-x="1260" 
d="M629 -18q-240 0 -395.5 191.5t-155.5 539.5q0 323 160 513.5t391 190.5q237 0 394 -188t157 -531q0 -346 -158.5 -531t-392.5 -185zM629 1143q-117 0 -172.5 -106t-55.5 -337q0 -235 55 -339.5t173 -104.5q123 0 175 107.5t52 336.5q0 237 -56 340t-171 103zM322 1493
l176 350h264l176 -350h-182l-125 176l-127 -176h-182z" />
    <glyph glyph-name="Otilde" unicode="&#xd5;" horiz-adv-x="1260" 
d="M629 -18q-240 0 -395.5 191.5t-155.5 539.5q0 323 160 513.5t391 190.5q237 0 394 -188t157 -531q0 -346 -158.5 -531t-392.5 -185zM629 1143q-117 0 -172.5 -106t-55.5 -337q0 -235 55 -339.5t173 -104.5q123 0 175 107.5t52 336.5q0 237 -56 340t-171 103zM416 1546
h-123q0 105 58 174.5t149 69.5q54 0 144 -35t120 -35q58 0 82 70h123q-6 -111 -66 -177.5t-145 -66.5q-57 0 -136.5 36t-113.5 36q-73 0 -92 -72z" />
    <glyph glyph-name="Odieresis" unicode="&#xd6;" horiz-adv-x="1260" 
d="M629 -18q-240 0 -395.5 191.5t-155.5 539.5q0 323 160 513.5t391 190.5q237 0 394 -188t157 -531q0 -346 -158.5 -531t-392.5 -185zM629 1143q-117 0 -172.5 -106t-55.5 -337q0 -235 55 -339.5t173 -104.5q123 0 175 107.5t52 336.5q0 237 -56 340t-171 103zM715 1669
q0 46 32.5 78.5t78.5 32.5q45 0 77.5 -32.5t32.5 -78.5t-32.5 -78t-77.5 -32q-46 0 -78.5 32t-32.5 78zM324 1669q0 46 32.5 78.5t77.5 32.5q46 0 78.5 -32.5t32.5 -78.5t-32.5 -78t-78.5 -32q-45 0 -77.5 32t-32.5 78z" />
    <glyph glyph-name="multiply" unicode="&#xd7;" horiz-adv-x="1368" 
d="M152 1034l176 176l356 -356l356 356l177 -176l-357 -356l357 -356l-175 -175l-358 359l-358 -359l-174 175l356 356z" />
    <glyph glyph-name="Oslash" unicode="&#xd8;" horiz-adv-x="1260" 
d="M946 1307l70 112l106 -67l-86 -138q144 -195 144 -516q0 -346 -158.5 -531t-392.5 -185q-170 0 -305 102l-76 -119l-98 72l83 135q-155 196 -155 543q0 323 160 512.5t391 189.5q172 0 317 -110zM420 469l368 588q-50 86 -159 86q-117 0 -172.5 -106t-55.5 -337
q0 -145 19 -231zM842 907l-365 -579q63 -72 152 -72q123 0 175 107.5t52 336.5q0 125 -14 207z" />
    <glyph glyph-name="Ugrave" unicode="&#xd9;" horiz-adv-x="1217" 
d="M119 1399h317v-963q0 -87 46 -138.5t126 -51.5q172 0 172 207v946h318v-920q0 -240 -125.5 -368.5t-364.5 -128.5q-237 0 -363 125.5t-126 367.5v924zM822 1501h-154l-379 342h361z" />
    <glyph glyph-name="Uacute" unicode="&#xda;" horiz-adv-x="1217" 
d="M119 1399h317v-963q0 -87 46 -138.5t126 -51.5q172 0 172 207v946h318v-920q0 -240 -125.5 -368.5t-364.5 -128.5q-237 0 -363 125.5t-126 367.5v924zM397 1501l172 342h361l-379 -342h-154z" />
    <glyph glyph-name="Ucircumflex" unicode="&#xdb;" horiz-adv-x="1217" 
d="M119 1399h317v-963q0 -87 46 -138.5t126 -51.5q172 0 172 207v946h318v-920q0 -240 -125.5 -368.5t-364.5 -128.5q-237 0 -363 125.5t-126 367.5v924zM301 1493l176 350h264l176 -350h-182l-125 176l-127 -176h-182z" />
    <glyph glyph-name="Udieresis" unicode="&#xdc;" horiz-adv-x="1217" 
d="M119 1399h317v-963q0 -87 46 -138.5t126 -51.5q172 0 172 207v946h318v-920q0 -240 -125.5 -368.5t-364.5 -128.5q-237 0 -363 125.5t-126 367.5v924zM694 1669q0 46 32.5 78.5t78.5 32.5q45 0 77.5 -32.5t32.5 -78.5t-32.5 -78t-77.5 -32q-46 0 -78.5 32t-32.5 78z
M303 1669q0 46 32.5 78.5t77.5 32.5q46 0 78.5 -32.5t32.5 -78.5t-32.5 -78t-78.5 -32q-45 0 -77.5 32t-32.5 78z" />
    <glyph glyph-name="Yacute" unicode="&#xdd;" horiz-adv-x="1110" 
d="M406 0v639l-388 760h340l211 -430l174 430h338l-350 -760v-639h-325zM344 1501l172 342h361l-379 -342h-154z" />
    <glyph glyph-name="Thorn" unicode="&#xde;" horiz-adv-x="1110" 
d="M135 0v1399h318v-285h135q215 0 338 -121.5t123 -298.5q0 -181 -117 -295t-346 -114h-133v-285h-318zM453 526h92q186 0 186 172q0 174 -176 174h-102v-346z" />
    <glyph glyph-name="germandbls" unicode="&#xdf;" horiz-adv-x="1087" 
d="M115 0v987q0 211 114.5 320.5t327.5 109.5q183 0 296.5 -95t113.5 -247q0 -167 -168 -252q225 -79 225 -377q0 -198 -108 -327t-271 -129q-74 0 -133 26v197q21 -8 57 -8q160 0 160 235q0 295 -199 277v184q158 8 158 164q0 80 -39 127t-104 47q-135 0 -135 -178v-1061
h-295z" />
    <glyph glyph-name="agrave" unicode="&#xe0;" horiz-adv-x="981" 
d="M963 242v-168q-147 -90 -246 -90q-131 0 -152 131q-135 -133 -274 -133q-103 0 -173.5 68.5t-70.5 168.5q0 120 110 205.5t396 177.5v33q0 129 -119 129q-148 0 -323 -143v215q174 129 393 129q344 0 344 -273v-385q0 -67 5 -84.5t24 -17.5q32 0 86 37zM553 244v227
q-129 -46 -184.5 -89t-55.5 -101q0 -45 28.5 -73t74.5 -28q61 0 137 64zM703 1075h-154l-379 342h361z" />
    <glyph glyph-name="aacute" unicode="&#xe1;" horiz-adv-x="981" 
d="M963 242v-168q-147 -90 -246 -90q-131 0 -152 131q-135 -133 -274 -133q-103 0 -173.5 68.5t-70.5 168.5q0 120 110 205.5t396 177.5v33q0 129 -119 129q-148 0 -323 -143v215q174 129 393 129q344 0 344 -273v-385q0 -67 5 -84.5t24 -17.5q32 0 86 37zM553 244v227
q-129 -46 -184.5 -89t-55.5 -101q0 -45 28.5 -73t74.5 -28q61 0 137 64zM279 1075l172 342h361l-379 -342h-154z" />
    <glyph glyph-name="acircumflex" unicode="&#xe2;" horiz-adv-x="981" 
d="M963 242v-168q-147 -90 -246 -90q-131 0 -152 131q-135 -133 -274 -133q-103 0 -173.5 68.5t-70.5 168.5q0 120 110 205.5t396 177.5v33q0 129 -119 129q-148 0 -323 -143v215q174 129 393 129q344 0 344 -273v-385q0 -67 5 -84.5t24 -17.5q32 0 86 37zM553 244v227
q-129 -46 -184.5 -89t-55.5 -101q0 -45 28.5 -73t74.5 -28q61 0 137 64zM182 1067l176 350h264l176 -350h-182l-125 176l-127 -176h-182z" />
    <glyph glyph-name="atilde" unicode="&#xe3;" horiz-adv-x="981" 
d="M963 242v-168q-147 -90 -246 -90q-131 0 -152 131q-135 -133 -274 -133q-103 0 -173.5 68.5t-70.5 168.5q0 120 110 205.5t396 177.5v33q0 129 -119 129q-148 0 -323 -143v215q174 129 393 129q344 0 344 -273v-385q0 -67 5 -84.5t24 -17.5q32 0 86 37zM553 244v227
q-129 -46 -184.5 -89t-55.5 -101q0 -45 28.5 -73t74.5 -28q61 0 137 64zM277 1120h-123q0 105 58 174.5t149 69.5q54 0 144 -35t120 -35q58 0 82 70h123q-6 -111 -66 -177.5t-145 -66.5q-57 0 -136.5 36t-113.5 36q-73 0 -92 -72z" />
    <glyph glyph-name="adieresis" unicode="&#xe4;" horiz-adv-x="981" 
d="M963 242v-168q-147 -90 -246 -90q-131 0 -152 131q-135 -133 -274 -133q-103 0 -173.5 68.5t-70.5 168.5q0 120 110 205.5t396 177.5v33q0 129 -119 129q-148 0 -323 -143v215q174 129 393 129q344 0 344 -273v-385q0 -67 5 -84.5t24 -17.5q32 0 86 37zM553 244v227
q-129 -46 -184.5 -89t-55.5 -101q0 -45 28.5 -73t74.5 -28q61 0 137 64zM575 1243q0 46 32.5 78.5t78.5 32.5q45 0 77.5 -32.5t32.5 -78.5t-32.5 -78t-77.5 -32q-46 0 -78.5 32t-32.5 78zM184 1243q0 46 32.5 78.5t77.5 32.5q46 0 78.5 -32.5t32.5 -78.5t-32.5 -78
t-78.5 -32q-45 0 -77.5 32t-32.5 78z" />
    <glyph glyph-name="aring" unicode="&#xe5;" horiz-adv-x="981" 
d="M963 242v-168q-147 -90 -246 -90q-131 0 -152 131q-135 -133 -274 -133q-103 0 -173.5 68.5t-70.5 168.5q0 120 110 205.5t396 177.5v33q0 129 -119 129q-148 0 -323 -143v215q174 129 393 129q344 0 344 -273v-385q0 -67 5 -84.5t24 -17.5q32 0 86 37zM553 244v227
q-129 -46 -184.5 -89t-55.5 -101q0 -45 28.5 -73t74.5 -28q61 0 137 64zM272 1268q0 90 64.5 154.5t154.5 64.5t154.5 -64.5t64.5 -154.5t-64.5 -154.5t-154.5 -64.5t-154.5 64.5t-64.5 154.5zM616 1268q0 52 -36.5 88.5t-88.5 36.5t-88.5 -36.5t-36.5 -88.5t36.5 -88.5
t88.5 -36.5t88.5 36.5t36.5 88.5z" />
    <glyph glyph-name="ae" unicode="&#xe6;" horiz-adv-x="1473" 
d="M96 614v222q194 129 373 129q157 0 266 -91q128 91 271 91q170 0 279.5 -143t109.5 -394h-523q0 -121 64 -187.5t164 -66.5q129 0 272 84v-168q-189 -108 -358 -108q-216 0 -369 143q-158 -143 -326 -143q-116 0 -194 67.5t-78 167.5q0 125 122 213t396 160v20
q0 162 -131 162q-146 0 -338 -158zM872 563h248q0 230 -127 230q-64 0 -92.5 -48.5t-28.5 -181.5zM565 219v230q-117 -51 -170 -87t-53 -102q0 -43 24 -69.5t62 -26.5q54 0 137 55z" />
    <glyph glyph-name="ccedilla" unicode="&#xe7;" horiz-adv-x="874" 
d="M313 -188l88 194q-151 45 -239 171.5t-88 289.5q0 216 133.5 357t337.5 141q119 0 252 -64v-223q-102 61 -191 61q-98 0 -161.5 -73t-63.5 -187q0 -122 65.5 -198t169.5 -76q91 0 193 65v-227q-141 -58 -234 -59l-32 -74q123 -45 123 -164q0 -94 -79.5 -155.5
t-213.5 -61.5h-140v147q168 0 168 74q0 28 -24 47t-64 15z" />
    <glyph glyph-name="egrave" unicode="&#xe8;" horiz-adv-x="961" 
d="M856 254v-178q-158 -94 -344 -94q-214 0 -326 133t-112 340q0 220 119.5 365t300.5 145q179 0 285.5 -139.5t103.5 -397.5h-510q24 -250 237 -250q119 0 246 76zM373 563h237q-3 234 -116 234q-121 0 -121 -234zM693 1075h-154l-379 342h361z" />
    <glyph glyph-name="eacute" unicode="&#xe9;" horiz-adv-x="961" 
d="M856 254v-178q-158 -94 -344 -94q-214 0 -326 133t-112 340q0 220 119.5 365t300.5 145q179 0 285.5 -139.5t103.5 -397.5h-510q24 -250 237 -250q119 0 246 76zM373 563h237q-3 234 -116 234q-121 0 -121 -234zM268 1075l172 342h361l-379 -342h-154z" />
    <glyph glyph-name="ecircumflex" unicode="&#xea;" horiz-adv-x="961" 
d="M856 254v-178q-158 -94 -344 -94q-214 0 -326 133t-112 340q0 220 119.5 365t300.5 145q179 0 285.5 -139.5t103.5 -397.5h-510q24 -250 237 -250q119 0 246 76zM373 563h237q-3 234 -116 234q-121 0 -121 -234zM172 1067l176 350h264l176 -350h-182l-125 176l-127 -176
h-182z" />
    <glyph glyph-name="edieresis" unicode="&#xeb;" horiz-adv-x="961" 
d="M856 254v-178q-158 -94 -344 -94q-214 0 -326 133t-112 340q0 220 119.5 365t300.5 145q179 0 285.5 -139.5t103.5 -397.5h-510q24 -250 237 -250q119 0 246 76zM373 563h237q-3 234 -116 234q-121 0 -121 -234zM565 1243q0 46 32.5 78.5t78.5 32.5q45 0 77.5 -32.5
t32.5 -78.5t-32.5 -78t-77.5 -32q-46 0 -78.5 32t-32.5 78zM174 1243q0 46 32.5 78.5t77.5 32.5q46 0 78.5 -32.5t32.5 -78.5t-32.5 -78t-78.5 -32q-45 0 -77.5 32t-32.5 78z" />
    <glyph glyph-name="igrave" unicode="&#xec;" horiz-adv-x="532" 
d="M119 0v946h295v-946h-295zM480 1075h-154l-379 342h361z" />
    <glyph glyph-name="iacute" unicode="&#xed;" horiz-adv-x="532" 
d="M119 0v946h295v-946h-295zM55 1075l172 342h361l-379 -342h-154z" />
    <glyph glyph-name="icircumflex" unicode="&#xee;" horiz-adv-x="532" 
d="M119 0v946h295v-946h-295zM-41 1067l176 350h264l176 -350h-182l-125 176l-127 -176h-182z" />
    <glyph glyph-name="idieresis" unicode="&#xef;" horiz-adv-x="532" 
d="M119 0v946h295v-946h-295zM352 1243q0 46 32.5 78.5t78.5 32.5q45 0 77.5 -32.5t32.5 -78.5t-32.5 -78t-77.5 -32q-46 0 -78.5 32t-32.5 78zM-39 1243q0 46 32.5 78.5t77.5 32.5q46 0 78.5 -32.5t32.5 -78.5t-32.5 -78t-78.5 -32q-45 0 -77.5 32t-32.5 78z" />
    <glyph glyph-name="eth" unicode="&#xf0;" horiz-adv-x="1059" 
d="M279 1362h278q28 -22 80 -70l170 86l70 -69l-166 -88q101 -100 188.5 -280.5t87.5 -485.5q0 -208 -130 -340.5t-331 -132.5q-204 0 -330 135t-126 356q0 214 127 353t319 139q79 0 121 -19q-39 80 -113 178l-170 -88l-69 70l176 92q-84 88 -182 164zM528 750
q-80 0 -115.5 -66t-35.5 -209q0 -144 35.5 -211t115.5 -67q81 0 116.5 67t35.5 211q0 275 -152 275z" />
    <glyph glyph-name="ntilde" unicode="&#xf1;" horiz-adv-x="1087" 
d="M115 0v946h295v-133h4q102 152 266 152q139 0 220 -89.5t81 -248.5v-627h-295v580q0 170 -115 170q-68 0 -114.5 -67t-46.5 -85v-598h-295zM330 1120h-123q0 105 58 174.5t149 69.5q54 0 144 -35t120 -35q58 0 82 70h123q-6 -111 -66 -177.5t-145 -66.5q-57 0 -136.5 36
t-113.5 36q-73 0 -92 -72z" />
    <glyph glyph-name="ograve" unicode="&#xf2;" 
d="M532 965q192 0 326.5 -139t134.5 -357q0 -215 -129.5 -354.5t-331.5 -139.5q-197 0 -327.5 141t-130.5 353q0 221 134.5 358.5t323.5 137.5zM532 190q150 0 150 279q0 281 -150 281q-151 0 -151 -281q0 -279 151 -279zM746 1075h-154l-379 342h361z" />
    <glyph glyph-name="oacute" unicode="&#xf3;" 
d="M532 965q192 0 326.5 -139t134.5 -357q0 -215 -129.5 -354.5t-331.5 -139.5q-197 0 -327.5 141t-130.5 353q0 221 134.5 358.5t323.5 137.5zM532 190q150 0 150 279q0 281 -150 281q-151 0 -151 -281q0 -279 151 -279zM322 1075l172 342h361l-379 -342h-154z" />
    <glyph glyph-name="ocircumflex" unicode="&#xf4;" 
d="M532 965q192 0 326.5 -139t134.5 -357q0 -215 -129.5 -354.5t-331.5 -139.5q-197 0 -327.5 141t-130.5 353q0 221 134.5 358.5t323.5 137.5zM532 190q150 0 150 279q0 281 -150 281q-151 0 -151 -281q0 -279 151 -279zM225 1067l176 350h264l176 -350h-182l-125 176
l-127 -176h-182z" />
    <glyph glyph-name="otilde" unicode="&#xf5;" 
d="M532 965q192 0 326.5 -139t134.5 -357q0 -215 -129.5 -354.5t-331.5 -139.5q-197 0 -327.5 141t-130.5 353q0 221 134.5 358.5t323.5 137.5zM532 190q150 0 150 279q0 281 -150 281q-151 0 -151 -281q0 -279 151 -279zM320 1120h-123q0 105 58 174.5t149 69.5
q54 0 144 -35t120 -35q58 0 82 70h123q-6 -111 -66 -177.5t-145 -66.5q-57 0 -136.5 36t-113.5 36q-73 0 -92 -72z" />
    <glyph glyph-name="odieresis" unicode="&#xf6;" 
d="M532 965q192 0 326.5 -139t134.5 -357q0 -215 -129.5 -354.5t-331.5 -139.5q-197 0 -327.5 141t-130.5 353q0 221 134.5 358.5t323.5 137.5zM532 190q150 0 150 279q0 281 -150 281q-151 0 -151 -281q0 -279 151 -279zM618 1243q0 46 32.5 78.5t78.5 32.5
q45 0 77.5 -32.5t32.5 -78.5t-32.5 -78t-77.5 -32q-46 0 -78.5 32t-32.5 78zM227 1243q0 46 32.5 78.5t77.5 32.5q46 0 78.5 -32.5t32.5 -78.5t-32.5 -78t-78.5 -32q-45 0 -77.5 32t-32.5 78z" />
    <glyph glyph-name="divide" unicode="&#xf7;" horiz-adv-x="1366" 
d="M539 1100q0 59 42.5 102t102.5 43t102.5 -43t42.5 -102q0 -60 -42.5 -103t-102.5 -43t-102.5 43t-42.5 103zM123 807h1120v-248h-1120v248zM539 266q0 60 42.5 103t102.5 43t102.5 -43t42.5 -103q0 -59 -42.5 -102t-102.5 -43t-102.5 43t-42.5 102z" />
    <glyph glyph-name="oslash" unicode="&#xf8;" 
d="M956 928l-86 -117q123 -137 123 -342q0 -215 -129.5 -354.5t-331.5 -139.5q-132 0 -235 68l-88 -119l-84 62l90 120q-141 142 -141 363t134.5 358.5t323.5 137.5q146 0 261 -82l77 106zM391 344l252 340q-34 66 -111 66q-151 0 -151 -281q0 -70 10 -125zM676 551
l-238 -320q32 -41 94 -41q150 0 150 279q0 48 -6 82z" />
    <glyph glyph-name="ugrave" unicode="&#xf9;" horiz-adv-x="1087" 
d="M678 0v121h-4q-79 -139 -262 -139q-141 0 -224.5 92t-83.5 264v608h295v-592q0 -157 115 -157q75 0 119.5 61.5t44.5 87.5v600h295v-946h-295zM756 1075h-154l-379 342h361z" />
    <glyph glyph-name="uacute" unicode="&#xfa;" horiz-adv-x="1087" 
d="M678 0v121h-4q-79 -139 -262 -139q-141 0 -224.5 92t-83.5 264v608h295v-592q0 -157 115 -157q75 0 119.5 61.5t44.5 87.5v600h295v-946h-295zM332 1075l172 342h361l-379 -342h-154z" />
    <glyph glyph-name="ucircumflex" unicode="&#xfb;" horiz-adv-x="1087" 
d="M678 0v121h-4q-79 -139 -262 -139q-141 0 -224.5 92t-83.5 264v608h295v-592q0 -157 115 -157q75 0 119.5 61.5t44.5 87.5v600h295v-946h-295zM236 1067l176 350h264l176 -350h-182l-125 176l-127 -176h-182z" />
    <glyph glyph-name="udieresis" unicode="&#xfc;" horiz-adv-x="1087" 
d="M678 0v121h-4q-79 -139 -262 -139q-141 0 -224.5 92t-83.5 264v608h295v-592q0 -157 115 -157q75 0 119.5 61.5t44.5 87.5v600h295v-946h-295zM629 1243q0 46 32.5 78.5t78.5 32.5q45 0 77.5 -32.5t32.5 -78.5t-32.5 -78t-77.5 -32q-46 0 -78.5 32t-32.5 78zM238 1243
q0 46 32.5 78.5t77.5 32.5q46 0 78.5 -32.5t32.5 -78.5t-32.5 -78t-78.5 -32q-45 0 -77.5 32t-32.5 78z" />
    <glyph glyph-name="yacute" unicode="&#xfd;" horiz-adv-x="981" 
d="M86 -451l256 625l-332 772h299l180 -432l170 432h299l-573 -1397h-299zM279 1075l172 342h361l-379 -342h-154z" />
    <glyph glyph-name="thorn" unicode="&#xfe;" horiz-adv-x="1110" 
d="M119 -451v1850h295v-543q124 109 256 109q155 0 257.5 -141.5t102.5 -358.5q0 -208 -102.5 -345.5t-253.5 -137.5q-123 0 -260 106v-539h-295zM414 655v-362q73 -82 151 -82q72 0 115 73t43 197q0 128 -39.5 198.5t-108.5 70.5q-80 0 -161 -95z" />
    <glyph glyph-name="ydieresis" unicode="&#xff;" horiz-adv-x="981" 
d="M86 -451l256 625l-332 772h299l180 -432l170 432h299l-573 -1397h-299zM575 1243q0 46 32.5 78.5t78.5 32.5q45 0 77.5 -32.5t32.5 -78.5t-32.5 -78t-77.5 -32q-46 0 -78.5 32t-32.5 78zM184 1243q0 46 32.5 78.5t77.5 32.5q46 0 78.5 -32.5t32.5 -78.5t-32.5 -78
t-78.5 -32q-45 0 -77.5 32t-32.5 78z" />
    <glyph glyph-name="dotlessi" unicode="&#x131;" horiz-adv-x="532" 
d="M119 0v946h295v-946h-295z" />
    <glyph glyph-name="OE" unicode="&#x152;" horiz-adv-x="1729" 
d="M1645 0h-951q-310 0 -463 199.5t-153 490.5q0 307 160 508t505 201h881v-244h-496v-319h459v-244h-459v-348h517v-244zM809 244v911h-35q-123 0 -197 -32.5t-125 -141t-51 -289.5q0 -176 49.5 -277.5t119.5 -136t194 -34.5h45z" />
    <glyph glyph-name="oe" unicode="&#x153;" horiz-adv-x="1599" 
d="M1501 246v-168q-173 -96 -362 -96q-188 0 -320 116q-131 -116 -299 -116q-199 0 -323.5 138t-124.5 361q0 216 125.5 350t326.5 134q181 0 310 -115q130 115 286 115q183 0 296.5 -146t105.5 -393h-539q10 -121 79 -186.5t179 -65.5q120 0 260 72zM979 561h270
q-10 232 -139 232q-140 0 -131 -232zM535 750q-156 0 -156 -279q0 -274 158 -274q149 0 149 278q0 275 -151 275z" />
    <glyph glyph-name="Scaron" unicode="&#x160;" horiz-adv-x="918" 
d="M90 92v301q179 -147 295 -147q56 0 92.5 33t36.5 83q0 43 -29 94.5t-172 188t-189 232t-46 184.5q0 150 115.5 253t285.5 103q149 0 305 -86v-262q-178 100 -270 100q-57 0 -93 -26.5t-36 -69.5q0 -33 27.5 -77t174.5 -186.5t199 -244t52 -192.5q0 -167 -116.5 -279
t-289.5 -112q-158 0 -342 110zM152 1843h182l127 -176l125 176h182l-176 -350h-264z" />
    <glyph glyph-name="scaron" unicode="&#x161;" horiz-adv-x="811" 
d="M82 61v220q172 -99 303 -99q109 0 109 82q0 25 -24 47.5t-163 77.5t-190 123.5t-51 151.5q0 132 96.5 216.5t249.5 84.5t307 -86v-195q-176 94 -309 94q-115 0 -115 -67q0 -24 24.5 -46t173 -78.5t206 -131.5t57.5 -166q0 -135 -99 -221t-254 -86q-148 0 -321 79z
M33 1417h182l127 -176l125 176h182l-176 -350h-264z" />
    <glyph glyph-name="Ydieresis" unicode="&#x178;" horiz-adv-x="1110" 
d="M406 0v639l-388 760h340l211 -430l174 430h338l-350 -760v-639h-325zM641 1669q0 46 32.5 78.5t78.5 32.5q45 0 77.5 -32.5t32.5 -78.5t-32.5 -78t-77.5 -32q-46 0 -78.5 32t-32.5 78zM250 1669q0 46 32.5 78.5t77.5 32.5q46 0 78.5 -32.5t32.5 -78.5t-32.5 -78
t-78.5 -32q-45 0 -77.5 32t-32.5 78z" />
    <glyph glyph-name="florin" unicode="&#x192;" horiz-adv-x="1139" 
d="M715 961h123v-168h-148l-160 -1014q-38 -254 -247 -254q-105 0 -236 57l45 207q65 -35 103 -35q34 0 48.5 26.5t26.5 106.5l144 906h-133v168h147l27 182q21 145 81.5 209.5t165.5 64.5q118 0 242 -61l-33 -207q-62 37 -106 37q-31 0 -45 -24t-29 -109z" />
    <glyph glyph-name="circumflex" unicode="&#x2c6;" horiz-adv-x="682" 
d="M33 1067l176 350h264l176 -350h-182l-125 176l-127 -176h-182z" />
    <glyph glyph-name="caron" unicode="&#x2c7;" horiz-adv-x="682" 
d="M33 1417h182l127 -176l125 176h182l-176 -350h-264z" />
    <glyph glyph-name="macron" unicode="&#x2c9;" horiz-adv-x="682" 
d="M47 1249v154h590v-154h-590z" />
    <glyph glyph-name="breve" unicode="&#x2d8;" horiz-adv-x="682" 
d="M16 1417h101q60 -153 221 -153q159 0 227 153h101q-51 -323 -330 -323q-134 0 -219 87.5t-101 235.5z" />
    <glyph glyph-name="dotaccent" unicode="&#x2d9;" horiz-adv-x="682" 
d="M231 1243q0 46 32.5 78.5t78.5 32.5t78.5 -32.5t32.5 -78.5t-32.5 -78t-78.5 -32t-78.5 32t-32.5 78z" />
    <glyph glyph-name="ring" unicode="&#x2da;" horiz-adv-x="682" 
d="M123 1268q0 90 64.5 154.5t154.5 64.5t154.5 -64.5t64.5 -154.5t-64.5 -154.5t-154.5 -64.5t-154.5 64.5t-64.5 154.5zM467 1268q0 52 -36.5 88.5t-88.5 36.5t-88.5 -36.5t-36.5 -88.5t36.5 -88.5t88.5 -36.5t88.5 36.5t36.5 88.5z" />
    <glyph glyph-name="ogonek" unicode="&#x2db;" horiz-adv-x="682" 
d="M217 27h148q-15 -91 -15 -148q0 -158 121 -158q40 0 113 27v-160q-106 -47 -187 -47q-102 0 -161.5 65.5t-59.5 178.5q0 93 41 242z" />
    <glyph glyph-name="tilde" unicode="&#x2dc;" horiz-adv-x="682" 
d="M127 1120h-123q0 105 58 174.5t149 69.5q54 0 144 -35t120 -35q58 0 82 70h123q-6 -111 -66 -177.5t-145 -66.5q-57 0 -136.5 36t-113.5 36q-73 0 -92 -72z" />
    <glyph glyph-name="hungarumlaut" unicode="&#x2dd;" horiz-adv-x="682" 
d="M457 1061l172 342h360l-379 -342h-153zM20 1061l173 342h360l-379 -342h-154z" />
    <glyph glyph-name="endash" unicode="&#x2013;" horiz-adv-x="1024" 
d="M1040 608v-270h-1056v270h1056z" />
    <glyph glyph-name="emdash" unicode="&#x2014;" horiz-adv-x="2048" 
d="M2062 608v-270h-2076v270h2076z" />
    <glyph glyph-name="quoteleft" unicode="&#x2018;" horiz-adv-x="555" 
d="M451 1417v-51q-94 -79 -107 -250q115 -46 115 -162q0 -67 -47.5 -114t-114.5 -47q-86 0 -139.5 64.5t-53.5 170.5q0 296 347 389z" />
    <glyph glyph-name="quoteright" unicode="&#x2019;" horiz-adv-x="555" 
d="M104 793v51q94 79 107 250q-115 46 -115 161q0 68 47.5 115t114.5 47q86 0 139.5 -65t53.5 -170q0 -296 -347 -389z" />
    <glyph glyph-name="quotesinglbase" unicode="&#x201a;" horiz-adv-x="555" 
d="M113 -311v51q93 79 106 250q-115 46 -115 162q0 67 47.5 114t114.5 47q86 0 139.5 -64.5t53.5 -170.5q0 -296 -346 -389z" />
    <glyph glyph-name="quotedblleft" unicode="&#x201c;" horiz-adv-x="1024" 
d="M922 1417v-51q-94 -79 -107 -250q115 -46 115 -162q0 -67 -47.5 -114t-114.5 -47q-86 0 -139.5 64.5t-53.5 170.5q0 296 347 389zM440 1417v-51q-93 -79 -106 -250q115 -46 115 -162q0 -67 -47.5 -114t-114.5 -47q-86 0 -139.5 64.5t-53.5 170.5q0 296 346 389z" />
    <glyph glyph-name="quotedblright" unicode="&#x201d;" horiz-adv-x="1024" 
d="M584 793v51q93 79 106 250q-115 46 -115 161q0 68 47.5 115t114.5 47q86 0 139.5 -65t53.5 -170q0 -296 -346 -389zM102 793v51q94 79 107 250q-115 46 -115 161q0 68 47.5 115t114.5 47q86 0 139.5 -65t53.5 -170q0 -296 -347 -389z" />
    <glyph glyph-name="quotedblbase" unicode="&#x201e;" horiz-adv-x="1024" 
d="M584 -311v51q93 79 106 250q-115 46 -115 162q0 67 47.5 114t114.5 47q86 0 139.5 -64.5t53.5 -170.5q0 -296 -346 -389zM102 -311v51q94 79 107 250q-115 46 -115 162q0 67 47.5 114t114.5 47q86 0 139.5 -64.5t53.5 -170.5q0 -296 -347 -389z" />
    <glyph glyph-name="dagger" unicode="&#x2020;" horiz-adv-x="1024" 
d="M573 1417q81 0 81 -34q0 -7 -5 -33l-90 -451l342 84q22 6 36 6q38 0 38 -55v-152q0 -73 -35 -73q-14 0 -39 6l-342 84l113 -1207q2 -25 2 -34q0 -33 -37 -33h-254q-37 0 -37 38q0 8 2 29l115 1207l-340 -84q-29 -7 -41 -7q-33 0 -33 83v139q0 59 36 59q16 0 38 -6
l340 -84l-90 451q-4 18 -4 29q0 38 82 38h122z" />
    <glyph glyph-name="daggerdbl" unicode="&#x2021;" horiz-adv-x="1044" 
d="M412 1294q-10 53 -10 69q0 34 27 44t93 10q71 0 96.5 -10t25.5 -45q0 -21 -9 -68l-64 -344l324 70q21 4 33 4q31 0 41 -30t10 -97q0 -116 -44 -116q-8 0 -26 3l-338 70l64 -385l-64 -385l318 70q30 6 43 6q47 0 47 -119q0 -70 -10 -98.5t-41 -28.5q-12 0 -33 4l-324 70
l64 -342q8 -45 8 -65q0 -37 -24 -46.5t-97 -9.5q-66 0 -93.5 9t-27.5 42q0 13 11 70l63 342l-325 -70q-21 -4 -32 -4q-52 0 -52 127q0 66 10 92t41 26q14 0 41 -5l317 -70l-63 385l63 385l-340 -70q-15 -3 -24 -3q-45 0 -45 116q0 69 10 98t41 29q11 0 33 -4l325 -70z" />
    <glyph glyph-name="bullet" unicode="&#x2022;" horiz-adv-x="717" 
d="M63 725q0 122 87.5 208.5t209.5 86.5q123 0 209 -86.5t86 -208.5q0 -123 -86.5 -210t-208.5 -87t-209.5 87.5t-87.5 209.5z" />
    <glyph glyph-name="ellipsis" unicode="&#x2026;" horiz-adv-x="2048" 
d="M1544 145q0 67 48 114.5t116 47.5q67 0 114.5 -47t47.5 -115q0 -67 -47.5 -115t-114.5 -48t-115.5 48t-48.5 115zM862 145q0 67 48 114.5t116 47.5q67 0 114.5 -47t47.5 -115q0 -67 -47.5 -115t-114.5 -48t-115.5 48t-48.5 115zM180 145q0 67 48.5 114.5t115.5 47.5
t114.5 -47t47.5 -115q0 -67 -47.5 -115t-114.5 -48t-115.5 48t-48.5 115z" />
    <glyph glyph-name="perthousand" unicode="&#x2030;" horiz-adv-x="2028" 
d="M201 -53l784 1507h197l-776 -1507h-205zM319 678q-135 0 -208.5 95.5t-73.5 273.5t73.5 274t208.5 96q137 0 211 -96t74 -274q0 -177 -74 -273t-211 -96zM319 1272q-41 0 -56 -52t-15 -173q0 -120 15 -171t56 -51q43 0 58.5 51t15.5 171q0 122 -15.5 173.5t-58.5 51.5z
M1706 -10q-136 0 -209.5 95.5t-73.5 272.5q0 179 73.5 275t209.5 96t210.5 -96t74.5 -275q0 -177 -74.5 -272.5t-210.5 -95.5zM1706 582q-42 0 -57 -51.5t-15 -172.5q0 -119 15.5 -170t56.5 -51q43 0 58.5 50.5t15.5 170.5q0 121 -15.5 172.5t-58.5 51.5zM1071 -10
q-136 0 -209.5 95.5t-73.5 272.5q0 179 73.5 275t209.5 96t210.5 -96t74.5 -275q0 -177 -74.5 -272.5t-210.5 -95.5zM1071 582q-41 0 -56.5 -51.5t-15.5 -172.5q0 -119 15.5 -170t56.5 -51q43 0 58.5 50.5t15.5 170.5q0 121 -15.5 172.5t-58.5 51.5z" />
    <glyph glyph-name="guilsinglleft" unicode="&#x2039;" horiz-adv-x="618" 
d="M293 471l270 -471h-237l-271 471l271 471h237z" />
    <glyph glyph-name="guilsinglright" unicode="&#x203a;" horiz-adv-x="618" 
d="M326 471l-271 471h238l270 -471l-270 -471h-238z" />
    <glyph glyph-name="fraction" unicode="&#x2044;" horiz-adv-x="256" 
d="M-367 -53l787 1507h194l-774 -1507h-207z" />
    <glyph glyph-name="trademark" unicode="&#x2122;" horiz-adv-x="2048" 
d="M471 647v676h-254v143h666v-143h-246v-676h-166zM981 647v819h258l147 -563h5l147 563h260v-819h-158v651h-4l-174 -651h-151l-170 651h-4v-651h-156z" />
    <glyph glyph-name="ohm" unicode="&#x2126;" horiz-adv-x="1573" 
d="M496 160q-108 67 -165 130q-87 96 -134 225.5t-47 286.5q0 196 79.5 360.5t231 252.5t347.5 88q336 0 516 -254q131 -186 131 -448q0 -168 -54 -297.5t-141 -222.5q-53 -58 -149 -121l364 6v-166h-575v177q80 40 124 78q72 61 122 145t75.5 179t25.5 198
q0 138 -49.5 277.5t-150 212.5t-243.5 73q-191 0 -296 -120q-146 -169 -146 -440q0 -217 91 -372.5t251 -227.5v-180h-577v168z" />
    <glyph glyph-name="partialdiff" unicode="&#x2202;" horiz-adv-x="1012" 
d="M422 1138l-135 60q70 157 168 225t192 68q76 0 137.5 -39.5t92.5 -90.5q47 -79 69.5 -187t22.5 -248q0 -288 -86.5 -512.5t-233.5 -331.5t-289 -107q-137 0 -222.5 91t-85.5 256q0 226 153 387q197 207 649 215q-4 168 -24 256t-68 135.5t-113 47.5q-62 0 -121 -49.5
t-106 -175.5zM850 796q-244 -14 -357.5 -68t-187 -176.5t-73.5 -248.5q0 -83 51 -137t119 -54q75 0 160 55q117 76 190.5 234.5t97.5 394.5z" />
    <glyph glyph-name="Delta" unicode="&#x2206;" horiz-adv-x="1253" 
d="M668 1409l577 -1409h-1233zM594 1059l-447 -959h844z" />
    <glyph glyph-name="product" unicode="&#x220f;" horiz-adv-x="1686" 
d="M161 1491h1362v-1922h-191v1748h-978v-1748h-193v1922z" />
    <glyph glyph-name="summation" unicode="&#x2211;" horiz-adv-x="1460" 
d="M139 1491h1237v-164h-988l607 -775l-649 -822h1040v-161h-1264v187l620 788l-603 772v175z" />
    <glyph glyph-name="radical" unicode="&#x221a;" horiz-adv-x="1124" 
d="M1055 1868l-307 -1946l-498 1028l-197 -96l-33 68l299 147l404 -825l260 1634z" />
    <glyph glyph-name="infinity" unicode="&#x221e;" horiz-adv-x="1460" 
d="M689 812q105 132 164 174q80 58 169 58q105 0 196.5 -76t91.5 -245q0 -118 -34 -185.5t-106 -108.5t-148 -41q-89 0 -169 57q-59 43 -164 175q-136 -171 -289 -171q-101 0 -173.5 76.5t-72.5 190.5q0 113 72.5 190t173.5 77q153 0 289 -171zM758 717q87 -135 159 -185
q46 -33 103 -33q76 0 127.5 56t51.5 158q0 106 -52.5 162t-130.5 56q-49 0 -92 -28q-58 -39 -166 -186zM620 716q-80 100 -128 128.5t-92 28.5q-58 0 -96.5 -41t-38.5 -113q0 -71 40 -113.5t97 -42.5q101 0 218 153z" />
    <glyph glyph-name="integral" unicode="&#x222b;" horiz-adv-x="561" 
d="M602 1760q0 -39 -29.5 -64t-75.5 -25q-37 0 -60 25t-44 25q-18 0 -27.5 -14.5t-9.5 -43.5q0 -34 19.5 -256t19.5 -551q0 -505 -30 -709.5t-79 -282.5q-26 -41 -67.5 -62t-85.5 -21q-49 0 -86 35t-37 85q0 38 25.5 65t64.5 27q34 0 65.5 -33t44.5 -33q25 0 39.5 44.5
t14.5 153.5q0 37 -6 197t-6 562q0 481 17 638.5t41 215.5q29 70 69 104t84 34q57 0 98 -32.5t41 -83.5z" />
    <glyph glyph-name="approxequal" unicode="&#x2248;" horiz-adv-x="1124" 
d="M1022 874h51q-21 -155 -95.5 -238t-186.5 -83q-97 0 -304 117q-139 78 -211 78q-149 0 -178 -187h-47q20 154 93.5 238t181.5 84q47 0 107 -19.5t224 -107.5q118 -62 193 -62q144 0 172 180zM1022 487h51q-21 -155 -95.5 -238t-186.5 -83q-96 0 -268.5 97t-246.5 97
q-149 0 -178 -186h-47q20 153 93.5 236.5t181.5 83.5q47 0 112 -21.5t219 -103.5q118 -62 193 -62q144 0 172 180z" />
    <glyph glyph-name="notequal" unicode="&#x2260;" horiz-adv-x="1124" 
d="M1106 279h-621l-184 -330l-100 57l151 273h-321v112h385l157 285h-542v112h606l186 336l101 -57l-156 -279h338v-112h-399l-160 -285h559v-112z" />
    <glyph glyph-name="lessequal" unicode="&#x2264;" horiz-adv-x="1124" 
d="M1077 240l-1018 471v127l1018 471v-127l-887 -408l887 -407v-127zM1077 0h-1018v112h1018v-112z" />
    <glyph glyph-name="greaterequal" unicode="&#x2265;" horiz-adv-x="1124" 
d="M1077 711l-1018 -471v127l887 407l-887 408v127l1018 -471v-127zM1077 0h-1018v112h1018v-112z" />
    <glyph glyph-name="lozenge" unicode="&#x25ca;" horiz-adv-x="1012" 
d="M962 763l-397 -763h-122l-397 763l397 763h122zM839 763l-335 652l-335 -652l335 -652z" />
    <glyph glyph-name="fi" unicode="&#xf001;" horiz-adv-x="1130" 
d="M147 0v778h-106v168h106v88q0 185 82.5 284t237.5 99q75 0 160 -33v-196q-48 15 -81 15q-104 0 -104 -156v-101h154v-168h-154v-778h-295zM864 1067q-67 0 -114.5 48t-47.5 114q0 67 47.5 115.5t114.5 48.5q68 0 116 -48.5t48 -115.5q0 -66 -48.5 -114t-115.5 -48zM719 0
v946h295v-946h-295z" />
    <glyph glyph-name="fi" unicode="&#xfb01;" horiz-adv-x="1130" 
d="M147 0v778h-106v168h106v88q0 185 82.5 284t237.5 99q75 0 160 -33v-196q-48 15 -81 15q-104 0 -104 -156v-101h154v-168h-154v-778h-295zM864 1067q-67 0 -114.5 48t-47.5 114q0 67 47.5 115.5t114.5 48.5q68 0 116 -48.5t48 -115.5q0 -66 -48.5 -114t-115.5 -48zM719 0
v946h295v-946h-295z" />
    <glyph glyph-name="fl" unicode="&#xf002;" horiz-adv-x="1130" 
d="M143 0v778h-104v168h104v76q0 186 103 290.5t280 104.5q44 0 105 -9l57 -9h322v-1399h-295v1176q-62 26 -129 26q-148 0 -148 -190v-66h150v-168h-150v-778h-295z" />
    <glyph glyph-name="fl" unicode="&#xfb02;" horiz-adv-x="1130" 
d="M143 0v778h-104v168h104v76q0 186 103 290.5t280 104.5q44 0 105 -9l57 -9h322v-1399h-295v1176q-62 26 -129 26q-148 0 -148 -190v-66h150v-168h-150v-778h-295z" />
    <glyph glyph-name="pi" horiz-adv-x="1124" 
d="M1085 309q-5 -155 -75.5 -248.5t-167.5 -93.5q-79 0 -138.5 91.5t-59.5 281.5q0 42 2 80t5 72l35 329h-231q-60 -624 -98.5 -742.5t-130.5 -118.5q-39 0 -74 31t-35 82q0 46 72.5 128.5t80.5 150.5l60 469h-97q-40 0 -78.5 -19.5t-56.5 -45.5l-43 -64h-35
q49 152 120.5 228.5t164.5 76.5h764v-176h-258q-12 -120 -18.5 -240t-6.5 -241q0 -82 38 -133t95 -51q35 0 73.5 28.5t43.5 74.5q3 22 4.5 34.5t1.5 15.5h43z" />
    <glyph glyph-name="apple" horiz-adv-x="1618" 
 />
    </font>
</defs>
</svg>
