<?xml version="1.0" standalone="no"?>
<!DOCTYPE svg PUBLIC "-//W3C//DTD SVG 1.1//EN" "http://www.w3.org/Graphics/SVG/1.1/DTD/svg11.dtd" >
<svg xmlns="http://www.w3.org/2000/svg" xmlns:xlink="http://www.w3.org/1999/xlink" version="1.1">
<metadata>
Created by FontForge 20161013 at Thu May 20 12:07:38 1999
 By ,,,
Digitized data copyright (c) 1997 The Monotype Corporation, Inc. All rights reserved. Gill Sans is a trademark of The Monotype Corporation, Inc. which may be registered in certain jurisdictions.
</metadata>
<defs>
<font id="GillSansMT-ExtraBold" horiz-adv-x="1430" >
  <font-face 
    font-family="Gill Sans MT Extra Bold"
    font-weight="400"
    font-stretch="normal"
    units-per-em="2048"
    panose-1="2 11 9 2 2 1 4 2 2 3"
    ascent="1638"
    descent="-410"
    x-height="1081"
    cap-height="1397"
    bbox="-410 -485 2562 1889"
    underline-thickness="102"
    underline-position="-358"
    unicode-range="U+0020-2219"
  />
<missing-glyph horiz-adv-x="2048" 
d="M256 0v1536h1536v-1536h-1536zM384 128h1280v1280h-1280v-1280z" />
    <glyph glyph-name=".notdef" horiz-adv-x="2048" 
d="M256 0v1536h1536v-1536h-1536zM384 128h1280v1280h-1280v-1280z" />
    <glyph glyph-name=".null" horiz-adv-x="0" 
 />
    <glyph glyph-name="nonmarkingreturn" horiz-adv-x="682" 
 />
    <glyph glyph-name="space" unicode=" " horiz-adv-x="682" 
 />
    <glyph glyph-name="exclam" unicode="!" horiz-adv-x="748" 
d="M440 475q185 -65 185 -242q0 -104 -73 -177.5t-177 -73.5t-177 73.5t-73 177.5q0 177 184 242q-184 357 -184 600q0 145 74 242.5t176 97.5t176 -97.5t74 -242.5q0 -243 -185 -600z" />
    <glyph glyph-name="quotedbl" unicode="&#x22;" horiz-adv-x="1024" 
d="M569 1466h406v-241l-66 -297h-274l-66 297v241zM49 1466h406v-241l-66 -297h-274l-66 297v241z" />
    <glyph glyph-name="numbersign" unicode="#" horiz-adv-x="1366" 
d="M68 319v246h198l51 248h-249v246h303l75 360h246l-76 -360h302l75 360h246l-76 -360h146v-246h-199l-51 -248h250v-246h-303l-76 -360h-246l76 360h-301l-76 -360h-246l76 360h-145zM563 813l-51 -248h301l51 248h-301z" />
    <glyph glyph-name="dollar" unicode="$" horiz-adv-x="1260" 
d="M569 223v326q-489 121 -489 428q0 171 133 286.5t356 116.5v50h138v-56q216 -23 389 -133v-313q-226 179 -389 205v-291q249 -64 369 -169.5t120 -271.5q0 -172 -126 -286t-363 -131v-138h-138v138q-240 9 -432 90v297q231 -139 432 -148zM569 872v275q-85 0 -135.5 -36
t-50.5 -93q0 -102 186 -146zM707 518v-293q186 19 186 140q0 62 -45 96t-141 57z" />
    <glyph glyph-name="percent" unicode="%" horiz-adv-x="1878" 
d="M401 -49l842 1497h219l-839 -1497h-222zM406 678q-166 0 -266.5 101.5t-100.5 267.5q0 165 100.5 266.5t266.5 101.5q163 0 263.5 -101.5t100.5 -266.5q0 -166 -100.5 -267.5t-263.5 -101.5zM406 1210q-119 0 -119 -163q0 -164 119 -164q116 0 116 164q0 163 -116 163z
M1473 -8q-166 0 -266.5 101t-100.5 267t100.5 267.5t266.5 101.5q163 0 263.5 -101.5t100.5 -267.5t-100.5 -267t-263.5 -101zM1473 524q-119 0 -119 -164q0 -163 119 -163q116 0 116 163q0 164 -116 164z" />
    <glyph glyph-name="ampersand" unicode="&#x26;" horiz-adv-x="1729" 
d="M1268 721h352q-114 -214 -272 -348q110 -92 186 -92q70 0 121 49l31 -29q-135 -176 -218 -247.5t-161 -71.5q-90 0 -238 145q-208 -145 -475 -145q-219 0 -346 98t-127 264q0 228 291 377q-88 80 -129 150.5t-41 158.5q0 169 140 277t363 108q212 0 335.5 -102
t123.5 -250q0 -220 -248 -326l187 -176q57 51 125 160zM770 897q77 36 113.5 74.5t36.5 91.5q0 58 -43.5 94.5t-112.5 36.5q-65 0 -106.5 -32t-41.5 -81q0 -80 154 -184zM868 315l-268 230q-121 -61 -121 -164q0 -66 51.5 -111t126.5 -45q106 0 211 90z" />
    <glyph glyph-name="quotesingle" unicode="'" horiz-adv-x="575" 
d="M86 1466h406v-241l-66 -297h-274l-66 297v241z" />
    <glyph glyph-name="parenleft" unicode="(" horiz-adv-x="938" 
d="M659 -467q-287 217 -426 447.5t-139 496.5q0 265 138.5 493t426.5 445h320q-233 -232 -346 -457t-113 -481t113 -484t346 -460h-320z" />
    <glyph glyph-name="parenright" unicode=")" horiz-adv-x="938" 
d="M279 1415q288 -217 426.5 -445t138.5 -493q0 -270 -141 -500t-424 -444h-320q233 232 346 460t113 484q0 245 -107.5 469.5t-351.5 468.5h320z" />
    <glyph glyph-name="asterisk" unicode="*" horiz-adv-x="1300" 
d="M590 967l-103 270q-27 70 -27 104q0 43 44 58.5t147 15.5q110 0 149.5 -16t39.5 -60q0 -41 -33 -126l-96 -246q28 -13 49 -37q230 177 270.5 204t67.5 27q54 0 91.5 -104t37.5 -189q0 -37 -23.5 -51t-75.5 -14q-17 0 -335 22q-4 -34 -21 -63q271 -180 303.5 -210
t32.5 -50q0 -44 -104.5 -124.5t-159.5 -80.5q-41 0 -64 75l-92 326q-17 -3 -38 -3t-38 3q-83 -309 -100.5 -355t-50.5 -46q-49 0 -158.5 79t-109.5 124q0 37 115 114l222 148q-19 34 -20 63q-310 -22 -333 -22q-53 0 -78 12.5t-25 52.5q0 74 39 183.5t92 109.5q34 0 116 -62
l222 -169q17 23 47 37z" />
    <glyph glyph-name="plus" unicode="+" horiz-adv-x="1366" 
d="M115 829h426v426h284v-426h426v-284h-426v-426h-284v426h-426v284z" />
    <glyph glyph-name="comma" unicode="," horiz-adv-x="748" 
d="M41 -362v34q213 101 246 299q-93 26 -144 90.5t-51 149.5q0 108 73.5 181t182.5 73q131 0 216 -94t85 -240q0 -97 -41.5 -189t-122 -164t-185.5 -106t-259 -34z" />
    <glyph glyph-name="hyphen" unicode="-" horiz-adv-x="918" 
d="M70 356v371h778v-371h-778z" />
    <glyph glyph-name="period" unicode="." horiz-adv-x="748" 
d="M123 233q0 105 73.5 177.5t178.5 72.5q104 0 177 -73t73 -177t-73 -177.5t-177 -73.5t-178 74t-74 177z" />
    <glyph glyph-name="slash" unicode="/" horiz-adv-x="575" 
d="M315 1397h289l-346 -1397h-287z" />
    <glyph glyph-name="zero" unicode="0" horiz-adv-x="1386" 
d="M694 -18q-270 0 -435 196t-165 520q0 325 165 521t435 196q269 0 433.5 -196.5t164.5 -520.5t-164.5 -520t-433.5 -196zM694 1065q-213 0 -213 -367q0 -366 213 -366q211 0 211 366q0 367 -211 367z" />
    <glyph glyph-name="one" unicode="1" horiz-adv-x="1386" 
d="M463 0v1397h463v-1397h-463z" />
    <glyph glyph-name="two" unicode="2" horiz-adv-x="1386" 
d="M1264 342v-342h-1149v20q339 330 471.5 496.5t132.5 317.5q0 98 -65 162.5t-165 64.5q-167 0 -307 -189v371q131 98 235.5 135t235.5 37q233 0 362.5 -133.5t129.5 -318.5q0 -297 -334 -621h453z" />
    <glyph glyph-name="three" unicode="3" horiz-adv-x="1386" 
d="M254 1061v278q168 76 358 76q226 0 364 -109t138 -286q0 -195 -184 -299q205 -103 205 -326q0 -109 -56.5 -206.5t-163 -152t-251.5 -54.5q-224 0 -437 114v334q153 -125 279 -125q80 0 129 41.5t49 108.5q0 70 -54 111.5t-147 41.5q-44 0 -96 -8v240q26 -2 53 -2
q115 0 181.5 41.5t66.5 111.5q0 65 -55.5 105.5t-143.5 40.5q-120 0 -235 -76z" />
    <glyph glyph-name="four" unicode="4" horiz-adv-x="1386" 
d="M1321 281h-229v-281h-426v281h-592v315l624 815h394v-872h229v-258zM666 539v524l-398 -524h398z" />
    <glyph glyph-name="five" unicode="5" horiz-adv-x="1386" 
d="M1208 1397v-324h-391l-59 -248q190 -6 289.5 -113t99.5 -276q0 -212 -145 -333t-400 -121q-203 0 -395 63v309q121 -37 217 -37q109 0 170 41.5t61 114.5q0 77 -62 121.5t-171 44.5q-79 0 -162 -21l186 779h762z" />
    <glyph glyph-name="six" unicode="6" horiz-adv-x="1386" 
d="M877 1415l372 -246q-264 -63 -415 -211q216 -19 340 -145t124 -309q0 -137 -69 -260.5t-201.5 -192.5t-316.5 -69q-289 0 -451 163t-162 424q0 291 215 534.5t564 311.5zM698 305q94 0 153.5 55t59.5 144q0 95 -57 152t-154 57q-94 0 -154.5 -58.5t-60.5 -150.5
q0 -90 59 -144.5t154 -54.5z" />
    <glyph glyph-name="seven" unicode="7" horiz-adv-x="1386" 
d="M171 0l526 1055h-577v342h1249v-29l-684 -1368h-514z" />
    <glyph glyph-name="eight" unicode="8" horiz-adv-x="1386" 
d="M338 711q-209 104 -209 311q0 182 147.5 287.5t419.5 105.5q268 0 416 -106.5t148 -286.5q0 -206 -211 -311q116 -38 177.5 -121.5t61.5 -196.5q0 -191 -151 -301t-443 -110q-289 0 -441.5 109t-152.5 302q0 114 61.5 197t176.5 121zM694 827q81 0 133 51t52 130
q0 82 -51 131t-134 49q-84 0 -134 -49.5t-50 -130.5t50 -131t134 -50zM487 420q0 -85 61.5 -139t145.5 -54t145.5 55t61.5 138q0 91 -54.5 141.5t-152.5 50.5q-95 0 -151 -51.5t-56 -140.5z" />
    <glyph glyph-name="nine" unicode="9" horiz-adv-x="1386" 
d="M598 -18l-483 256q304 66 456 235q-218 26 -343.5 152.5t-125.5 306.5q0 132 72.5 244.5t206.5 175.5t311 63q290 0 450.5 -161.5t160.5 -409.5q0 -252 -183 -487.5t-522 -374.5zM700 1092q-91 0 -151 -55.5t-60 -141.5q0 -88 60 -147.5t149 -59.5q92 0 154.5 60.5
t62.5 148.5q0 85 -61 140t-154 55z" />
    <glyph glyph-name="colon" unicode=":" horiz-adv-x="748" 
d="M123 897q0 104 73.5 177t178.5 73q104 0 177 -73t73 -177q0 -105 -73 -178.5t-177 -73.5t-178 74t-74 178zM123 233q0 105 73.5 177.5t178.5 72.5q104 0 177 -73t73 -177t-73 -177.5t-177 -73.5t-178 74t-74 177z" />
    <glyph glyph-name="semicolon" unicode=";" horiz-adv-x="748" 
d="M123 897q0 104 73.5 177t178.5 73q104 0 177 -73t73 -177q0 -105 -73 -178.5t-177 -73.5t-178 74t-74 178zM41 -362v34q213 101 246 299q-93 26 -144 90.5t-51 149.5q0 108 73.5 181t182.5 73q131 0 216 -94t85 -240q0 -97 -41.5 -189t-122 -164t-185.5 -106t-259 -34z
" />
    <glyph glyph-name="less" unicode="&#x3c;" horiz-adv-x="1366" 
d="M115 557v258l1134 471v-307l-743 -293l743 -293v-307z" />
    <glyph glyph-name="equal" unicode="=" horiz-adv-x="1366" 
d="M115 1073h1136v-285h-1136v285zM115 588h1136v-285h-1136v285z" />
    <glyph glyph-name="greater" unicode="&#x3e;" horiz-adv-x="1366" 
d="M1251 557l-1134 -471v307l743 293l-743 293v307l1134 -471v-258z" />
    <glyph glyph-name="question" unicode="?" horiz-adv-x="811" 
d="M168 1376q111 39 213 39q155 0 255.5 -87t100.5 -228q0 -59 -28.5 -126t-135.5 -191q-90 -104 -112.5 -152t-22.5 -88q0 -38 12 -50.5t42 -22.5q91 -31 129 -102t38 -135q0 -104 -73 -177.5t-176 -73.5q-104 0 -177 73.5t-73 177.5q0 175 176 240q-78 74 -78 154
q0 47 35 137q35 86 35 131q0 58 -44.5 95.5t-121.5 37.5q-47 0 -115 -20z" />
    <glyph glyph-name="at" unicode="@" horiz-adv-x="1516" 
d="M1157 1036l-125 -790q-3 -22 -3 -36q0 -42 38 -42q87 0 194 131.5t107 362.5q0 261 -150.5 415t-406.5 154q-293 0 -478.5 -203t-185.5 -526q0 -314 179.5 -506.5t470.5 -192.5q284 0 518 187h225q-126 -162 -329.5 -258.5t-409.5 -96.5q-351 0 -588.5 249t-237.5 618
q0 233 100 446.5t288.5 333t447.5 119.5q337 0 533 -210.5t196 -528.5q0 -193 -82 -343.5t-215.5 -234.5t-241.5 -84q-121 0 -155 119q-64 -63 -118 -91t-122 -28q-143 0 -234 119t-91 311q0 247 124.5 444t303.5 197q75 0 128.5 -35t106.5 -112l19 112h194zM743 899
q-105 0 -173 -152.5t-68 -371.5q0 -102 35.5 -159.5t101.5 -57.5q53 0 108 51t91 203.5t36 300.5q0 186 -131 186z" />
    <glyph glyph-name="A" unicode="A" horiz-adv-x="1835" 
d="M25 0l637 1397h512l636 -1397h-485l-92 227h-631l-92 -227h-485zM702 479h428l-212 553z" />
    <glyph glyph-name="B" unicode="B" horiz-adv-x="1599" 
d="M147 0v1397h818q224 0 342 -93.5t118 -244.5q0 -195 -219 -291q301 -105 301 -371q0 -172 -120 -284.5t-310 -112.5h-930zM637 817h141q108 0 164.5 49t56.5 135q0 183 -221 183h-141v-367zM637 213h147q250 0 250 203q0 91 -61 139.5t-176 48.5h-160v-391z" />
    <glyph glyph-name="C" unicode="C" horiz-adv-x="1556" 
d="M1407 477v-373q-220 -122 -520 -122q-375 0 -580 203.5t-205 506.5q0 315 217.5 519t591.5 204q276 0 484 -94v-408q-200 129 -406 129q-184 0 -290.5 -92.5t-106.5 -251.5q0 -157 108.5 -250.5t292.5 -93.5q198 0 414 123z" />
    <glyph glyph-name="D" unicode="D" horiz-adv-x="1706" 
d="M150 0v1397h700q354 0 556 -210.5t202 -506.5q0 -286 -178.5 -483t-491.5 -197h-788zM639 332h129q179 0 264.5 89.5t85.5 276.5q0 172 -89 269.5t-259 97.5h-131v-733z" />
    <glyph glyph-name="E" unicode="E" horiz-adv-x="1300" 
d="M147 0v1397h1047v-295h-557v-246h510v-295h-510v-266h565v-295h-1055z" />
    <glyph glyph-name="F" unicode="F" horiz-adv-x="1235" 
d="M145 0v1397h1020v-295h-530v-254h498v-295h-498v-553h-490z" />
    <glyph glyph-name="G" unicode="G" horiz-adv-x="1599" 
d="M1460 791v-746q-284 -65 -549 -65q-385 0 -598 205t-213 497q0 324 235 528.5t611 204.5q251 0 488 -94v-350q-220 119 -416 119q-192 0 -310 -110t-118 -288q0 -168 107.5 -268t289.5 -100q31 0 98 8v164h-174v295h549z" />
    <glyph glyph-name="H" unicode="H" horiz-adv-x="1812" 
d="M147 0v1397h490v-508h539v508h489v-1397h-489v528h-539v-528h-490z" />
    <glyph glyph-name="I" unicode="I" horiz-adv-x="788" 
d="M150 0v1397h489v-1397h-489z" />
    <glyph glyph-name="J" unicode="J" horiz-adv-x="831" 
d="M674 1397v-1325q0 -308 -128 -423.5t-308 -115.5q-101 0 -164 16l-187 408q38 -6 90 -6q59 0 113 25t74 68t20 140v1213h490z" />
    <glyph glyph-name="K" unicode="K" horiz-adv-x="1706" 
d="M641 0h-489v1397h489v-633l559 633h514l-569 -649l590 -748h-584l-510 659v-659z" />
    <glyph glyph-name="L" unicode="L" horiz-adv-x="1194" 
d="M150 0v1397h489v-1047h549v-350h-1038z" />
    <glyph glyph-name="M" unicode="M" horiz-adv-x="2005" 
d="M1860 0h-490l12 760l-378 -518l-379 518l12 -760h-490v1397h439l418 -566l417 566h439v-1397z" />
    <glyph glyph-name="N" unicode="N" horiz-adv-x="1898" 
d="M154 0v1397h417l707 -717l-27 717h496v-1397h-418l-706 717l26 -717h-495z" />
    <glyph glyph-name="O" unicode="O" horiz-adv-x="1706" 
d="M854 -18q-351 0 -555.5 200.5t-204.5 515.5q0 313 203 515t557 202q355 0 557.5 -203.5t202.5 -513.5t-202 -513t-558 -203zM854 1006q-125 0 -197.5 -83t-72.5 -225t72.5 -224.5t197.5 -82.5q124 0 197 83t73 224q0 142 -73 225t-197 83z" />
    <glyph glyph-name="P" unicode="P" horiz-adv-x="1411" 
d="M143 0v1397h701q268 0 411.5 -120.5t143.5 -320.5q0 -133 -67 -239t-197 -162.5t-318 -56.5h-184v-498h-490zM633 758h100q215 0 215 192q0 97 -53 142t-164 45h-98v-379z" />
    <glyph glyph-name="Q" unicode="Q" horiz-adv-x="1749" 
d="M1759 -96l-319 -295q-189 41 -589 216t-577.5 391.5t-177.5 488.5q0 301 204.5 505.5t565.5 204.5q366 0 577.5 -205.5t211.5 -517.5q0 -388 -361 -598q243 -126 465 -190zM870 1006q-128 0 -206 -86.5t-78 -229.5q0 -135 81 -221t210 -86q130 0 209 85t79 226
q0 140 -81.5 226t-213.5 86zM854 -18z" />
    <glyph glyph-name="R" unicode="R" horiz-adv-x="1665" 
d="M150 0v1397h796q258 0 398.5 -108.5t140.5 -291.5q0 -224 -225 -323q63 -27 112 -91t110 -199l173 -384h-481q-124 289 -168 378.5t-101.5 147.5t-132.5 58h-133v-584h-489zM639 799h133q120 0 185 49t65 139q0 184 -240 184h-143v-372z" />
    <glyph glyph-name="S" unicode="S" horiz-adv-x="1174" 
d="M102 78v379q205 -140 381 -140q65 0 102.5 26.5t37.5 70.5q0 28 -26.5 56t-140.5 88q-107 55 -178 104.5t-123.5 132.5t-52.5 200q0 111 58 210t169.5 154.5t266.5 55.5q244 0 440 -149v-369q-196 182 -348 182q-62 0 -98.5 -26t-36.5 -70q0 -33 30 -65.5t156 -97.5
q108 -56 179 -104.5t122.5 -128t51.5 -190.5q0 -180 -133 -297.5t-373 -117.5q-276 0 -484 96z" />
    <glyph glyph-name="T" unicode="T" horiz-adv-x="1473" 
d="M492 1047h-437v350h1362v-350h-436v-1047h-489v1047z" />
    <glyph glyph-name="U" unicode="U" horiz-adv-x="1706" 
d="M1602 1397v-756q0 -312 -190.5 -485.5t-549.5 -173.5q-360 0 -559 160t-199 448v807h490v-746q0 -139 67.5 -215t188.5 -76q123 0 192.5 81.5t69.5 234.5v721h490z" />
    <glyph glyph-name="V" unicode="V" horiz-adv-x="1642" 
d="M1171 1397h447l-580 -1397h-424l-587 1397h528l315 -875z" />
    <glyph glyph-name="W" unicode="W" horiz-adv-x="2005" 
d="M811 0h-293l-491 1397h458l164 -635l176 635h355l186 -635l154 635h458l-473 -1397h-293l-206 698z" />
    <glyph glyph-name="X" unicode="X" horiz-adv-x="1878" 
d="M55 0l602 692l-579 705h610l285 -414l299 414h538l-573 -660l610 -737h-610l-313 442l-330 -442h-539z" />
    <glyph glyph-name="Y" unicode="Y" horiz-adv-x="1642" 
d="M575 0v623l-542 774h583l267 -463l260 463h479l-557 -793v-604h-490z" />
    <glyph glyph-name="Z" unicode="Z" horiz-adv-x="1599" 
d="M74 0l714 1065h-733v332h1497l-714 -1065h688v-332h-1452z" />
    <glyph glyph-name="bracketleft" unicode="[" horiz-adv-x="897" 
d="M170 -467v1882h725v-246h-299v-1390h299v-246h-725z" />
    <glyph glyph-name="backslash" unicode="\" horiz-adv-x="575" 
d="M260 1397l344 -1397h-287l-346 1397h289z" />
    <glyph glyph-name="bracketright" unicode="]" horiz-adv-x="897" 
d="M727 -467h-725v246h299v1390h-299v246h725v-1882z" />
    <glyph glyph-name="asciicircum" unicode="^" horiz-adv-x="1343" 
d="M532 1491h279l410 -813h-355l-194 491l-193 -491h-354z" />
    <glyph glyph-name="underscore" unicode="_" horiz-adv-x="1024" 
d="M-12 -154h1048v-102h-1048v102z" />
    <glyph glyph-name="grave" unicode="`" horiz-adv-x="682" 
d="M539 1196h-224l-405 334h442z" />
    <glyph glyph-name="a" unicode="a" horiz-adv-x="1280" 
d="M1255 274l-77 -288q-59 -4 -105 -4q-209 0 -278 104q-154 -104 -355 -104q-163 0 -253.5 72.5t-90.5 191.5q0 67 40.5 133t115 101t235.5 78q202 53 246 91q-2 71 -39 102t-131 31q-112 0 -210 -44.5t-222 -139.5v317q223 185 510 185q221 0 353 -97.5t132 -277.5v-307
q0 -87 21.5 -114.5t107.5 -29.5zM733 315v154q-32 -24 -131 -54q-120 -37 -151 -72t-31 -81q0 -52 34 -86.5t87 -34.5q106 0 202 74q-10 28 -10 100z" />
    <glyph glyph-name="b" unicode="b" horiz-adv-x="1450" 
d="M131 0v1397h426v-342q119 45 246 45q244 0 404.5 -160t160.5 -403q0 -219 -150.5 -378t-406.5 -159h-680zM557 731v-373q77 -14 137 -14q113 0 180.5 56t67.5 149q0 91 -65.5 149t-169.5 58q-75 0 -150 -25z" />
    <glyph glyph-name="c" unicode="c" horiz-adv-x="1130" 
d="M1038 399v-350q-181 -67 -344 -67q-271 0 -442.5 154.5t-171.5 398.5q0 153 73 285.5t209 206t320 73.5q181 0 348 -56v-358q-138 64 -270 64q-114 0 -184 -59t-70 -152q0 -92 74 -149.5t192 -57.5q109 0 266 67z" />
    <glyph glyph-name="d" unicode="d" 
d="M1313 1397v-1397h-682q-248 0 -398.5 151t-150.5 398q0 246 152 398.5t397 152.5q129 0 256 -45v342h426zM887 369v358q-87 23 -152 23q-101 0 -164 -57t-63 -148q0 -88 66.5 -141.5t177.5 -53.5q54 0 135 19z" />
    <glyph glyph-name="e" unicode="e" horiz-adv-x="1260" 
d="M1112 369l78 -176q-185 -211 -500 -211q-271 0 -442.5 160t-171.5 403q0 237 160 396t399 159q232 0 389 -156t157 -396q0 -43 -5 -87h-707q4 -90 92.5 -152.5t204.5 -62.5q169 0 346 123zM453 621h372q-3 241 -186 241q-59 0 -103 -26.5t-63.5 -75.5t-19.5 -139z" />
    <glyph glyph-name="f" unicode="f" horiz-adv-x="854" 
d="M195 0v678h-166v270h166v64q0 191 114.5 297t319.5 106q94 0 184 -22v-283q-41 14 -72 14q-120 0 -120 -145v-31h184v-270h-184v-678h-426z" />
    <glyph glyph-name="g" unicode="g" horiz-adv-x="1237" 
d="M1204 1100v-232h-162q66 -94 66 -209q0 -124 -86.5 -223.5t-264.5 -130.5q-51 -9 -71 -19t-20 -38q0 -21 20 -35t111 -29q116 -19 194 -50.5t128 -102t50 -154.5q0 -152 -152.5 -251t-424.5 -99q-529 0 -529 274q0 87 72 155.5t197 86.5v4q-90 39 -90 127q0 99 127 148
q-263 101 -263 350q0 116 67.5 216t197 156t311.5 56h522zM606 836q-75 0 -125.5 -45.5t-50.5 -112.5q0 -64 50.5 -109t123.5 -45q77 0 128.5 45.5t51.5 112.5q0 68 -49.5 111t-128.5 43zM608 -23q-92 0 -148.5 -40t-56.5 -105q0 -139 205 -139q219 0 219 133
q0 67 -59.5 109t-159.5 42z" />
    <glyph glyph-name="h" unicode="h" horiz-adv-x="1386" 
d="M123 0v1397h426v-453q140 156 346 156q176 0 273.5 -102t97.5 -296v-702h-426v590q0 75 -33 117.5t-92 42.5q-91 0 -166 -107v-643h-426z" />
    <glyph glyph-name="i" unicode="i" horiz-adv-x="682" 
d="M199 1303q0 59 41.5 101t101.5 42t101.5 -42t41.5 -101q0 -60 -41.5 -102t-101.5 -42t-101.5 42t-41.5 102zM129 0v1081h426v-1081h-426z" />
    <glyph glyph-name="j" unicode="j" horiz-adv-x="682" 
d="M201 1303q0 59 41.5 101t101.5 42t101.5 -42t41.5 -101q0 -60 -41.5 -102t-101.5 -42t-101.5 42t-41.5 102zM557 1081v-1159q0 -70 -21 -136.5t-62 -122t-100 -93t-133 -49.5q-24 -4 -110 -4l-145 270q79 30 112 75.5t33 166.5v1052h426z" />
    <glyph glyph-name="k" unicode="k" horiz-adv-x="1450" 
d="M1491 0h-535l-405 506v-506h-426v1397h426v-688l350 372h526l-452 -460z" />
    <glyph glyph-name="l" unicode="l" horiz-adv-x="682" 
d="M129 0v1397h426v-1397h-426z" />
    <glyph glyph-name="m" unicode="m" horiz-adv-x="2068" 
d="M125 0v1081h426v-143q145 162 338 162q114 0 190.5 -46.5t134.5 -146.5q169 193 385 193q166 0 259.5 -113t93.5 -295v-692h-426v621q0 58 -30.5 93.5t-82.5 35.5q-95 0 -162 -111v-639h-426v612q0 61 -32 99.5t-86 38.5q-86 0 -156 -111v-639h-426z" />
    <glyph glyph-name="n" unicode="n" horiz-adv-x="1386" 
d="M125 0v1081h426v-141q84 84 164 122t184 38q176 0 273.5 -101.5t97.5 -283.5v-715h-426v592q0 158 -123 158q-102 0 -170 -117v-633h-426z" />
    <glyph glyph-name="o" unicode="o" 
d="M719 -18q-303 0 -472 160t-169 399q0 157 76 286.5t220 201t341 71.5q301 0 469 -160.5t168 -398.5q0 -242 -170 -400.5t-463 -158.5zM715 750q-93 0 -152 -58.5t-59 -150.5q0 -93 58.5 -151t152.5 -58q93 0 152 58.5t59 150.5t-59 150.5t-152 58.5z" />
    <glyph glyph-name="p" unicode="p" 
d="M539 1081v-104q145 123 315 123q211 0 352.5 -158t141.5 -395q0 -252 -154.5 -408.5t-400.5 -156.5q-132 0 -254 47v-496h-426v1548h426zM539 717v-350q86 -35 159 -35q99 0 161.5 61t62.5 158q0 95 -62 154t-162 59q-76 0 -159 -47z" />
    <glyph glyph-name="q" unicode="q" horiz-adv-x="1432" 
d="M1309 1081v-1548h-426v496q-119 -47 -256 -47q-244 0 -396.5 154t-152.5 401q0 240 149.5 392t384.5 152h697zM883 354v355q-70 22 -146 22q-108 0 -170.5 -55t-62.5 -150q0 -89 62 -141.5t165 -52.5q72 0 152 22z" />
    <glyph glyph-name="r" unicode="r" horiz-adv-x="1110" 
d="M1124 1016l-188 -430q-95 90 -182 90q-51 0 -94.5 -31t-75 -97.5t-31.5 -98.5v-449h-426v1081h385v-297q119 316 350 316q119 0 262 -84z" />
    <glyph glyph-name="s" unicode="s" horiz-adv-x="1024" 
d="M905 1012v-285q-178 109 -297 109q-44 0 -72 -21t-28 -53q0 -27 20.5 -49t111.5 -55q195 -70 258 -164t63 -185q0 -84 -49 -161.5t-142.5 -121.5t-224.5 -44q-278 0 -463 104v307q193 -147 340 -147q113 0 113 84q0 26 -25 51t-131 73q-187 85 -242 162t-55 166
q0 139 111.5 228.5t324.5 89.5q212 0 387 -88z" />
    <glyph glyph-name="t" unicode="t" horiz-adv-x="1087" 
d="M993 428v-326q-161 -120 -372 -120q-138 0 -241.5 49.5t-141 128t-37.5 223.5v428h-189v133l518 461h97v-324h342v-270h-342v-324q0 -74 30 -108.5t97 -34.5q110 0 239 84z" />
    <glyph glyph-name="u" unicode="u" 
d="M1249 1081v-684q0 -118 95 -118q29 0 65 12l-111 -291q-81 -18 -184 -18q-126 0 -188 44t-86 142q-150 -186 -369 -186q-171 0 -270 104.5t-99 304.5v690h426v-585q0 -86 30.5 -125t96.5 -39q91 0 168 110v639h426z" />
    <glyph glyph-name="v" unicode="v" horiz-adv-x="1343" 
d="M504 0l-479 1081h456l226 -575l227 575h387l-467 -1081h-350z" />
    <glyph glyph-name="w" unicode="w" horiz-adv-x="1898" 
d="M1874 1081l-379 -1081h-315l-219 600l-222 -600h-311l-403 1081h434l168 -534l196 534h273l194 -534l158 534h426z" />
    <glyph glyph-name="x" unicode="x" horiz-adv-x="1409" 
d="M61 0l410 514l-428 567h528l174 -278l179 278h428l-398 -501l439 -580h-531l-184 305l-189 -305h-428z" />
    <glyph glyph-name="y" unicode="y" horiz-adv-x="1300" 
d="M145 -467l306 625l-428 923h458l199 -530l217 530h399l-747 -1548h-404z" />
    <glyph glyph-name="z" unicode="z" horiz-adv-x="1260" 
d="M51 0l477 760h-442v321h1104v-34l-469 -725h453v-322h-1123z" />
    <glyph glyph-name="braceleft" unicode="{" horiz-adv-x="788" 
d="M25 645q194 -16 194 227v181q0 135 38.5 217.5t125 122t256.5 39.5h133v-328h-43q-86 0 -116.5 -44.5t-30.5 -154.5q0 -210 -34 -299.5t-145 -130.5q111 -41 145 -129.5t34 -298.5q0 -112 31.5 -157.5t115.5 -45.5h43v-327h-133q-146 0 -236 31t-137 113.5t-47 234.5v184
q0 56 -11.5 100.5t-36.5 75t-56.5 40t-89.5 9.5v340z" />
    <glyph glyph-name="bar" unicode="|" horiz-adv-x="1300" 
d="M508 1397h287v-1880h-287v1880z" />
    <glyph glyph-name="braceright" unicode="}" horiz-adv-x="788" 
d="M764 645v-340q-62 0 -94 -11.5t-55.5 -42t-34.5 -74t-11 -97.5v-184q0 -136 -38.5 -218.5t-124.5 -121.5t-256 -39h-134v327h43q85 0 116.5 45.5t31.5 157.5q0 210 33.5 298.5t144.5 129.5q-111 41 -144.5 130.5t-33.5 299.5q0 110 -30.5 154.5t-117.5 44.5h-43v328h134
q146 0 236 -31.5t136.5 -114t46.5 -233.5v-181q0 -56 11.5 -100.5t37 -75.5t57 -41t89.5 -10z" />
    <glyph glyph-name="asciitilde" unicode="~" horiz-adv-x="1343" 
d="M1237 938v-289q-168 -149 -322 -149q-47 0 -106.5 15.5t-178.5 74.5q-148 74 -214 74q-152 0 -312 -158v291q165 145 332 145q46 0 103 -15.5t173 -72.5q152 -76 224 -76q133 0 301 160z" />
    <glyph glyph-name="nbspace" unicode="&#xa0;" horiz-adv-x="682" 
 />
    <glyph glyph-name="exclamdown" unicode="&#xa1;" horiz-adv-x="748" 
d="M440 607q185 65 185 242q0 104 -73 177.5t-177 73.5t-177 -73.5t-73 -177.5q0 -177 184 -242q-184 -357 -184 -600q0 -145 74 -242.5t176 -97.5t176 97.5t74 242.5q0 243 -185 600z" />
    <glyph glyph-name="cent" unicode="&#xa2;" horiz-adv-x="1130" 
d="M512 0q-204 50 -318 195.5t-114 339.5q0 237 161 401t443 164q76 0 170 -15l88 279h100l-94 -297q45 -9 82 -23v-358q-96 45 -184 57l-129 -407q27 -5 57 -5q112 0 264 68v-350q-182 -67 -340 -67q-42 0 -92 4l-119 -379h-100zM625 362l123 388q-113 -6 -177.5 -64.5
t-64.5 -146.5q0 -117 119 -177z" />
    <glyph glyph-name="sterling" unicode="&#xa3;" horiz-adv-x="1260" 
d="M1174 342l-56 -342h-1034q76 296 162 575h-164v287h258q176 553 661 553q49 0 76 -4l127 -362q-63 16 -106 16q-194 0 -273 -203h187v-287h-281l-67 -233h510z" />
    <glyph glyph-name="currency" unicode="&#xa4;" horiz-adv-x="1366" 
d="M451 1106q97 61 231 61q136 0 231 -61l140 139l186 -186l-139 -139q61 -103 61 -232q0 -128 -61 -231l139 -140l-186 -186l-138 137q-112 -59 -233 -59q-125 0 -231 61l-140 -139l-186 186l139 140q-61 97 -61 231q0 136 61 232l-139 139l186 186zM899 688
q0 90 -63.5 153.5t-153.5 63.5t-153.5 -63.5t-63.5 -153.5t63.5 -153.5t153.5 -63.5t153.5 63.5t63.5 153.5z" />
    <glyph glyph-name="yen" unicode="&#xa5;" horiz-adv-x="1493" 
d="M520 217h-448v164h448v162h-448v164h389l-430 690h526l240 -461l233 461h432l-438 -690h385v-164h-448v-162h448v-164h-448v-217h-441v217z" />
    <glyph glyph-name="brokenbar" unicode="&#xa6;" horiz-adv-x="1300" 
d="M508 1396h286v-772h-286v772zM508 303h286v-770h-286v770z" />
    <glyph glyph-name="section" unicode="&#xa7;" horiz-adv-x="1323" 
d="M244 881q-72 96 -72 200q0 147 123 241.5t350 94.5t366.5 -85.5t139.5 -194.5q0 -61 -47.5 -103.5t-116.5 -42.5q-134 0 -173 136q-11 36 -27 58.5t-54.5 33t-79.5 10.5q-76 0 -121 -35.5t-45 -81.5q0 -39 36 -73.5t194 -93.5q315 -118 419.5 -242.5t104.5 -280.5
q0 -206 -151 -348q63 -90 63 -197q0 -168 -132 -259t-378 -91q-218 0 -347.5 77.5t-129.5 190.5q0 66 51 108t131 42q68 0 111.5 -34t45.5 -101q2 -31 12.5 -49.5t50.5 -32t94 -13.5q78 0 127 32.5t49 82.5q0 42 -39.5 80.5t-207.5 106.5q-187 75 -291 144t-161 174t-57 218
q0 182 162 328zM936 199q53 61 53 125t-64 128t-297 172q-175 81 -222 119q-60 -57 -60 -108q0 -64 50 -122.5t265 -163.5q188 -92 275 -150z" />
    <glyph glyph-name="dieresis" unicode="&#xa8;" horiz-adv-x="682" 
d="M449 1386q0 60 42.5 102t102.5 42t101.5 -42t41.5 -102q0 -59 -42 -102t-101 -43q-60 0 -102.5 43t-42.5 102zM-53 1386q0 60 42.5 102t102.5 42t102 -42t42 -102q0 -59 -42.5 -102t-101.5 -43t-102 43t-43 102z" />
    <glyph glyph-name="copyright" unicode="&#xa9;" horiz-adv-x="1516" 
d="M-8 649q0 206 102.5 384t280 280t383.5 102q316 0 541 -224.5t225 -541.5q0 -316 -225 -541t-541 -225q-317 0 -541.5 225t-224.5 541zM1372 649q0 254 -180.5 434.5t-433.5 180.5q-254 0 -434.5 -180.5t-180.5 -434.5q0 -253 180.5 -433.5t434.5 -180.5
q253 0 433.5 180.5t180.5 433.5zM942 537l162 -56q-82 -258 -336 -258q-176 0 -281.5 115t-105.5 307q0 199 104.5 314.5t284.5 115.5q248 0 334 -243l-162 -39q-52 139 -178 139q-98 0 -152.5 -74t-54.5 -209t52.5 -209.5t146.5 -74.5q137 0 186 172z" />
    <glyph glyph-name="ordfeminine" unicode="&#xaa;" horiz-adv-x="811" 
d="M817 926l-59 -199q-41 -2 -72 -2q-120 0 -188 57q-108 -57 -222 -57q-106 0 -166.5 44t-60.5 120q0 61 43.5 106.5t207.5 86.5q113 28 153 48q0 39 -22 53.5t-77 14.5q-74 0 -136 -28.5t-150 -90.5v219q151 117 338 117q149 0 236 -61t87 -176v-181q0 -49 13 -60t75 -11z
M453 938v68q-25 -10 -71 -25q-73 -23 -88 -39t-15 -37q0 -26 22 -43.5t55 -17.5q38 0 103 33q-6 24 -6 61z" />
    <glyph glyph-name="guillemotleft" unicode="&#xab;" horiz-adv-x="1450" 
d="M1075 537l307 -537h-366l-305 537l305 536h366zM461 537l307 -537h-367l-305 537l305 536h367z" />
    <glyph glyph-name="logicalnot" unicode="&#xac;" horiz-adv-x="1366" 
d="M115 1073h1136v-770h-284v485h-852v285z" />
    <glyph glyph-name="sfthyphen" unicode="&#xad;" horiz-adv-x="918" 
d="M70 356v371h778v-371h-778z" />
    <glyph glyph-name="registered" unicode="&#xae;" horiz-adv-x="1516" 
d="M-8 649q0 206 102.5 384t280 280t383.5 102q316 0 541 -224.5t225 -541.5q0 -316 -225 -541t-541 -225q-317 0 -541.5 225t-224.5 541zM1372 649q0 254 -180.5 434.5t-433.5 180.5q-254 0 -434.5 -180.5t-180.5 -434.5q0 -253 180.5 -433.5t434.5 -180.5
q253 0 433.5 180.5t180.5 433.5zM1161 240h-205q-122 245 -173.5 289.5t-108.5 44.5h-56v-334h-165v813h409q116 0 183 -63.5t67 -163.5q0 -92 -57.5 -153t-161.5 -75v-4q44 -14 71.5 -40t100.5 -150zM618 703h160q160 0 160 112q0 111 -170 111h-150v-223z" />
    <glyph glyph-name="overscore" unicode="&#xaf;" horiz-adv-x="1024" 
d="M-12 1653h1048v-103h-1048v103z" />
    <glyph glyph-name="degree" unicode="&#xb0;" horiz-adv-x="811" 
d="M119 1206q0 118 84.5 202.5t202.5 84.5q117 0 201.5 -84.5t84.5 -202.5t-84 -202t-202 -84t-202.5 84.5t-84.5 201.5zM508 1206q0 43 -29.5 73t-72.5 30t-73 -30t-30 -73t30 -72.5t73 -29.5q42 0 72 29.5t30 72.5z" />
    <glyph glyph-name="plusminus" unicode="&#xb1;" horiz-adv-x="1366" 
d="M115 1020h426v426h284v-426h426v-285h-426v-426h-284v426h-426v285zM115 213h1136v-285h-1136v285z" />
    <glyph glyph-name="twosuperior" unicode="&#xb2;" horiz-adv-x="811" 
d="M754 885v-197h-703v31q233 192 297 259t64 136q0 42 -36 69t-89 27q-57 0 -101.5 -26.5t-95.5 -83.5v223q133 92 289 92q138 0 221.5 -66t83.5 -173q0 -74 -42 -141.5t-132 -149.5h244z" />
    <glyph glyph-name="threesuperior" unicode="&#xb3;" horiz-adv-x="811" 
d="M135 1204v170q99 41 221 41q140 0 225 -58t85 -151q0 -88 -91 -147q103 -61 103 -162q0 -97 -80.5 -158t-210.5 -61q-138 0 -268 61v199q104 -70 176 -70q42 0 68 16t26 42q0 27 -29.5 44t-78.5 17q-9 0 -68 -4v147q22 -2 47 -2q56 0 92.5 18t36.5 44t-29.5 42.5
t-76.5 16.5q-68 0 -148 -45z" />
    <glyph glyph-name="acute" unicode="&#xb4;" horiz-adv-x="682" 
d="M143 1196l187 334h442l-405 -334h-224z" />
    <glyph glyph-name="mu1" unicode="&#xb5;" horiz-adv-x="1366" 
d="M121 1081h407v-553q1 -123 42 -170t114 -47q153 0 153 227v543h408v-1081h-383v84h-4q-54 -102 -162 -102q-121 -1 -164 94h-4v-477h-407v1482z" />
    <glyph glyph-name="paragraph" unicode="&#xb6;" horiz-adv-x="1749" 
d="M1618 1397v-317h-133v-1547h-297v1547h-166v-1547h-297v1012h-57q-204 0 -309 45.5t-164.5 152t-59.5 237.5q0 190 119.5 303.5t351.5 113.5h1012z" />
    <glyph glyph-name="cedilla" unicode="&#xb8;" horiz-adv-x="682" 
d="M6 -477v162q31 -3 58 -3q161 0 161 81q0 78 -119 71l133 170l209 12l-55 -85q97 -7 153 -56t56 -127q0 -105 -97 -169t-262 -64q-135 0 -237 8z" />
    <glyph glyph-name="onesuperior" unicode="&#xb9;" horiz-adv-x="811" 
d="M256 688v719h297v-719h-297z" />
    <glyph glyph-name="ordmasculine" unicode="&#xba;" horiz-adv-x="918" 
d="M459 727q-196 0 -308 95.5t-112 248.5q0 144 110 245t306 101q201 0 312.5 -99t111.5 -247q0 -142 -107 -243t-313 -101zM459 1180q-52 0 -85.5 -30.5t-33.5 -78.5q0 -49 33 -79.5t86 -30.5q52 0 85.5 30.5t33.5 79.5q0 48 -33.5 78.5t-85.5 30.5z" />
    <glyph glyph-name="guillemotright" unicode="&#xbb;" horiz-adv-x="1450" 
d="M989 537l-307 536h367l305 -536l-305 -537h-367zM375 537l-307 536h366l305 -536l-305 -537h-366z" />
    <glyph glyph-name="onequarter" unicode="&#xbc;" horiz-adv-x="1878" 
d="M286 688v719h297v-719h-297zM440 -49l842 1497h219l-839 -1497h-222zM1402 0v139h-349v180l375 408h250v-428h135v-160h-135v-139h-276zM1211 299h191v209z" />
    <glyph glyph-name="onehalf" unicode="&#xbd;" horiz-adv-x="1878" 
d="M286 688v719h297v-719h-297zM400 -49l842 1497h219l-839 -1497h-222zM1793 197v-197h-703v31q233 192 297 259t64 136q0 42 -36 69t-89 27q-57 0 -101.5 -26.5t-95.5 -83.5v223q133 92 289 92q138 0 221.5 -66t83.5 -173q0 -74 -42 -141.5t-132 -149.5h244z" />
    <glyph glyph-name="threequarters" unicode="&#xbe;" horiz-adv-x="1878" 
d="M163 1204v170q99 41 221 41q140 0 225 -58t85 -151q0 -88 -91 -147q103 -61 103 -162q0 -97 -80.5 -158t-210.5 -61q-138 0 -268 61v199q104 -70 176 -70q42 0 68 16t26 42q0 27 -29.5 44t-78.5 17q-9 0 -68 -4v147q22 -2 47 -2q56 0 92.5 18t36.5 44t-29.5 42.5
t-76.5 16.5q-68 0 -148 -45zM400 -49l842 1497h219l-839 -1497h-222zM1402 0v139h-349v180l375 408h250v-428h135v-160h-135v-139h-276zM1211 299h191v209z" />
    <glyph glyph-name="questiondown" unicode="&#xbf;" horiz-adv-x="811" 
d="M643 -295q-111 -39 -213 -39q-155 0 -255.5 87t-100.5 229q0 58 28.5 125t135.5 191q90 104 112.5 152.5t22.5 88.5q0 37 -12 50t-42 23q-91 31 -129 101.5t-38 134.5q0 104 73 178t176 74q104 0 177 -74t73 -178q0 -175 -176 -240q78 -74 78 -153q0 -48 -35 -137
q-35 -87 -35 -132q0 -58 44.5 -95.5t121.5 -37.5q47 0 115 21z" />
    <glyph glyph-name="Agrave" unicode="&#xc0;" horiz-adv-x="1835" 
d="M25 0l637 1397h512l636 -1397h-485l-92 227h-631l-92 -227h-485zM702 479h428l-212 553zM1116 1501h-224l-405 334h442z" />
    <glyph glyph-name="Aacute" unicode="&#xc1;" horiz-adv-x="1835" 
d="M25 0l637 1397h512l636 -1397h-485l-92 227h-631l-92 -227h-485zM702 479h428l-212 553zM721 1501l187 334h442l-405 -334h-224z" />
    <glyph glyph-name="Acircumflex" unicode="&#xc2;" horiz-adv-x="1835" 
d="M25 0l637 1397h512l636 -1397h-485l-92 227h-631l-92 -227h-485zM702 479h428l-212 553zM1145 1860l169 -342h-246l-149 162l-152 -162h-245l171 342h452z" />
    <glyph glyph-name="Atilde" unicode="&#xc3;" horiz-adv-x="1835" 
d="M25 0l637 1397h512l636 -1397h-485l-92 227h-631l-92 -227h-485zM702 479h428l-212 553zM522 1525q12 330 253 330q62 0 152 -45q89 -46 135 -46q61 0 68 91h186q-9 -330 -250 -330q-53 0 -150 46q-97 45 -139 45q-53 0 -73 -91h-182z" />
    <glyph glyph-name="Adieresis" unicode="&#xc4;" horiz-adv-x="1835" 
d="M25 0l637 1397h512l636 -1397h-485l-92 227h-631l-92 -227h-485zM702 479h428l-212 553zM1026 1691q0 60 42.5 102t102.5 42t101.5 -42t41.5 -102q0 -59 -42 -102t-101 -43q-60 0 -102.5 43t-42.5 102zM524 1691q0 60 42.5 102t102.5 42t102 -42t42 -102
q0 -59 -42.5 -102t-101.5 -43t-102 43t-43 102z" />
    <glyph glyph-name="Aring" unicode="&#xc5;" horiz-adv-x="1835" 
d="M25 0l637 1397h512l636 -1397h-485l-92 227h-631l-92 -227h-485zM702 479h428l-212 553zM1164 1666q0 -93 -65 -159t-158 -66t-159.5 66t-66.5 159q0 94 66.5 158.5t159.5 64.5t158.5 -64.5t64.5 -158.5zM835 1666q0 -44 31 -76t75 -32t76 32t32 76q0 45 -31.5 75.5
t-76.5 30.5q-44 0 -75 -31t-31 -75z" />
    <glyph glyph-name="AE" unicode="&#xc6;" horiz-adv-x="2075" 
d="M1976 0h-981v334h-329l-134 -334h-512l734 1397h1214v-295h-483v-246h438v-295h-438v-266h491v-295zM995 569v605l-237 -605h237z" />
    <glyph glyph-name="Ccedilla" unicode="&#xc7;" horiz-adv-x="1556" 
d="M545 -166l131 168q-281 55 -427.5 247t-146.5 443q0 315 217.5 519t591.5 204q276 0 484 -94v-408q-200 129 -406 129q-184 0 -290.5 -92.5t-106.5 -251.5q0 -157 108.5 -250.5t292.5 -93.5q198 0 414 123v-373q-220 -122 -520 -122q-15 0 -23 2l-33 -54
q100 -7 154.5 -56t54.5 -126q0 -103 -95.5 -168t-262.5 -65q-136 0 -238 8v162q32 -3 59 -3q161 0 161 80q0 72 -119 72z" />
    <glyph glyph-name="Egrave" unicode="&#xc8;" horiz-adv-x="1300" 
d="M147 0v1397h1047v-295h-557v-246h510v-295h-510v-266h565v-295h-1055zM848 1501h-224l-405 334h442z" />
    <glyph glyph-name="Eacute" unicode="&#xc9;" horiz-adv-x="1300" 
d="M147 0v1397h1047v-295h-557v-246h510v-295h-510v-266h565v-295h-1055zM453 1501l187 334h442l-405 -334h-224z" />
    <glyph glyph-name="Ecircumflex" unicode="&#xca;" horiz-adv-x="1300" 
d="M147 0v1397h1047v-295h-557v-246h510v-295h-510v-266h565v-295h-1055zM877 1860l169 -342h-246l-149 162l-152 -162h-245l171 342h452z" />
    <glyph glyph-name="Edieresis" unicode="&#xcb;" horiz-adv-x="1300" 
d="M147 0v1397h1047v-295h-557v-246h510v-295h-510v-266h565v-295h-1055zM758 1691q0 60 42.5 102t102.5 42t101.5 -42t41.5 -102q0 -59 -42 -102t-101 -43q-60 0 -102.5 43t-42.5 102zM256 1691q0 60 42.5 102t102.5 42t102 -42t42 -102q0 -59 -42.5 -102t-101.5 -43
t-102 43t-43 102z" />
    <glyph glyph-name="Igrave" unicode="&#xcc;" horiz-adv-x="788" 
d="M150 0v1397h489v-1397h-489zM592 1501h-224l-405 334h442z" />
    <glyph glyph-name="Iacute" unicode="&#xcd;" horiz-adv-x="788" 
d="M150 0v1397h489v-1397h-489zM197 1501l187 334h442l-405 -334h-224z" />
    <glyph glyph-name="Icircumflex" unicode="&#xce;" horiz-adv-x="788" 
d="M150 0v1397h489v-1397h-489zM621 1860l169 -342h-246l-149 162l-152 -162h-245l171 342h452z" />
    <glyph glyph-name="Idieresis" unicode="&#xcf;" horiz-adv-x="788" 
d="M150 0v1397h489v-1397h-489zM502 1691q0 60 42.5 102t102.5 42t101.5 -42t41.5 -102q0 -59 -42 -102t-101 -43q-60 0 -102.5 43t-42.5 102zM0 1691q0 60 42.5 102t102.5 42t102 -42t42 -102q0 -59 -42.5 -102t-101.5 -43t-102 43t-43 102z" />
    <glyph glyph-name="Eth" unicode="&#xd0;" horiz-adv-x="1706" 
d="M150 0v590h-168v213h168v594h700q354 0 556 -210.5t202 -506.5q0 -286 -178.5 -483t-491.5 -197h-788zM639 332h129q179 0 264.5 89.5t85.5 276.5q0 172 -89 269.5t-259 97.5h-131v-262h270v-213h-270v-258z" />
    <glyph glyph-name="Ntilde" unicode="&#xd1;" horiz-adv-x="1898" 
d="M154 0v1397h417l707 -717l-27 717h496v-1397h-418l-706 717l26 -717h-495zM553 1525q12 330 253 330q62 0 152 -45q89 -46 135 -46q61 0 68 91h186q-9 -330 -250 -330q-53 0 -150 46q-97 45 -139 45q-53 0 -73 -91h-182z" />
    <glyph glyph-name="Ograve" unicode="&#xd2;" horiz-adv-x="1706" 
d="M854 -18q-351 0 -555.5 200.5t-204.5 515.5q0 313 203 515t557 202q355 0 557.5 -203.5t202.5 -513.5t-202 -513t-558 -203zM854 1006q-125 0 -197.5 -83t-72.5 -225t72.5 -224.5t197.5 -82.5q124 0 197 83t73 224q0 142 -73 225t-197 83zM1051 1501h-224l-405 334h442z
" />
    <glyph glyph-name="Oacute" unicode="&#xd3;" horiz-adv-x="1706" 
d="M854 -18q-351 0 -555.5 200.5t-204.5 515.5q0 313 203 515t557 202q355 0 557.5 -203.5t202.5 -513.5t-202 -513t-558 -203zM854 1006q-125 0 -197.5 -83t-72.5 -225t72.5 -224.5t197.5 -82.5q124 0 197 83t73 224q0 142 -73 225t-197 83zM655 1501l187 334h442
l-405 -334h-224z" />
    <glyph glyph-name="Ocircumflex" unicode="&#xd4;" horiz-adv-x="1706" 
d="M854 -18q-351 0 -555.5 200.5t-204.5 515.5q0 313 203 515t557 202q355 0 557.5 -203.5t202.5 -513.5t-202 -513t-558 -203zM854 1006q-125 0 -197.5 -83t-72.5 -225t72.5 -224.5t197.5 -82.5q124 0 197 83t73 224q0 142 -73 225t-197 83zM1080 1860l169 -342h-246
l-149 162l-152 -162h-245l171 342h452z" />
    <glyph glyph-name="Otilde" unicode="&#xd5;" horiz-adv-x="1706" 
d="M854 -18q-351 0 -555.5 200.5t-204.5 515.5q0 313 203 515t557 202q355 0 557.5 -203.5t202.5 -513.5t-202 -513t-558 -203zM854 1006q-125 0 -197.5 -83t-72.5 -225t72.5 -224.5t197.5 -82.5q124 0 197 83t73 224q0 142 -73 225t-197 83zM457 1525q12 330 253 330
q62 0 152 -45q89 -46 135 -46q61 0 68 91h186q-9 -330 -250 -330q-53 0 -150 46q-97 45 -139 45q-53 0 -73 -91h-182z" />
    <glyph glyph-name="Odieresis" unicode="&#xd6;" horiz-adv-x="1706" 
d="M854 -18q-351 0 -555.5 200.5t-204.5 515.5q0 313 203 515t557 202q355 0 557.5 -203.5t202.5 -513.5t-202 -513t-558 -203zM854 1006q-125 0 -197.5 -83t-72.5 -225t72.5 -224.5t197.5 -82.5q124 0 197 83t73 224q0 142 -73 225t-197 83zM961 1691q0 60 42.5 102
t102.5 42t101.5 -42t41.5 -102q0 -59 -42 -102t-101 -43q-60 0 -102.5 43t-42.5 102zM459 1691q0 60 42.5 102t102.5 42t102 -42t42 -102q0 -59 -42.5 -102t-101.5 -43t-102 43t-43 102z" />
    <glyph glyph-name="multiply" unicode="&#xd7;" horiz-adv-x="1366" 
d="M479 686l-344 344l201 201l346 -346l346 346l201 -201l-344 -344l344 -344l-201 -201l-346 346l-346 -346l-201 201z" />
    <glyph glyph-name="Oslash" unicode="&#xd8;" horiz-adv-x="1706" 
d="M1313 1292l133 144l110 -105l-126 -135q184 -200 184 -498q0 -310 -202 -513t-558 -203q-262 0 -459 120l-176 -188l-110 104l172 183q-187 200 -187 497q0 313 203 515t557 202q269 0 459 -123zM610 555l391 408q-68 43 -147 43q-125 0 -197.5 -83t-72.5 -225
q0 -89 26 -143zM1098 844l-389 -414q48 -39 145 -39q124 0 197 83t73 224q0 85 -26 146z" />
    <glyph glyph-name="Ugrave" unicode="&#xd9;" horiz-adv-x="1706" 
d="M1602 1397v-756q0 -312 -190.5 -485.5t-549.5 -173.5q-360 0 -559 160t-199 448v807h490v-746q0 -139 67.5 -215t188.5 -76q123 0 192.5 81.5t69.5 234.5v721h490zM1051 1501h-224l-405 334h442z" />
    <glyph glyph-name="Uacute" unicode="&#xda;" horiz-adv-x="1706" 
d="M1602 1397v-756q0 -312 -190.5 -485.5t-549.5 -173.5q-360 0 -559 160t-199 448v807h490v-746q0 -139 67.5 -215t188.5 -76q123 0 192.5 81.5t69.5 234.5v721h490zM655 1501l187 334h442l-405 -334h-224z" />
    <glyph glyph-name="Ucircumflex" unicode="&#xdb;" horiz-adv-x="1706" 
d="M1602 1397v-756q0 -312 -190.5 -485.5t-549.5 -173.5q-360 0 -559 160t-199 448v807h490v-746q0 -139 67.5 -215t188.5 -76q123 0 192.5 81.5t69.5 234.5v721h490zM1080 1860l169 -342h-246l-149 162l-152 -162h-245l171 342h452z" />
    <glyph glyph-name="Udieresis" unicode="&#xdc;" horiz-adv-x="1706" 
d="M1602 1397v-756q0 -312 -190.5 -485.5t-549.5 -173.5q-360 0 -559 160t-199 448v807h490v-746q0 -139 67.5 -215t188.5 -76q123 0 192.5 81.5t69.5 234.5v721h490zM961 1691q0 60 42.5 102t102.5 42t101.5 -42t41.5 -102q0 -59 -42 -102t-101 -43q-60 0 -102.5 43
t-42.5 102zM459 1691q0 60 42.5 102t102.5 42t102 -42t42 -102q0 -59 -42.5 -102t-101.5 -43t-102 43t-43 102z" />
    <glyph glyph-name="Yacute" unicode="&#xdd;" horiz-adv-x="1642" 
d="M575 0v623l-542 774h583l267 -463l260 463h479l-557 -793v-604h-490zM625 1501l187 334h442l-405 -334h-224z" />
    <glyph glyph-name="Thorn" unicode="&#xde;" horiz-adv-x="1366" 
d="M141 0v1397h490v-250h231q267 0 411 -121t144 -319q0 -206 -149.5 -332.5t-431.5 -126.5h-205v-248h-490zM631 508h121q215 0 215 192q0 94 -51 140.5t-166 46.5h-119v-379z" />
    <glyph glyph-name="germandbls" unicode="&#xdf;" 
d="M127 0v981q0 214 146.5 324t431.5 110q276 0 424.5 -97t148.5 -269q0 -160 -164 -246q250 -96 250 -383q0 -196 -113.5 -317t-310.5 -121q-130 0 -221 28v324q37 -17 69 -17q69 0 109.5 47t40.5 125q0 82 -42 126t-120 44h-33v261q142 9 142 131q0 64 -46.5 102.5
t-125.5 38.5q-85 0 -122.5 -39.5t-37.5 -128.5v-1024h-426z" />
    <glyph glyph-name="agrave" unicode="&#xe0;" horiz-adv-x="1280" 
d="M1255 274l-77 -288q-59 -4 -105 -4q-209 0 -278 104q-154 -104 -355 -104q-163 0 -253.5 72.5t-90.5 191.5q0 67 40.5 133t115 101t235.5 78q202 53 246 91q-2 71 -39 102t-131 31q-112 0 -210 -44.5t-222 -139.5v317q223 185 510 185q221 0 353 -97.5t132 -277.5v-307
q0 -87 21.5 -114.5t107.5 -29.5zM733 315v154q-32 -24 -131 -54q-120 -37 -151 -72t-31 -81q0 -52 34 -86.5t87 -34.5q106 0 202 74q-10 28 -10 100zM838 1196h-224l-405 334h442z" />
    <glyph glyph-name="aacute" unicode="&#xe1;" horiz-adv-x="1280" 
d="M1255 274l-77 -288q-59 -4 -105 -4q-209 0 -278 104q-154 -104 -355 -104q-163 0 -253.5 72.5t-90.5 191.5q0 67 40.5 133t115 101t235.5 78q202 53 246 91q-2 71 -39 102t-131 31q-112 0 -210 -44.5t-222 -139.5v317q223 185 510 185q221 0 353 -97.5t132 -277.5v-307
q0 -87 21.5 -114.5t107.5 -29.5zM733 315v154q-32 -24 -131 -54q-120 -37 -151 -72t-31 -81q0 -52 34 -86.5t87 -34.5q106 0 202 74q-10 28 -10 100zM442 1196l187 334h442l-405 -334h-224z" />
    <glyph glyph-name="acircumflex" unicode="&#xe2;" horiz-adv-x="1280" 
d="M1255 274l-77 -288q-59 -4 -105 -4q-209 0 -278 104q-154 -104 -355 -104q-163 0 -253.5 72.5t-90.5 191.5q0 67 40.5 133t115 101t235.5 78q202 53 246 91q-2 71 -39 102t-131 31q-112 0 -210 -44.5t-222 -139.5v317q223 185 510 185q221 0 353 -97.5t132 -277.5v-307
q0 -87 21.5 -114.5t107.5 -29.5zM733 315v154q-32 -24 -131 -54q-120 -37 -151 -72t-31 -81q0 -52 34 -86.5t87 -34.5q106 0 202 74q-10 28 -10 100zM867 1554l169 -342h-246l-149 162l-152 -162h-245l171 342h452z" />
    <glyph glyph-name="atilde" unicode="&#xe3;" horiz-adv-x="1280" 
d="M1255 274l-77 -288q-59 -4 -105 -4q-209 0 -278 104q-154 -104 -355 -104q-163 0 -253.5 72.5t-90.5 191.5q0 67 40.5 133t115 101t235.5 78q202 53 246 91q-2 71 -39 102t-131 31q-112 0 -210 -44.5t-222 -139.5v317q223 185 510 185q221 0 353 -97.5t132 -277.5v-307
q0 -87 21.5 -114.5t107.5 -29.5zM733 315v154q-32 -24 -131 -54q-120 -37 -151 -72t-31 -81q0 -52 34 -86.5t87 -34.5q106 0 202 74q-10 28 -10 100zM244 1219q12 330 253 330q62 0 152 -45q89 -46 135 -46q61 0 68 91h186q-9 -330 -250 -330q-53 0 -150 46q-97 45 -139 45
q-53 0 -73 -91h-182z" />
    <glyph glyph-name="adieresis" unicode="&#xe4;" horiz-adv-x="1280" 
d="M1255 274l-77 -288q-59 -4 -105 -4q-209 0 -278 104q-154 -104 -355 -104q-163 0 -253.5 72.5t-90.5 191.5q0 67 40.5 133t115 101t235.5 78q202 53 246 91q-2 71 -39 102t-131 31q-112 0 -210 -44.5t-222 -139.5v317q223 185 510 185q221 0 353 -97.5t132 -277.5v-307
q0 -87 21.5 -114.5t107.5 -29.5zM733 315v154q-32 -24 -131 -54q-120 -37 -151 -72t-31 -81q0 -52 34 -86.5t87 -34.5q106 0 202 74q-10 28 -10 100zM748 1386q0 60 42.5 102t102.5 42t101.5 -42t41.5 -102q0 -59 -42 -102t-101 -43q-60 0 -102.5 43t-42.5 102zM246 1386
q0 60 42.5 102t102.5 42t102 -42t42 -102q0 -59 -42.5 -102t-101.5 -43t-102 43t-43 102z" />
    <glyph glyph-name="aring" unicode="&#xe5;" horiz-adv-x="1280" 
d="M1255 274l-77 -288q-59 -4 -105 -4q-209 0 -278 104q-154 -104 -355 -104q-163 0 -253.5 72.5t-90.5 191.5q0 67 40.5 133t115 101t235.5 78q202 53 246 91q-2 71 -39 102t-131 31q-112 0 -210 -44.5t-222 -139.5v317q223 185 510 185q221 0 353 -97.5t132 -277.5v-307
q0 -87 21.5 -114.5t107.5 -29.5zM733 315v154q-32 -24 -131 -54q-120 -37 -151 -72t-31 -81q0 -52 34 -86.5t87 -34.5q106 0 202 74q-10 28 -10 100zM806 1400q0 -93 -65 -159t-158 -66t-159.5 66t-66.5 159q0 94 66.5 158.5t159.5 64.5t158.5 -64.5t64.5 -158.5zM477 1400
q0 -44 31 -76t75 -32t76 32t32 76q0 45 -31.5 75.5t-76.5 30.5q-44 0 -75 -31t-31 -75z" />
    <glyph glyph-name="ae" unicode="&#xe6;" horiz-adv-x="1855" 
d="M129 596v319q229 185 494 185q204 0 346 -80q128 80 282 80q225 0 380.5 -157.5t155.5 -409.5q0 -35 -3 -72h-709q7 -106 86 -164.5t201 -58.5q185 0 350 131l76 -174q-110 -117 -229.5 -165t-305.5 -48q-269 0 -424 127q-101 -67 -187.5 -97t-195.5 -30q-170 0 -262 76
t-92 190q0 70 46.5 136t115.5 99.5t191 65.5q174 45 282 94v27q0 60 -40 94.5t-109 34.5q-198 0 -449 -203zM1061 621h373q0 124 -54.5 185.5t-136.5 61.5q-179 0 -182 -247zM719 449v24q-48 -23 -138 -55q-91 -33 -128 -61.5t-37 -92.5q0 -52 35.5 -84.5t95.5 -32.5
q105 0 215 80q-43 91 -43 222z" />
    <glyph glyph-name="ccedilla" unicode="&#xe7;" horiz-adv-x="1130" 
d="M332 -166l139 184q-185 56 -288 194.5t-103 322.5q0 153 73 285.5t209 206t320 73.5q181 0 348 -56v-358q-138 64 -270 64q-114 0 -184 -59t-70 -152q0 -92 74 -149.5t192 -57.5q109 0 266 67v-350q-181 -67 -344 -67q-29 0 -43 4l-33 -56q100 -7 154.5 -56t54.5 -126
q0 -103 -95.5 -168t-262.5 -65q-136 0 -238 8v162q32 -3 59 -3q161 0 161 80q0 72 -119 72z" />
    <glyph glyph-name="egrave" unicode="&#xe8;" horiz-adv-x="1260" 
d="M1112 369l78 -176q-185 -211 -500 -211q-271 0 -442.5 160t-171.5 403q0 237 160 396t399 159q232 0 389 -156t157 -396q0 -43 -5 -87h-707q4 -90 92.5 -152.5t204.5 -62.5q169 0 346 123zM453 621h372q-3 241 -186 241q-59 0 -103 -26.5t-63.5 -75.5t-19.5 -139z
M828 1196h-224l-405 334h442z" />
    <glyph glyph-name="eacute" unicode="&#xe9;" horiz-adv-x="1260" 
d="M1112 369l78 -176q-185 -211 -500 -211q-271 0 -442.5 160t-171.5 403q0 237 160 396t399 159q232 0 389 -156t157 -396q0 -43 -5 -87h-707q4 -90 92.5 -152.5t204.5 -62.5q169 0 346 123zM453 621h372q-3 241 -186 241q-59 0 -103 -26.5t-63.5 -75.5t-19.5 -139z
M432 1196l187 334h442l-405 -334h-224z" />
    <glyph glyph-name="ecircumflex" unicode="&#xea;" horiz-adv-x="1260" 
d="M1112 369l78 -176q-185 -211 -500 -211q-271 0 -442.5 160t-171.5 403q0 237 160 396t399 159q232 0 389 -156t157 -396q0 -43 -5 -87h-707q4 -90 92.5 -152.5t204.5 -62.5q169 0 346 123zM453 621h372q-3 241 -186 241q-59 0 -103 -26.5t-63.5 -75.5t-19.5 -139z
M856 1554l169 -342h-246l-149 162l-152 -162h-245l171 342h452z" />
    <glyph glyph-name="edieresis" unicode="&#xeb;" horiz-adv-x="1260" 
d="M1112 369l78 -176q-185 -211 -500 -211q-271 0 -442.5 160t-171.5 403q0 237 160 396t399 159q232 0 389 -156t157 -396q0 -43 -5 -87h-707q4 -90 92.5 -152.5t204.5 -62.5q169 0 346 123zM453 621h372q-3 241 -186 241q-59 0 -103 -26.5t-63.5 -75.5t-19.5 -139z
M738 1386q0 60 42.5 102t102.5 42t101.5 -42t41.5 -102q0 -59 -42 -102t-101 -43q-60 0 -102.5 43t-42.5 102zM236 1386q0 60 42.5 102t102.5 42t102 -42t42 -102q0 -59 -42.5 -102t-101.5 -43t-102 43t-43 102z" />
    <glyph glyph-name="igrave" unicode="&#xec;" horiz-adv-x="682" 
d="M129 0v1081h426v-1081h-426zM539 1196h-224l-405 334h442z" />
    <glyph glyph-name="iacute" unicode="&#xed;" horiz-adv-x="682" 
d="M129 0v1081h426v-1081h-426zM143 1196l187 334h442l-405 -334h-224z" />
    <glyph glyph-name="icircumflex" unicode="&#xee;" horiz-adv-x="682" 
d="M129 0v1081h426v-1081h-426zM568 1554l169 -342h-246l-149 162l-152 -162h-245l171 342h452z" />
    <glyph glyph-name="idieresis" unicode="&#xef;" horiz-adv-x="682" 
d="M129 0v1081h426v-1081h-426zM449 1386q0 60 42.5 102t102.5 42t101.5 -42t41.5 -102q0 -59 -42 -102t-101 -43q-60 0 -102.5 43t-42.5 102zM-53 1386q0 60 42.5 102t102.5 42t102 -42t42 -102q0 -59 -42.5 -102t-101.5 -43t-102 43t-43 102z" />
    <glyph glyph-name="eth" unicode="&#xf0;" horiz-adv-x="1432" 
d="M338 1235l264 94q-101 100 -221 170v10h407q70 -36 119 -73l213 73l39 -102l-153 -57q178 -177 264 -362t86 -406q0 -189 -77.5 -324t-222 -205.5t-327.5 -70.5q-295 0 -472 155t-177 414q0 233 165 388t390 155q94 0 162 -33l4 4q-57 95 -117 170l-307 -109zM717 743
q-93 0 -152 -58t-59 -150t58.5 -147.5t152.5 -55.5t152.5 55.5t58.5 147.5t-59 150t-152 58z" />
    <glyph glyph-name="ntilde" unicode="&#xf1;" horiz-adv-x="1386" 
d="M125 0v1081h426v-141q84 84 164 122t184 38q176 0 273.5 -101.5t97.5 -283.5v-715h-426v592q0 158 -123 158q-102 0 -170 -117v-633h-426zM297 1219q12 330 253 330q62 0 152 -45q89 -46 135 -46q61 0 68 91h186q-9 -330 -250 -330q-53 0 -150 46q-97 45 -139 45
q-53 0 -73 -91h-182z" />
    <glyph glyph-name="ograve" unicode="&#xf2;" 
d="M719 -18q-303 0 -472 160t-169 399q0 157 76 286.5t220 201t341 71.5q301 0 469 -160.5t168 -398.5q0 -242 -170 -400.5t-463 -158.5zM715 750q-93 0 -152 -58.5t-59 -150.5q0 -93 58.5 -151t152.5 -58q93 0 152 58.5t59 150.5t-59 150.5t-152 58.5zM914 1196h-224
l-405 334h442z" />
    <glyph glyph-name="oacute" unicode="&#xf3;" 
d="M719 -18q-303 0 -472 160t-169 399q0 157 76 286.5t220 201t341 71.5q301 0 469 -160.5t168 -398.5q0 -242 -170 -400.5t-463 -158.5zM715 750q-93 0 -152 -58.5t-59 -150.5q0 -93 58.5 -151t152.5 -58q93 0 152 58.5t59 150.5t-59 150.5t-152 58.5zM518 1196l187 334
h442l-405 -334h-224z" />
    <glyph glyph-name="ocircumflex" unicode="&#xf4;" 
d="M719 -18q-303 0 -472 160t-169 399q0 157 76 286.5t220 201t341 71.5q301 0 469 -160.5t168 -398.5q0 -242 -170 -400.5t-463 -158.5zM715 750q-93 0 -152 -58.5t-59 -150.5q0 -93 58.5 -151t152.5 -58q93 0 152 58.5t59 150.5t-59 150.5t-152 58.5zM942 1554l169 -342
h-246l-149 162l-152 -162h-245l171 342h452z" />
    <glyph glyph-name="otilde" unicode="&#xf5;" 
d="M719 -18q-303 0 -472 160t-169 399q0 157 76 286.5t220 201t341 71.5q301 0 469 -160.5t168 -398.5q0 -242 -170 -400.5t-463 -158.5zM715 750q-93 0 -152 -58.5t-59 -150.5q0 -93 58.5 -151t152.5 -58q93 0 152 58.5t59 150.5t-59 150.5t-152 58.5zM319 1219
q12 330 253 330q62 0 152 -45q89 -46 135 -46q61 0 68 91h186q-9 -330 -250 -330q-53 0 -150 46q-97 45 -139 45q-53 0 -73 -91h-182z" />
    <glyph glyph-name="odieresis" unicode="&#xf6;" 
d="M719 -18q-303 0 -472 160t-169 399q0 157 76 286.5t220 201t341 71.5q301 0 469 -160.5t168 -398.5q0 -242 -170 -400.5t-463 -158.5zM715 750q-93 0 -152 -58.5t-59 -150.5q0 -93 58.5 -151t152.5 -58q93 0 152 58.5t59 150.5t-59 150.5t-152 58.5zM824 1386
q0 60 42.5 102t102.5 42t101.5 -42t41.5 -102q0 -59 -42 -102t-101 -43q-60 0 -102.5 43t-42.5 102zM322 1386q0 60 42.5 102t102.5 42t102 -42t42 -102q0 -59 -42.5 -102t-101.5 -43t-102 43t-43 102z" />
    <glyph glyph-name="divide" unicode="&#xf7;" horiz-adv-x="1366" 
d="M848 1092q0 -68 -48.5 -116t-115.5 -48q-68 0 -116 48t-48 116q0 67 48.5 115t115.5 48q68 0 116 -48t48 -115zM115 829h1138v-284h-1138v284zM848 283q0 -68 -48.5 -116t-115.5 -48t-115.5 48t-48.5 116q0 67 48.5 115t115.5 48t115.5 -48t48.5 -115z" />
    <glyph glyph-name="oslash" unicode="&#xf8;" 
d="M1090 1010l145 153l68 -63l-136 -144q90 -75 137.5 -188t47.5 -227q0 -242 -170 -400.5t-463 -158.5q-229 0 -381 90l-148 -158l-67 66l139 147q-91 77 -137.5 186.5t-46.5 227.5q0 157 76 286.5t220 201t341 71.5q224 0 375 -90zM537 420l286 305q-46 25 -108 25
q-93 0 -152 -58.5t-59 -150.5q0 -62 33 -121zM891 662l-285 -304q51 -26 109 -26q93 0 152 58t59 151q0 28 -10.5 67t-24.5 54z" />
    <glyph glyph-name="ugrave" unicode="&#xf9;" 
d="M1249 1081v-684q0 -118 95 -118q29 0 65 12l-111 -291q-81 -18 -184 -18q-126 0 -188 44t-86 142q-150 -186 -369 -186q-171 0 -270 104.5t-99 304.5v690h426v-585q0 -86 30.5 -125t96.5 -39q91 0 168 110v639h426zM914 1196h-224l-405 334h442z" />
    <glyph glyph-name="uacute" unicode="&#xfa;" 
d="M1249 1081v-684q0 -118 95 -118q29 0 65 12l-111 -291q-81 -18 -184 -18q-126 0 -188 44t-86 142q-150 -186 -369 -186q-171 0 -270 104.5t-99 304.5v690h426v-585q0 -86 30.5 -125t96.5 -39q91 0 168 110v639h426zM518 1196l187 334h442l-405 -334h-224z" />
    <glyph glyph-name="ucircumflex" unicode="&#xfb;" 
d="M1249 1081v-684q0 -118 95 -118q29 0 65 12l-111 -291q-81 -18 -184 -18q-126 0 -188 44t-86 142q-150 -186 -369 -186q-171 0 -270 104.5t-99 304.5v690h426v-585q0 -86 30.5 -125t96.5 -39q91 0 168 110v639h426zM942 1554l169 -342h-246l-149 162l-152 -162h-245
l171 342h452z" />
    <glyph glyph-name="udieresis" unicode="&#xfc;" 
d="M1249 1081v-684q0 -118 95 -118q29 0 65 12l-111 -291q-81 -18 -184 -18q-126 0 -188 44t-86 142q-150 -186 -369 -186q-171 0 -270 104.5t-99 304.5v690h426v-585q0 -86 30.5 -125t96.5 -39q91 0 168 110v639h426zM824 1386q0 60 42.5 102t102.5 42t101.5 -42t41.5 -102
q0 -59 -42 -102t-101 -43q-60 0 -102.5 43t-42.5 102zM322 1386q0 60 42.5 102t102.5 42t102 -42t42 -102q0 -59 -42.5 -102t-101.5 -43t-102 43t-43 102z" />
    <glyph glyph-name="yacute" unicode="&#xfd;" horiz-adv-x="1300" 
d="M145 -467l306 625l-428 923h458l199 -530l217 530h399l-747 -1548h-404zM453 1196l187 334h442l-405 -334h-224z" />
    <glyph glyph-name="thorn" unicode="&#xfe;" 
d="M539 1397v-420q145 123 315 123q211 0 352.5 -158t141.5 -395q0 -252 -154.5 -408.5t-400.5 -156.5q-132 0 -254 47v-496h-426v1864h426zM539 717v-350q86 -35 159 -35q99 0 161.5 61t62.5 158q0 95 -62 154t-162 59q-76 0 -159 -47z" />
    <glyph glyph-name="ydieresis" unicode="&#xff;" horiz-adv-x="1300" 
d="M145 -467l306 625l-428 923h458l199 -530l217 530h399l-747 -1548h-404zM758 1386q0 60 42.5 102t102.5 42t101.5 -42t41.5 -102q0 -59 -42 -102t-101 -43q-60 0 -102.5 43t-42.5 102zM256 1386q0 60 42.5 102t102.5 42t102 -42t42 -102q0 -59 -42.5 -102t-101.5 -43
t-102 43t-43 102z" />
    <glyph glyph-name="OE" unicode="&#x152;" horiz-adv-x="2116" 
d="M2011 1397v-295h-485v-246h440v-295h-440v-266h491v-295h-1208q-326 0 -520.5 196t-194.5 504q0 305 191.5 501t490.5 196h1235zM1036 1102h-73q-179 0 -279 -110t-100 -296q0 -184 100.5 -287.5t271.5 -103.5h80v797z" />
    <glyph glyph-name="oe" unicode="&#x153;" horiz-adv-x="2068" 
d="M1913 360l84 -163q-187 -215 -500 -215q-241 0 -393 145q-162 -145 -418 -145q-264 0 -436 160.5t-172 406.5q0 237 170.5 394t429.5 157q227 0 432 -135q159 135 365 135q224 0 369 -155.5t145 -397.5v-86h-693q21 -107 98.5 -169.5t180.5 -62.5q159 0 338 131z
M1296 621h336v12q0 233 -162 233q-70 0 -119.5 -55.5t-54.5 -189.5zM702 782q-91 0 -144.5 -65t-53.5 -178q0 -111 54.5 -175.5t148.5 -64.5q93 0 146.5 64.5t53.5 179.5q0 112 -54 175.5t-151 63.5z" />
    <glyph glyph-name="Scaron" unicode="&#x160;" horiz-adv-x="1174" 
d="M102 78v379q205 -140 381 -140q65 0 102.5 26.5t37.5 70.5q0 28 -26.5 56t-140.5 88q-107 55 -178 104.5t-123.5 132.5t-52.5 200q0 111 58 210t169.5 154.5t266.5 55.5q244 0 440 -149v-369q-196 182 -348 182q-62 0 -98.5 -26t-36.5 -70q0 -33 30 -65.5t156 -97.5
q108 -56 179 -104.5t122.5 -128t51.5 -190.5q0 -180 -133 -297.5t-373 -117.5q-276 0 -484 96zM813 1517h-452l-171 342h245l152 -162l149 162h246z" />
    <glyph glyph-name="scaron" unicode="&#x161;" horiz-adv-x="1024" 
d="M905 1012v-285q-178 109 -297 109q-44 0 -72 -21t-28 -53q0 -27 20.5 -49t111.5 -55q195 -70 258 -164t63 -185q0 -84 -49 -161.5t-142.5 -121.5t-224.5 -44q-278 0 -463 104v307q193 -147 340 -147q113 0 113 84q0 26 -25 51t-131 73q-187 85 -242 162t-55 166
q0 139 111.5 228.5t324.5 89.5q212 0 387 -88zM739 1212h-452l-171 342h245l152 -162l149 162h246z" />
    <glyph glyph-name="Ydieresis" unicode="&#x178;" horiz-adv-x="1642" 
d="M575 0v623l-542 774h583l267 -463l260 463h479l-557 -793v-604h-490zM930 1691q0 60 42.5 102t102.5 42t101.5 -42t41.5 -102q0 -59 -42 -102t-101 -43q-60 0 -102.5 43t-42.5 102zM428 1691q0 60 42.5 102t102.5 42t102 -42t42 -102q0 -59 -42.5 -102t-101.5 -43
t-102 43t-43 102z" />
    <glyph glyph-name="Zcaron" unicode="&#x17d;" horiz-adv-x="1599" 
d="M74 0l714 1065h-733v332h1497l-714 -1065h688v-332h-1452zM1026 1517h-452l-171 342h245l152 -162l149 162h246z" />
    <glyph glyph-name="zcaron" unicode="&#x17e;" horiz-adv-x="1260" 
d="M51 0l477 760h-442v321h1104v-34l-469 -725h453v-322h-1123zM856 1212h-452l-171 342h245l152 -162l149 162h246z" />
    <glyph glyph-name="florin" unicode="&#x192;" horiz-adv-x="1260" 
d="M932 932h198l-61 -287h-197l-188 -866q-55 -252 -358 -252q-150 0 -342 55l73 256q104 -33 156 -33q44 0 64 27t34 94l156 719h-191l60 287h194q51 236 66.5 286.5t61 100t114.5 73t164 23.5q163 0 346 -61l-72 -256q-97 39 -157 39q-43 0 -62 -27.5t-41 -108.5z" />
    <glyph glyph-name="circumflex" unicode="&#x2c6;" horiz-adv-x="682" 
d="M568 1554l169 -342h-246l-149 162l-152 -162h-245l171 342h452z" />
    <glyph glyph-name="tilde" unicode="&#x2dc;" horiz-adv-x="682" 
d="M-56 1219q12 330 253 330q62 0 152 -45q89 -46 135 -46q61 0 68 91h186q-9 -330 -250 -330q-53 0 -150 46q-97 45 -139 45q-53 0 -73 -91h-182z" />
    <glyph glyph-name="endash" unicode="&#x2013;" horiz-adv-x="1024" 
d="M-12 827h1048v-389h-1048v389z" />
    <glyph glyph-name="emdash" unicode="&#x2014;" horiz-adv-x="2048" 
d="M-12 827h2072v-389h-2072v389z" />
    <glyph glyph-name="quoteleft" unicode="&#x2018;" horiz-adv-x="748" 
d="M668 1415v-45q-200 -90 -205 -289q83 -10 130.5 -67t47.5 -142q0 -103 -74 -177t-178 -74q-116 0 -193 89.5t-77 225.5q0 199 150.5 338.5t398.5 140.5z" />
    <glyph glyph-name="quoteright" unicode="&#x2019;" horiz-adv-x="748" 
d="M79 621v45q200 90 205 289q-83 10 -130.5 67t-47.5 142q0 103 74 177t178 74q116 0 193 -89.5t77 -225.5q0 -199 -150.5 -338.5t-398.5 -140.5z" />
    <glyph glyph-name="quotesinglbase" unicode="&#x201a;" horiz-adv-x="748" 
d="M80 -329v45q200 90 205 289q-83 10 -130.5 67t-47.5 142q0 103 74 177t178 74q116 0 193 -89.5t77 -225.5q0 -199 -150.5 -338.5t-398.5 -140.5z" />
    <glyph glyph-name="quotedblleft" unicode="&#x201c;" 
d="M674 1415v-45q-200 -90 -205 -289q83 -10 130.5 -67t47.5 -142q0 -103 -74 -177t-178 -74q-116 0 -193 89.5t-77 225.5q0 199 150.5 338.5t398.5 140.5zM1356 1415v-45q-200 -90 -205 -289q83 -10 130.5 -67t47.5 -142q0 -103 -74 -177t-178 -74q-116 0 -193 89.5
t-77 225.5q0 199 150.5 338.5t398.5 140.5z" />
    <glyph glyph-name="quotedblright" unicode="&#x201d;" 
d="M73 621v45q200 90 205 289q-83 10 -130.5 67t-47.5 142q0 103 74 177t178 74q116 0 193 -89.5t77 -225.5q0 -199 -150.5 -338.5t-398.5 -140.5zM755 621v45q200 90 205 289q-83 10 -130.5 67t-47.5 142q0 103 74 177t178 74q116 0 193 -89.5t77 -225.5
q0 -199 -150.5 -338.5t-398.5 -140.5z" />
    <glyph glyph-name="quotedblbase" unicode="&#x201e;" 
d="M759 -329v45q200 90 205 289q-83 10 -130.5 67t-47.5 142q0 103 74 177t178 74q116 0 193 -89.5t77 -225.5q0 -199 -150.5 -338.5t-398.5 -140.5zM77 -329v45q200 90 205 289q-83 10 -130.5 67t-47.5 142q0 103 74 177t178 74q116 0 193 -89.5t77 -225.5
q0 -199 -150.5 -338.5t-398.5 -140.5z" />
    <glyph glyph-name="dagger" unicode="&#x2020;" horiz-adv-x="1237" 
d="M725 922q380 89 394 89q38 0 48.5 -44t10.5 -148q0 -100 -12 -135t-44 -35q-15 0 -397 88l113 -1124q0 -44 -6 -58t-31 -21t-76 -7h-213q-71 0 -93 10t-22 41q0 10 2 29l113 1130q-385 -88 -398 -88q-36 0 -45.5 40t-9.5 134q0 100 11 143.5t50 43.5q16 0 392 -88
q-79 429 -79 440q0 30 36.5 41.5t148.5 11.5q113 0 149.5 -11.5t36.5 -42.5q0 -11 -5 -38z" />
    <glyph glyph-name="daggerdbl" unicode="&#x2021;" horiz-adv-x="1260" 
d="M723 1008q403 69 416 69q47 0 47 -49v-205q0 -71 -45 -71q-9 0 -418 71l59 -352l-59 -352q398 69 413 69q28 0 39 -14.5t11 -54.5v-205q0 -50 -45 -50q-6 0 -418 70q71 -330 71 -343q0 -64 -71 -64h-188q-31 0 -51.5 17t-20.5 43q0 7 72 347q-410 -71 -418 -71
q-45 0 -45 51v205q0 39 10.5 54.5t37.5 15.5q14 0 415 -70l-58 352l58 352q-404 -71 -418 -71q-26 0 -35.5 16t-9.5 55v205q0 49 49 49q9 0 414 -69q-72 340 -72 348q0 26 19 42.5t53 16.5h188q72 0 72 -59q0 -10 -2 -23z" />
    <glyph glyph-name="bullet" unicode="&#x2022;" horiz-adv-x="1024" 
d="M180 721q0 137 97.5 234.5t234.5 97.5q136 0 234 -98t98 -234q0 -137 -97.5 -234.5t-234.5 -97.5q-136 0 -234 98t-98 234z" />
    <glyph glyph-name="ellipsis" unicode="&#x2026;" horiz-adv-x="2048" 
d="M1454 233q0 104 74 177t178 73t177 -73t73 -177t-73 -177.5t-177 -73.5t-178 74t-74 177zM772 233q0 104 74 177t178 73t177 -73t73 -177t-73 -177.5t-177 -73.5t-178 74t-74 177zM90 233q0 104 74 177t178 73t177 -73t73 -177t-73 -177.5t-177 -73.5t-178 74t-74 177z
" />
    <glyph glyph-name="perthousand" unicode="&#x2030;" horiz-adv-x="2603" 
d="M358 -49l842 1497h219l-839 -1497h-222zM406 678q-166 0 -266.5 101.5t-100.5 267.5q0 165 100.5 266.5t266.5 101.5q163 0 263.5 -101.5t100.5 -266.5q0 -166 -100.5 -267.5t-263.5 -101.5zM406 1210q-119 0 -119 -163q0 -164 119 -164q116 0 116 164q0 163 -116 163z
M2198 -8q-166 0 -266.5 101.5t-100.5 266.5q0 166 100.5 267.5t266.5 101.5q163 0 263.5 -101.5t100.5 -267.5t-100 -267t-264 -101zM2198 524q-119 0 -119 -164q0 -163 119 -163q116 0 116 163q0 164 -116 164zM1382 -8q-165 0 -265.5 101.5t-100.5 266.5
q0 166 100.5 267.5t265.5 101.5q164 0 264.5 -101.5t100.5 -267.5q0 -165 -100.5 -266.5t-264.5 -101.5zM1382 524q-118 0 -118 -164q0 -163 118 -163q117 0 117 163q0 164 -117 164z" />
    <glyph glyph-name="guilsinglleft" unicode="&#x2039;" horiz-adv-x="831" 
d="M457 537l307 -537h-367l-305 537l305 536h367z" />
    <glyph glyph-name="guilsinglright" unicode="&#x203a;" horiz-adv-x="831" 
d="M375 537l-307 536h366l305 -536l-305 -537h-366z" />
    <glyph glyph-name="Euro" unicode="&#x20ac;" horiz-adv-x="1386" 
d="M1229 455v-351q-182 -122 -434 -122q-274 0 -444 160q-144 135 -192 360h-132l26 137h88q-2 27 -2 53q0 30 2 60h-114l26 137h107q52 238 220 379q175 147 435 147q231 0 404 -94v-387q-169 129 -349 129q-225 0 -305 -174h522l-28 -137h-529q-2 -26 -2 -54q0 -30 3 -59
h507l-26 -137h-441q87 -170 302 -170q172 0 356 123z" />
    <glyph glyph-name="trademark" unicode="&#x2122;" horiz-adv-x="2048" 
d="M1915 600h-225v592l-154 -592h-184l-152 587v-587h-225v815h354l115 -453l119 453h352v-815zM883 1220h-283v-620h-235v620h-283v195h801v-195z" />
    <glyph glyph-name="periodcentered" unicode="&#x2219;" horiz-adv-x="748" 
d="M123 698q0 104 74 177t178 73t177 -73t73 -177t-73 -178t-177 -74t-178 74t-74 178z" />
    <glyph glyph-name="fraction" horiz-adv-x="256" 
d="M-410 -49l842 1497h219l-839 -1497h-222z" />
    <glyph glyph-name="dotlessi" horiz-adv-x="682" 
d="M129 0v1081h426v-1081h-426z" />
    <glyph glyph-name="ring" horiz-adv-x="682" 
d="M565 1400q0 -93 -65 -159t-158 -66t-159.5 66t-66.5 159q0 94 66.5 158.5t159.5 64.5t158.5 -64.5t64.5 -158.5zM236 1400q0 -44 31 -76t75 -32t76 32t32 76q0 45 -31.5 75.5t-76.5 30.5q-44 0 -75 -31t-31 -75z" />
    <glyph glyph-name="caron" horiz-adv-x="682" 
d="M568 1212h-452l-171 342h245l152 -162l149 162h246z" />
    <glyph glyph-name="foursuperior" horiz-adv-x="811" 
d="M374 688v139h-349v180l375 408h250v-428h135v-160h-135v-139h-276zM183 987h191v209z" />
    </font>
</defs>
</svg>
