<?xml version="1.0" standalone="no"?>
<!DOCTYPE svg PUBLIC "-//W3C//DTD SVG 1.1//EN" "http://www.w3.org/Graphics/SVG/1.1/DTD/svg11.dtd" >
<svg xmlns="http://www.w3.org/2000/svg" xmlns:xlink="http://www.w3.org/1999/xlink" version="1.1">
<metadata>
Created by FontForge 20161013 at Thu Sep 14 17:53:46 2000
 By ,,,
Copyright (c) 1993 Adobe Systems Incorporated. All Rights Reserved.Gill Sans is a trademark of The Monotype Corporation plc registered in the U.S. Patent &#38; TM Office and elsewhere.
</metadata>
<defs>
<font id="GillSans-BoldExtraCondensed" horiz-adv-x="323" >
  <font-face 
    font-family="Gill Sans BoldExtraCondensed"
    font-weight="400"
    font-stretch="normal"
    units-per-em="1000"
    panose-1="2 11 4 0 0 0 0 0 0 0"
    ascent="800"
    descent="-200"
    x-height="613"
    cap-height="796"
    bbox="-25 -126 1004 1001"
    underline-thickness="50"
    underline-position="-175"
    unicode-range="U+0020-2122"
  />
<missing-glyph horiz-adv-x="500" 
d="M63 0v866h375v-866h-375zM125 63h250v741h-250v-741z" />
    <glyph glyph-name=".notdef" horiz-adv-x="500" 
d="M63 0v866h375v-866h-375zM125 63h250v741h-250v-741z" />
    <glyph glyph-name=".null" horiz-adv-x="0" 
 />
    <glyph glyph-name="nonmarkingreturn" horiz-adv-x="115" 
 />
    <glyph glyph-name="space" unicode=" " horiz-adv-x="115" 
 />
    <glyph glyph-name="exclam" unicode="!" horiz-adv-x="135" 
d="M84 236h-32q-2 23 -22 205q-17 143 -17 222q0 135 55 135t55 -135q0 -79 -16 -222q-21 -182 -23 -205zM68 111q24 0 41 -17t17 -41t-17 -41t-41 -17t-41 17t-17 41t17 41t41 17z" />
    <glyph glyph-name="quotedbl" unicode="&#x22;" horiz-adv-x="260" 
d="M30 816h78v-142l-13 -144h-52l-13 144v142zM153 816h78v-142l-13 -144h-51l-14 144v142z" />
    <glyph glyph-name="dollar" unicode="$" horiz-adv-x="281" 
d="M124 763v41h26v-40q42 0 105 -30v-99q-60 44 -106 41v-194q53 -80 77 -136q38 -89 38 -176q0 -84 -37 -132q-31 -39 -78 -45v-77h-26v77q-53 0 -104 38v103q33 -26 47 -34q31 -19 58 -20v225q-104 182 -107 281q-2 68 23 114q28 51 84 63zM124 515v155q-34 -15 -34 -64
q0 -31 34 -91zM149 269v-187q38 14 38 70q0 38 -38 117z" />
    <glyph glyph-name="percent" unicode="%" horiz-adv-x="458" 
d="M118 731q-21 -28 -21 -112q0 -109 23 -135q19 22 19 112q0 108 -21 135zM116 803q54 0 81 -61q23 -52 23 -139q0 -81 -23 -133q-27 -60 -78 -60q-57 0 -83 71q-21 54 -21 135q0 76 26 129q28 58 75 58zM341 304q-21 -28 -21 -111q0 -109 23 -135q19 21 19 112
q0 108 -21 134zM339 377q54 0 81 -61q24 -52 24 -140q0 -80 -24 -132q-27 -60 -78 -60q-56 0 -83 71q-21 54 -21 134q0 76 26 130q28 58 75 58zM79 -16l256 818h44l-253 -818h-47z" />
    <glyph glyph-name="ampersand" unicode="&#x26;" horiz-adv-x="344" 
d="M147 701q-25 -31 -25 -80q0 -51 21 -98q22 37 22 101q0 52 -18 77zM172 146l-46 119q-13 -36 -13 -87q0 -59 30 -59q17 0 29 27zM226 0l-18 47q-40 -52 -88 -52q-37 0 -65 33q-38 43 -38 131q0 103 64 226q-53 140 -53 238q0 82 37 132q34 47 85 47q52 0 82 -47
q28 -42 28 -101q0 -99 -75 -241l39 -105q13 39 17 122h93q0 -45 -17 -126q-18 -87 -39 -136l62 -168h-114z" />
    <glyph glyph-name="quotesingle" unicode="'" horiz-adv-x="135" 
d="M29 816h78v-142l-14 -144h-51l-13 144v142z" />
    <glyph glyph-name="parenleft" unicode="(" horiz-adv-x="198" 
d="M174 -65v-50q-80 65 -118 204q-32 115 -32 262q0 127 29 238q40 149 122 212v-46q-40 -55 -52 -176q-6 -60 -6 -194q0 -222 11 -310.5t46 -139.5z" />
    <glyph glyph-name="parenright" unicode=")" horiz-adv-x="198" 
d="M25 752v49q80 -65 118 -204q32 -114 32 -262q0 -127 -29 -237q-39 -150 -122 -213v46q41 55 53 176q6 60 6 194q0 221 -11.5 310t-46.5 141z" />
    <glyph glyph-name="asterisk" unicode="*" horiz-adv-x="427" 
d="M207 626l-35 144q-3 12 -3 16q0 16 49 16q41 0 41 -20q0 -4 -3 -16l-35 -141q10 -3 16 -9l104 97q17 16 25 16q13 0 30 -30q14 -27 14 -39q0 -13 -28 -21l-137 -37q0 -12 1 -19l131 -38q33 -10 33 -25q0 -9 -16.5 -37t-28.5 -28q-10 0 -22 12l-105 104q-2 -2 -18 -10
l36 -147q2 -8 2 -12q0 -18 -40 -18q-48 0 -48 19q0 5 2 13l36 145q-5 2 -17 11l-106 -102q-12 -12 -22 -12q-12 0 -29 30q-15 27 -15 37q0 13 17 18l147 41v19l-142 41q-23 7 -23 19q0 10 16 39t28 29t38 -26l90 -89q8 6 17 10z" />
    <glyph glyph-name="comma" unicode="," horiz-adv-x="135" 
d="M9 -117v43q36 24 47 68q-47 13 -47 59q0 25 17.5 41.5t41.5 16.5q23 0 40.5 -17t17.5 -51q0 -45 -28 -87q-32 -47 -89 -73z" />
    <glyph glyph-name="hyphenminus" unicode="-" horiz-adv-x="219" 
d="M13 261v91h194v-91h-194z" />
    <glyph glyph-name="period" unicode="." horiz-adv-x="135" 
d="M68 111q24 0 41.5 -17t17.5 -42q0 -24 -17.5 -41t-41.5 -17t-41.5 17t-17.5 41q0 25 17.5 42t41.5 17z" />
    <glyph glyph-name="slash" unicode="/" horiz-adv-x="385" 
d="M23 -115l279 917h61l-278 -917h-62z" />
    <glyph glyph-name="zero" unicode="0" 
d="M131 412q0 -138 5 -190q6 -79 28 -106q29 46 29 269q0 130 -4 182q-7 79 -27 112q-21 -27 -27 -105q-4 -47 -4 -162zM19 396q0 296 83 379q26 26 59 26q57 0 95 -79q49 -105 49 -332q0 -286 -83 -369q-26 -26 -54 -26q-39 0 -65 26q-84 83 -84 375z" />
    <glyph glyph-name="one" unicode="1" horiz-adv-x="188" 
d="M10 637l142 166v-803h-105v623h-37v14z" />
    <glyph glyph-name="two" unicode="2" horiz-adv-x="240" 
d="M0 656v104q47 41 90 41q44 0 76 -31q47 -46 47 -162q0 -155 -78 -504l85 1v-105h-221q40 142 72 329q31 180 31 261q0 91 -53 91q-27 0 -49 -25z" />
    <glyph glyph-name="three" unicode="3" horiz-adv-x="229" 
d="M16 689l1 101q22 12 50 12q61 0 102 -52q45 -58 45 -160q0 -134 -74 -181q80 -58 80 -181q0 -94 -42 -153q-52 -74 -162 -81v111q91 9 91 124q0 58 -23.5 91.5t-66.5 34.5v88q87 -6 87 149q0 103 -59 103q-12 0 -29 -6z" />
    <glyph glyph-name="four" unicode="4" horiz-adv-x="344" 
d="M183 340v167l-68 -167h68zM13 296l203 504h68v-460h54v-100h-55v-240h-100v240h-170v56z" />
    <glyph glyph-name="five" unicode="5" horiz-adv-x="229" 
d="M24 389v407h202v-105h-94v-250q86 -61 86 -195q0 -120 -74 -195q-62 -63 -125 -57v111q87 20 87 147q0 119 -82 137z" />
    <glyph glyph-name="six" unicode="6" horiz-adv-x="313" 
d="M147 376q-18 -51 -18 -130q0 -94 34 -129q31 26 31 117q0 99 -47 142zM242 802l64 -87q-78 -98 -123 -223q116 -96 116 -248q0 -123 -48 -193q-39 -56 -87 -56q-70 0 -109 89q-32 72 -32 167q0 154 78 327q63 140 141 224z" />
    <glyph glyph-name="seven" unicode="7" horiz-adv-x="219" 
d="M13 690v106h201l-92 -802l-104 12l77 684h-82z" />
    <glyph glyph-name="eight" unicode="8" horiz-adv-x="292" 
d="M120 575q0 -72 26 -105q26 31 26 108q0 82 -26 110q-26 -34 -26 -113zM120 230q0 -81 27 -110q26 26 26 114q0 72 -27 108q-26 -32 -26 -112zM17 589q0 88 36.5 150.5t90.5 62.5q53 0 89 -55q42 -62 42 -168q1 -110 -61 -173q65 -75 65 -186q0 -95 -39 -160t-91 -65
q-57 0 -96 64.5t-39 160.5q0 118 64 186q-61 61 -61 183z" />
    <glyph glyph-name="nine" unicode="9" horiz-adv-x="313" 
d="M175 422q17 46 17 128q0 96 -33 129q-30 -21 -30 -111q0 -98 46 -146zM79 -6l-63 87q75 90 124 225q-117 89 -117 246q0 125 48 194q38 55 87 55q70 0 108 -87q33 -74 33 -175q0 -136 -71 -303q-66 -155 -149 -242z" />
    <glyph glyph-name="colon" unicode=":" horiz-adv-x="135" 
d="M68 435q24 0 41 -17t17 -41q0 -25 -17 -42t-41 -17t-41.5 17t-17.5 42q0 24 17.5 41t41.5 17zM68 110q24 0 41 -17t17 -41t-17 -41t-41 -17t-41.5 17t-17.5 41t17.5 41t41.5 17z" />
    <glyph glyph-name="semicolon" unicode=";" horiz-adv-x="135" 
d="M68 435q24 0 41 -17t17 -41t-17 -41t-41 -17q-25 0 -42 17t-17 41t17 41t42 17zM10 -117v43q36 24 47 67q-48 15 -48 60q0 24 17.5 40.5t41.5 16.5q23 0 40 -15q19 -19 19 -53q0 -44 -28 -86q-32 -48 -89 -73z" />
    <glyph glyph-name="question" unicode="?" horiz-adv-x="167" 
d="M11 675v107q30 18 61 18q35 0 59 -25q28 -32 28 -94q0 -66 -36 -203q-37 -141 -37 -234v-8h-42q-2 54 -2 127q0 77 12 171t12 109q0 45 -29 45q-11 0 -26 -13zM82 111q25 0 42 -17t17 -41q0 -25 -17 -42t-42 -17q-24 0 -41 17t-17 42q0 24 17 41t41 17z" />
    <glyph glyph-name="A" unicode="A" horiz-adv-x="313" 
d="M181 247l-8 162q-3 87 -11 261h-9q-1 -71 -7 -214l-12 -209h47zM11 0l91 803h116l84 -803h-108l-6 143h-60l-10 -143h-107z" />
    <glyph glyph-name="B" unicode="B" 
d="M137 682v-223q53 20 53 108q0 49 -17 82q-15 30 -36 33zM137 343v-228q27 5 45 36t18 74q0 38 -17 71.5t-46 46.5zM30 0v796h68q105 0 158 -73q42 -59 42 -148q0 -112 -71 -170q84 -55 84 -184q0 -100 -54 -160.5t-146 -60.5h-81z" />
    <glyph glyph-name="C" unicode="C" horiz-adv-x="300" 
d="M259 117v-106q-17 -16 -50 -16q-88 0 -136 120q-44 111 -44 306q0 161 51 271t128 110q27 0 53 -15v-101q-18 9 -31 9q-89 0 -89 -282v-63q0 -95 17 -159q23 -84 70 -84q15 0 31 10z" />
    <glyph glyph-name="D" unicode="D" 
d="M197 356v62q0 203 -60 245v-533q31 17 47 90q13 60 13 136zM31 0v796h32q93 0 146 -53q100 -100 100 -344q0 -253 -94 -347q-52 -52 -134 -52h-50z" />
    <glyph glyph-name="E" unicode="E" horiz-adv-x="219" 
d="M22 0v796h184v-105h-77v-252h75v-103h-75v-231h76v-105h-183z" />
    <glyph glyph-name="F" unicode="F" horiz-adv-x="219" 
d="M25 0v796h184v-104h-77v-252h76v-103h-76v-337h-107z" />
    <glyph glyph-name="G" unicode="G" 
d="M304 397v-398q-19 -5 -65 -5q-44 0 -68 8q-29 9 -56 36q-98 97 -98 367q0 144 41 254q53 143 157 143q32 0 90 -29v-125q-37 48 -74 48q-102 0 -102 -296q0 -246 69 -295v189h-42v103h148z" />
    <glyph glyph-name="H" unicode="H" 
d="M27 0v796h107v-357h56v357h106v-796h-106v336h-56v-336h-107z" />
    <glyph glyph-name="I" unicode="I" horiz-adv-x="156" 
d="M25 0v796h106v-796h-106z" />
    <glyph glyph-name="J" unicode="J" horiz-adv-x="177" 
d="M36 49v747h107v-741q0 -178 -151 -171v117q44 0 44 48z" />
    <glyph glyph-name="K" unicode="K" 
d="M31 0v796h107v-351q38 31 51 119q9 57 9 165v67h106l-1 -121q-1 -173 -67 -254q37 -31 55 -133q14 -78 14 -170v-118h-109v102q0 256 -58 272v-374h-107z" />
    <glyph glyph-name="L" unicode="L" horiz-adv-x="208" 
d="M30 0v796h107v-690h63v-106h-170z" />
    <glyph glyph-name="M" unicode="M" horiz-adv-x="448" 
d="M19 0l83 796h88l34 -440l40 440h87l78 -796h-106l-25 387l-58 -387h-36l-53 387l-28 -387h-104z" />
    <glyph glyph-name="N" unicode="N" 
d="M29 0v796h97l68 -415h6l-12 415h107v-796h-95l-72 442h-5l12 -442h-106z" />
    <glyph glyph-name="O" unicode="O" 
d="M162 680q-31 -49 -31 -251q0 -134 1 -161q6 -111 32 -154q20 39 26 104q4 48 4 193q0 129 -7 187q-7 54 -25 82zM19 387q0 304 87 391q23 23 57 23q32 0 58 -26q84 -84 84 -385q0 -286 -83 -369q-26 -26 -58 -26q-84 0 -121 156q-24 101 -24 236z" />
    <glyph glyph-name="P" unicode="P" horiz-adv-x="313" 
d="M137 678v-233q54 32 54 117q0 88 -54 116zM30 0v796h34q68 0 108 -15q34 -12 65 -43q65 -65 65 -172q0 -90 -44 -153t-121 -83v-330h-107z" />
    <glyph glyph-name="Q" unicode="Q" 
d="M163 681q-21 -29 -27 -99q-6 -58 -6 -200q0 -102 3 -137q6 -93 31 -128q30 50 30 269q0 130 -4 183q-7 79 -27 112zM295 1l-31 -99q-55 -4 -116 57q-72 72 -102 175q-28 98 -28 259q0 298 86 384q25 25 57 25q76 0 114 -130q30 -106 30 -273q0 -280 -79 -372
q31 -29 69 -26z" />
    <glyph glyph-name="R" unicode="R" horiz-adv-x="333" 
d="M137 682v-230q28 10 43 47q13 31 13 66q0 97 -56 117zM31 0v796h57q98 0 151 -52q62 -61 62 -168q0 -110 -73 -168q78 -73 100 -408h-108q-2 123 -26 226q-24 109 -57 123v-349h-106z" />
    <glyph glyph-name="S" unicode="S" horiz-adv-x="240" 
d="M13 6v110q26 -11 48 -11q61 0 61 73q0 61 -54.5 199.5t-54.5 226.5q0 198 143 198q31 0 69 -12v-106q-20 11 -40 11q-31 0 -48.5 -24t-17.5 -65q0 -55 54 -200t54 -236q0 -87 -47 -134q-40 -41 -101 -41q-28 0 -66 11z" />
    <glyph glyph-name="T" unicode="T" horiz-adv-x="281" 
d="M13 692v104h258v-105h-76v-691h-106v692h-76z" />
    <glyph glyph-name="U" unicode="U" 
d="M29 217v579h106v-581q0 -76 29 -97q25 30 25 87v591h106v-589q0 -96 -42 -157q-38 -55 -87 -55q-65 0 -103 71q-34 63 -34 151z" />
    <glyph glyph-name="V" unicode="V" horiz-adv-x="302" 
d="M111 -4l-104 800h110l38 -459l32 459h109l-95 -801z" />
    <glyph glyph-name="W" unicode="W" horiz-adv-x="490" 
d="M110 -5l-97 801h108l33 -463l45 463h94l45 -469l33 469h107l-96 -801h-89l-47 441l-47 -441h-89z" />
    <glyph glyph-name="X" unicode="X" horiz-adv-x="313" 
d="M102 395l-90 401h108l36 -191l36 191h109l-90 -401l88 -395h-108l-36 189l-34 -189h-109z" />
    <glyph glyph-name="Y" unicode="Y" horiz-adv-x="313" 
d="M103 380l-91 416h109l36 -203l38 203h107l-92 -416v-380h-107v380z" />
    <glyph glyph-name="Z" unicode="Z" horiz-adv-x="219" 
d="M14 692v104h193l-75 -691h75v-105h-194l76 692h-75z" />
    <glyph glyph-name="bracketleft" unicode="[" horiz-adv-x="188" 
d="M16 -117v920h156v-62h-68v-797h69v-61h-157z" />
    <glyph glyph-name="bracketright" unicode="]" horiz-adv-x="188" 
d="M15 743v60h158v-920h-155v60h66v800h-69z" />
    <glyph glyph-name="underscore" unicode="_" horiz-adv-x="500" 
d="M503 -125h-516v50h516v-50z" />
    <glyph glyph-name="grave" unicode="`" horiz-adv-x="333" 
d="M76 803h95l36 -149h-56z" />
    <glyph glyph-name="a" unicode="a" horiz-adv-x="281" 
d="M166 91v413q-47 -15 -47 -156v-112q0 -151 31 -151q13 0 16 6zM26 268v74q0 118 42 191q49 85 146 85h43v-456q0 -70 24 -88l-53 -79q-28 7 -49 53q-9 -19 -27.5 -36t-35.5 -17q-90 0 -90 273z" />
    <glyph glyph-name="b" unicode="b" horiz-adv-x="271" 
d="M168 216v198q0 110 -32 110q-8 0 -14 -4v-408q46 12 46 104zM32 0v796h92v-195q14 19 44 19q56 0 79 -82q14 -50 14 -117v-121q0 -106 -20 -168q-17 -52 -54 -89q-43 -43 -110 -43h-45z" />
    <glyph glyph-name="c" unicode="c" horiz-adv-x="198" 
d="M15 270v89q0 107 26 174q33 86 104 86q20 0 42 -8v-93q-16 8 -23 8q-56 0 -56 -167v-82q0 -94 7 -132q10 -58 42 -58q22 0 31 13v-90q-3 -4 -19 -11t-27 -7q-127 0 -127 278z" />
    <glyph glyph-name="d" unicode="d" horiz-adv-x="281" 
d="M162 94v413q-47 -14 -47 -140v-127q0 -155 31 -155q14 0 16 9zM162 619v177h91v-648q0 -55 22 -75l-53 -80q-37 10 -49 55q-32 -53 -61 -53q-90 0 -90 232v110q0 143 41 216q37 66 99 66z" />
    <glyph glyph-name="e" unicode="e" horiz-adv-x="260" 
d="M115 423v-79q44 16 44 93q0 59 -20 86q-24 -39 -24 -100zM21 304v71q0 243 115 243q56 0 85 -48.5t29 -130.5q0 -77 -36 -129t-95 -67q-1 -50 19 -94q24 -55 69 -55q13 0 39 12v-103q-20 -8 -49 -8q-59 0 -106 47q-70 70 -70 262z" />
    <glyph glyph-name="f" unicode="f" horiz-adv-x="198" 
d="M53 613v41q0 65 28 104q34 48 107 43v-87q-44 -5 -44 -54v-47h43v-78h-43v-488q0 -70 -16 -103q-29 -60 -113 -60v100q39 -1 39 79v472h-40v78h39z" />
    <glyph glyph-name="g" unicode="g" horiz-adv-x="271" 
d="M161 112v392q-19 -4 -32 -44.5t-13 -92.5v-130q0 -129 31 -129q12 0 14 4zM33 -87l29 83q31 -21 56 -21q43 0 43 40v28q-21 -31 -51 -31q-89 1 -89 285q0 321 190 321h41v-604q0 -55 -30 -90q-33 -39 -94 -39q-41 0 -95 28z" />
    <glyph glyph-name="h" unicode="h" horiz-adv-x="281" 
d="M256 504v-504h-91v498q0 30 -23 30q-10 0 -26 -19v-509h-91v796h92v-213q30 37 65 37q74 0 74 -116z" />
    <glyph glyph-name="i" unicode="i" horiz-adv-x="135" 
d="M67 802q23 0 39 -16t16 -38t-16 -38.5t-39 -16.5q-22 0 -38 16t-16 39t16 38.5t38 15.5zM16 0v613h91v-613h-91z" />
    <glyph glyph-name="j" unicode="j" horiz-adv-x="167" 
d="M83 802q22 0 38 -16t16 -38t-16 -38t-38 -16t-38 16t-16 38q0 23 16 38.5t38 15.5zM38 30v583h92v-605q0 -50 -34 -85q-36 -38 -94 -38v94q36 2 36 51z" />
    <glyph glyph-name="k" unicode="k" horiz-adv-x="271" 
d="M31 0v796h91v-415q37 26 37 100v132h91v-119q0 -45 -10 -87q-13 -51 -35 -63q55 -41 55 -214v-130h-91v125q0 152 -46 169v-294h-92z" />
    <glyph glyph-name="l" unicode="l" horiz-adv-x="156" 
d="M32 76v720h91v-671q0 -50 29 -63l-71 -67q-49 15 -49 81z" />
    <glyph glyph-name="m" unicode="m" horiz-adv-x="417" 
d="M399 507v-507h-91v495q0 32 -22 32q-11 0 -25 -19v-508h-91v497q0 30 -22 30q-12 0 -25 -19v-508h-91v517q0 25 -15 37l53 65q38 -12 49 -46q31 47 71 47q41 0 64 -45q36 45 73 45q32 0 52 -29t20 -84z" />
    <glyph glyph-name="n" unicode="n" horiz-adv-x="281" 
d="M255 511v-511h-92v502q0 26 -23 26q-13 0 -23 -15v-513h-91v504q0 35 -19 48l58 67q26 -6 46 -43q33 43 70 43q74 0 74 -108z" />
    <glyph glyph-name="o" unicode="o" horiz-adv-x="260" 
d="M109 315q0 -195 22 -215q22 24 22 204q0 194 -22 208q-22 -15 -22 -197zM15 306q0 137 28 221q31 91 86 91q29 0 54 -24q29 -29 46 -110q16 -77 16 -178q0 -138 -28 -222q-29 -90 -83 -90q-32 0 -57 25q-29 29 -46 114q-16 79 -16 173z" />
    <glyph glyph-name="p" unicode="p" horiz-adv-x="271" 
d="M167 270v128q0 131 -33 131q-8 0 -14 -6v-415q47 5 47 162zM9 552l61 68q38 -17 48 -44q27 44 51 44q91 0 91 -264v-70q0 -130 -34 -207q-37 -83 -106 -87v-107h-91v626q0 28 -20 41z" />
    <glyph glyph-name="q" unicode="q" horiz-adv-x="271" 
d="M158 95v408q-46 -9 -46 -161v-133q0 -120 33 -120q11 0 13 6zM158 -115v127q-22 -18 -45 -18q-26 0 -48 22q-31 31 -41 117q-6 50 -6 161q0 156 37 228q53 105 194 96v-733h-91z" />
    <glyph glyph-name="r" unicode="r" horiz-adv-x="219" 
d="M11 551l55 67q28 -10 40.5 -28.5t16.5 -58.5q66 87 81 87h7v-114q-32 -6 -60 -39.5t-28 -62.5v-402h-91v503q0 30 -21 48z" />
    <glyph glyph-name="s" unicode="s" horiz-adv-x="188" 
d="M10 10v92q15 -18 37 -18q46 0 46 47q0 50 -41 168t-41 180q0 140 95 140q27 0 62 -20v-85q-18 16 -34 16q-37 0 -37 -47q0 -37 40.5 -160.5t40.5 -188.5q0 -141 -106 -140q-34 0 -62 16z" />
    <glyph glyph-name="t" unicode="t" horiz-adv-x="208" 
d="M9 535v27q32 32 112 151h27v-100h45v-78h-46v-420q0 -31 26 -31q6 0 20 7v-78q-25 -18 -49 -18q-88 0 -88 106v434h-47z" />
    <glyph glyph-name="u" unicode="u" horiz-adv-x="281" 
d="M26 85v528h92v-501q0 -26 21 -26q8 0 16.5 7t8.5 16v504h91v-515q0 -17 18 -37l-56 -67q-38 18 -47 44q-36 -44 -73 -44t-56 33q-15 26 -15 58z" />
    <glyph glyph-name="v" unicode="v" horiz-adv-x="250" 
d="M127 114l23 499h92l-73 -619h-85l-75 619h92z" />
    <glyph glyph-name="w" unicode="w" horiz-adv-x="385" 
d="M84 -6l-73 619h92l19 -419l29 419h83l30 -415l20 415h91l-72 -619h-74l-35 393l-37 -393h-73z" />
    <glyph glyph-name="x" unicode="x" horiz-adv-x="250" 
d="M90 317l-73 296h91l20 -229l22 230h90l-76 -295l77 -319h-94l-19 239l-23 -239h-95z" />
    <glyph glyph-name="y" unicode="y" horiz-adv-x="250" 
d="M84 23l-73 591h92l26 -419l22 418h91l-66 -582q-18 -158 -160 -146v87q33 -3 48 10q11 10 20 41z" />
    <glyph glyph-name="z" unicode="z" horiz-adv-x="198" 
d="M14 541v72h175l-78 -542h77v-71h-177l77 541h-74z" />
    <glyph glyph-name="braceleft" unicode="{" horiz-adv-x="389" 
d="M106 316v54q50 4 68.5 45t18.5 142q0 88 3 112q8 67 40 99q44 44 116 44h8v-56h-16q-20 0 -39 -22q-25 -31 -26 -87q-1 -128 -7 -168q-10 -73 -46 -109q-17 -17 -37 -27q20 -10 37 -27q32 -32 44 -89q10 -50 8 -145q-3 -140 67 -145l15 -1v-62h-8q-72 0 -116 44
q-33 33 -40 101q-3 23 -3 114q0 101 -18.5 141.5t-68.5 41.5z" />
    <glyph glyph-name="braceright" unicode="}" horiz-adv-x="389" 
d="M283 370v-54q-50 -1 -68.5 -41.5t-18.5 -141.5q0 -91 -3 -114q-7 -68 -40 -101q-44 -44 -116 -44h-8v62l15 2q69 9 67 144q-2 95 8 145q12 57 44 89q17 17 37 27q-20 10 -37 27q-36 36 -46 109q-6 40 -7 168q-1 56 -26 87q-19 22 -39 22h-16v56h8q72 0 116 -44
q32 -32 40 -99q3 -24 3 -112q0 -101 18.5 -142t68.5 -45z" />
    <glyph glyph-name="Euro" horiz-adv-x="319" 
d="M18 531h40q11 91 45 164q49 106 129 106q23 0 60 -14l-13 -99q-13 7 -27 7q-40 0 -62 -57q-15 -39 -22 -107h90l-15 -105h-80v-75h71l-15 -105h-49q5 -38 14 -69q21 -70 66 -70q13 0 31 10v-106q-20 -16 -50 -16q-90 0 -140 129q-23 58 -30 122h-58l15 105h34v75h-49z
" />
    <glyph glyph-name="Euro" unicode="&#x20ac;" horiz-adv-x="319" 
d="M18 531h40q11 91 45 164q49 106 129 106q23 0 60 -14l-13 -99q-13 7 -27 7q-40 0 -62 -57q-15 -39 -22 -107h90l-15 -105h-80v-75h71l-15 -105h-49q5 -38 14 -69q21 -70 66 -70q13 0 31 10v-106q-20 -16 -50 -16q-90 0 -140 129q-23 58 -30 122h-58l15 105h34v75h-49z
" />
    <glyph glyph-name="Zcaron" horiz-adv-x="219" 
d="M14 692v104h193l-75 -691h75v-105h-194l76 692h-75zM84 835l-49 146h56l36 -69l38 69h53l-50 -146h-84z" />
    <glyph glyph-name="Zcaron" unicode="&#x17d;" horiz-adv-x="219" 
d="M14 692v104h193l-75 -691h75v-105h-194l76 692h-75zM84 835l-49 146h56l36 -69l38 69h53l-50 -146h-84z" />
    <glyph glyph-name="zcaron" horiz-adv-x="198" 
d="M14 541v72h175l-78 -542h77v-71h-177l77 541h-74z" />
    <glyph glyph-name="zcaron" unicode="&#x17e;" horiz-adv-x="198" 
d="M14 541v72h175l-78 -542h77v-71h-177l77 541h-74z" />
    <glyph glyph-name="nonbreakingspace" unicode="&#xa0;" horiz-adv-x="115" 
 />
    <glyph glyph-name="exclamdown" unicode="&#xa1;" horiz-adv-x="135" 
d="M68 575q-24 0 -41 16.5t-17 40.5t17 41t41 17t41 -17t17 -41t-17 -40.5t-41 -16.5zM52 449h32q2 -23 23 -204q16 -144 16 -223q0 -135 -55 -135t-55 135q0 79 17 223q20 181 22 204z" />
    <glyph glyph-name="cent" unicode="&#xa2;" horiz-adv-x="198" 
d="M151 618l20 111h26l-23 -115q8 0 15 -5v-92q-10 9 -24 9q-54 0 -54 -159v-57q0 -120 8 -163q10 -60 44 -60q16 0 28 12v-88q-24 -18 -50 -18q-39 0 -74 40l-29 -150h-25l35 187q-29 72 -29 177v113q0 133 38 200q35 60 94 58z" />
    <glyph glyph-name="sterling" unicode="&#xa3;" horiz-adv-x="292" 
d="M16 372h42q1 207 28 292q44 137 174 137v-108q-68 -10 -89 -82q-17 -60 -19 -239h73v-89h-79q2 -27 -7 -85q-11 -66 -26 -100q13 4 28 4q13 0 37.5 -3.5t36.5 -3.5q36 0 68 23v-95q-27 -29 -82 -29q-30 0 -65 6t-54 6q-28 0 -65 -11l-1 58q40 63 40 231h-40v88z" />
    <glyph glyph-name="yen" unicode="&#xa5;" horiz-adv-x="313" 
d="M106 295v75h-103v105h82l-70 321h109l36 -203l38 203h107l-71 -321h77v-105h-98v-75h98v-105h-98v-190h-107v190h-103v105h103z" />
    <glyph glyph-name="dieresis" unicode="&#xa8;" horiz-adv-x="333" 
d="M114 764q42 0 42 -56q0 -57 -42 -57q-41 0 -41 57q0 23 11.5 39.5t29.5 16.5zM220 764q41 0 41 -56t-41 -56t-41 56q0 23 11.5 39.5t29.5 16.5z" />
    <glyph glyph-name="copyright" unicode="&#xa9;" horiz-adv-x="788" 
d="M484 301l79 -27q-37 -126 -164 -126q-86 0 -137 56t-51 150q0 97 51 153.5t138 56.5q120 0 163 -119l-79 -19q-26 68 -86 68q-48 0 -75 -36.5t-27 -101.5t25.5 -102t69.5 -37q70 0 93 84zM394 730q155 0 264.5 -109.5t109.5 -264.5t-109.5 -264.5t-264.5 -109.5
t-264.5 109.5t-109.5 264.5t109.5 264.5t264.5 109.5zM394 657q-124 0 -212.5 -88t-88.5 -213q0 -124 88.5 -212.5t212.5 -88.5q125 0 213 88.5t88 212.5q0 125 -88 213t-213 88z" />
    <glyph glyph-name="ordfeminine" unicode="&#xaa;" horiz-adv-x="198" 
d="M116 436v282q-32 -12 -32 -107v-76q0 -103 21 -103q7 0 11 4zM194 425l-37 -54q-20 6 -33 36q-17 -36 -43 -36q-61 0 -61 186v50q0 82 30 132q34 57 102 57h25v-310q0 -49 17 -61z" />
    <glyph glyph-name="guillemotleft" unicode="&#xab;" horiz-adv-x="302" 
d="M11 339l87 249h76l-86 -248l85 -245h-76zM130 342l85 245h77l-85 -244l85 -247h-76z" />
    <glyph glyph-name="hyphen" unicode="&#xad;" horiz-adv-x="219" 
d="M13 261v91h194v-91h-194z" />
    <glyph glyph-name="registered" unicode="&#xae;" horiz-adv-x="788" 
d="M225 156v397h188q67 0 103 -33q31 -30 31 -79q0 -44 -29 -74t-78 -36v-2q37 -12 76 -79l55 -94h-100l-33 64q-30 58 -53 78.5t-58 20.5h-21v-163h-81zM306 382h88q31 0 49.5 15.5t18.5 39.5q0 53 -83 53h-73v-108zM20 356q0 155 109.5 264.5t264.5 109.5t264.5 -109.5
t109.5 -264.5t-109.5 -264.5t-264.5 -109.5t-264.5 109.5t-109.5 264.5zM93 356q0 -124 88.5 -212.5t212.5 -88.5q125 0 213 88.5t88 212.5q0 125 -88 213t-213 88q-124 0 -212.5 -88t-88.5 -213z" />
    <glyph glyph-name="macron" unicode="&#xaf;" horiz-adv-x="333" 
d="M71 696v58h192v-58h-192z" />
    <glyph glyph-name="twosuperior" unicode="&#xb2;" horiz-adv-x="250" 
d="M42 716v67q40 20 71 20q83 0 83 -96q0 -61 -44 -230h49v-64h-153q65 203 65 270q0 45 -38 45q-18 0 -33 -12z" />
    <glyph glyph-name="threesuperior" unicode="&#xb3;" horiz-adv-x="250" 
d="M67 740v56q22 8 48 8q38 0 62.5 -26.5t24.5 -69.5q0 -71 -60 -91q63 -26 63 -85q0 -57 -37.5 -89t-100.5 -30v65q54 6 54 52q0 52 -54 56v50q58 -4 58 68q0 44 -32 44q-13 0 -26 -8z" />
    <glyph glyph-name="acute" unicode="&#xb4;" horiz-adv-x="333" 
d="M126 653l36 149h95l-76 -149h-55z" />
    <glyph glyph-name="mu" unicode="&#xb5;" horiz-adv-x="281" 
d="M164 109v504h91v-515q0 -17 18 -37l-56 -67q-38 18 -47 44q-14 -17 -20 -22q-15 -14 -31 -19v-112h-93v728h92v-501q0 -26 21 -26q8 0 16.5 7t8.5 16z" />
    <glyph glyph-name="periodcentered" unicode="&#xb7;" horiz-adv-x="135" 
d="M69 463q25 0 42 -17.5t17 -42.5t-17 -42t-42 -17t-42.5 17t-17.5 42t17.5 42.5t42.5 17.5z" />
    <glyph glyph-name="periodcentered" unicode="&#x2219;" horiz-adv-x="135" 
d="M69 463q25 0 42 -17.5t17 -42.5t-17 -42t-42 -17t-42.5 17t-17.5 42t17.5 42.5t42.5 17.5z" />
    <glyph glyph-name="cedilla" unicode="&#xb8;" horiz-adv-x="333" 
d="M126 -25l40 31q64 -10 64 -61q0 -23 -20 -41q-24 -21 -63 -21q-23 0 -53 6l11 37q8 -1 14 -1q36 0 36 22q0 16 -29 28z" />
    <glyph glyph-name="onesuperior" unicode="&#xb9;" horiz-adv-x="250" 
d="M79 721l104 82v-390h-78v300h-26v8z" />
    <glyph glyph-name="ordmasculine" unicode="&#xba;" horiz-adv-x="177" 
d="M90 724q-15 -11 -15 -135q0 -133 15 -146q15 15 15 139q0 133 -15 142zM89 796q21 0 37 -16q43 -43 43 -197q0 -94 -19 -151q-21 -62 -57 -62q-22 0 -39 17q-43 43 -43 196q0 94 20 151q20 62 58 62z" />
    <glyph glyph-name="guillemotright" unicode="&#xbb;" horiz-adv-x="302" 
d="M96 342l-85 246h76l86 -246l-85 -247h-77zM215 343l-85 245h75l87 -243l-86 -249h-76z" />
    <glyph glyph-name="questiondown" unicode="&#xbf;" horiz-adv-x="167" 
d="M85 573q-24 0 -41 17t-17 41q0 25 17 42t41 17t41 -17t17 -42q0 -24 -17 -41t-41 -17zM156 9v-107q-30 -18 -61 -18q-35 0 -58 25q-29 32 -29 94q0 63 37 204q36 137 36 233v8h42q3 -81 3 -127q0 -85 -12 -171q-13 -93 -13 -109q0 -45 29 -45q13 0 26 13z" />
    <glyph glyph-name="Agrave" unicode="&#xc0;" horiz-adv-x="313" 
d="M181 247l-8 162q-3 87 -11 261h-9q-1 -71 -7 -214l-12 -209h47zM11 0l91 803h116l84 -803h-108l-6 143h-60l-10 -143h-107zM148 837l-87 152h84l57 -152h-54z" />
    <glyph glyph-name="Aacute" unicode="&#xc1;" horiz-adv-x="313" 
d="M181 247l-8 162q-3 87 -11 261h-9q-1 -71 -7 -214l-12 -209h47zM11 0l91 803h116l84 -803h-108l-6 143h-60l-10 -143h-107zM122 837l55 153h84l-86 -153h-53z" />
    <glyph glyph-name="Acircumflex" unicode="&#xc2;" horiz-adv-x="313" 
d="M181 247l-8 162q-3 87 -11 261h-9q-1 -71 -7 -214l-12 -209h47zM11 0l91 803h116l84 -803h-108l-6 143h-60l-10 -143h-107zM72 835l45 147h89l46 -147h-55l-34 71l-39 -71h-52z" />
    <glyph glyph-name="Atilde" unicode="&#xc3;" horiz-adv-x="313" 
d="M181 247l-8 162q-3 87 -11 261h-9q-1 -71 -7 -214l-12 -209h47zM11 0l91 803h116l84 -803h-108l-6 143h-60l-10 -143h-107zM69 835v33q0 54 25 79q14 14 42 14q18 0 37.5 -12.5t27.5 -12.5q15 0 22 25h41v-19q0 -107 -67 -107q-22 0 -40.5 13.5t-26.5 13.5q-15 0 -23 -27
h-38z" />
    <glyph glyph-name="Adieresis" unicode="&#xc4;" horiz-adv-x="313" 
d="M181 247l-8 162q-3 87 -11 261h-9q-1 -71 -7 -214l-12 -209h47zM11 0l91 803h116l84 -803h-108l-6 143h-60l-10 -143h-107zM218 944q41 0 41 -52q0 -57 -40 -57q-41 0 -41 55q0 54 40 54zM115 944q41 0 41 -52q0 -57 -41 -57t-41 55q0 54 41 54z" />
    <glyph glyph-name="Aring" unicode="&#xc5;" horiz-adv-x="313" 
d="M181 247l-8 162q-3 87 -11 261h-9q-1 -71 -7 -214l-12 -209h47zM11 0l91 803h116l84 -803h-108l-6 143h-60l-10 -143h-107zM162 1001q34 0 58.5 -24t24.5 -58t-24 -58.5t-59 -24.5q-34 0 -58.5 24.5t-24.5 58.5t24.5 58t58.5 24zM161 872q19 0 33 13.5t14 32.5
q0 20 -13.5 33.5t-33.5 13.5q-19 0 -32.5 -14t-13.5 -33t13.5 -32.5t32.5 -13.5z" />
    <glyph glyph-name="AE" unicode="&#xc6;" horiz-adv-x="385" 
d="M146 244h47v446h-4zM298 336v-232h77v-104h-182v141h-56l-14 -142h-109l118 797h238v-104h-71v-253h74v-103h-75z" />
    <glyph glyph-name="Ccedilla" unicode="&#xc7;" horiz-adv-x="260" 
d="M259 117v-106q-18 -16 -61 -16q31 -13 31 -48q0 -24 -19 -42q-24 -22 -67 -22q-23 0 -57 8l9 41q11 -3 19 -3q30 0 30 23q0 18 -34 27l46 29q-127 76 -127 413q0 166 52 275q52 106 127 106q27 0 53 -15v-101q-18 9 -31 9q-89 0 -89 -282v-63q0 -95 17 -159
q23 -84 70 -84q15 0 31 10z" />
    <glyph glyph-name="Egrave" unicode="&#xc8;" horiz-adv-x="219" 
d="M22 0v796h184v-105h-77v-252h75v-103h-75v-231h76v-105h-183zM103 837l-87 152h84l57 -152h-54z" />
    <glyph glyph-name="Eacute" unicode="&#xc9;" horiz-adv-x="219" 
d="M22 0v796h184v-105h-77v-252h75v-103h-75v-231h76v-105h-183zM87 837l55 153h84l-86 -153h-53z" />
    <glyph glyph-name="Ecircumflex" unicode="&#xca;" horiz-adv-x="219" 
d="M22 0v796h184v-105h-77v-252h75v-103h-75v-231h76v-105h-183zM32 835l45 147h89l46 -147h-55l-34 71l-39 -71h-52z" />
    <glyph glyph-name="Edieresis" unicode="&#xcb;" horiz-adv-x="219" 
d="M22 0v796h184v-105h-77v-252h75v-103h-75v-231h76v-105h-183zM175 944q41 0 41 -52q0 -57 -40 -57q-41 0 -41 55q0 54 40 54zM72 944q41 0 41 -52q0 -57 -41 -57t-41 55q0 54 41 54z" />
    <glyph glyph-name="Igrave" unicode="&#xcc;" horiz-adv-x="156" 
d="M25 0v796h106v-796h-106zM73 837l-87 152h84l57 -152h-54z" />
    <glyph glyph-name="Iacute" unicode="&#xcd;" horiz-adv-x="156" 
d="M25 0v796h106v-796h-106zM37 837l55 153h84l-86 -153h-53z" />
    <glyph glyph-name="Icircumflex" unicode="&#xce;" horiz-adv-x="156" 
d="M25 0v796h106v-796h-106zM-13 835l45 147h89l46 -147h-55l-34 71l-39 -71h-52z" />
    <glyph glyph-name="Idieresis" unicode="&#xcf;" horiz-adv-x="156" 
d="M25 0v796h106v-796h-106zM128 944q41 0 41 -52q0 -57 -40 -57q-41 0 -41 55q0 54 40 54zM25 944q41 0 41 -52q0 -57 -41 -57t-41 55q0 54 41 54z" />
    <glyph glyph-name="Eth" unicode="&#xd0;" 
d="M-2 335v104h38v357h32q93 0 146 -53q100 -100 100 -344q0 -253 -94 -347q-52 -52 -134 -52h-50v335h-38zM143 663v-224h33v-104h-33v-205q30 17 46 90q13 60 13 136v62q0 203 -59 245z" />
    <glyph glyph-name="Ntilde" unicode="&#xd1;" 
d="M29 0v796h97l68 -415h6l-12 415h107v-796h-95l-72 442h-5l12 -442h-106zM84 835v33q0 54 25 79q14 14 42 14q18 0 37.5 -12.5t27.5 -12.5q15 0 22 25h41v-19q0 -107 -67 -107q-22 0 -40.5 13.5t-26.5 13.5q-15 0 -23 -27h-38z" />
    <glyph glyph-name="Ograve" unicode="&#xd2;" 
d="M162 680q-31 -49 -31 -251q0 -134 1 -161q6 -111 32 -154q20 39 26 104q4 48 4 193q0 129 -7 187q-7 54 -25 82zM19 387q0 304 87 391q23 23 57 23q32 0 58 -26q84 -84 84 -385q0 -286 -83 -369q-26 -26 -58 -26q-84 0 -121 156q-24 101 -24 236zM148 837l-87 152h84
l57 -152h-54z" />
    <glyph glyph-name="Oacute" unicode="&#xd3;" 
d="M162 680q-31 -49 -31 -251q0 -134 1 -161q6 -111 32 -154q20 39 26 104q4 48 4 193q0 129 -7 187q-7 54 -25 82zM19 387q0 304 87 391q23 23 57 23q32 0 58 -26q84 -84 84 -385q0 -286 -83 -369q-26 -26 -58 -26q-84 0 -121 156q-24 101 -24 236zM132 837l55 153h84
l-86 -153h-53z" />
    <glyph glyph-name="Ocircumflex" unicode="&#xd4;" 
d="M162 680q-31 -49 -31 -251q0 -134 1 -161q6 -111 32 -154q20 39 26 104q4 48 4 193q0 129 -7 187q-7 54 -25 82zM19 387q0 304 87 391q23 23 57 23q32 0 58 -26q84 -84 84 -385q0 -286 -83 -369q-26 -26 -58 -26q-84 0 -121 156q-24 101 -24 236zM72 835l45 147h89
l46 -147h-55l-34 71l-39 -71h-52z" />
    <glyph glyph-name="Otilde" unicode="&#xd5;" 
d="M162 680q-31 -49 -31 -251q0 -134 1 -161q6 -111 32 -154q20 39 26 104q4 48 4 193q0 129 -7 187q-7 54 -25 82zM19 387q0 304 87 391q23 23 57 23q32 0 58 -26q84 -84 84 -385q0 -286 -83 -369q-26 -26 -58 -26q-84 0 -121 156q-24 101 -24 236zM64 835v33q0 54 25 79
q14 14 42 14q18 0 37.5 -12.5t27.5 -12.5q15 0 22 25h41v-19q0 -107 -67 -107q-22 0 -40.5 13.5t-26.5 13.5q-15 0 -23 -27h-38z" />
    <glyph glyph-name="Odieresis" unicode="&#xd6;" 
d="M162 680q-31 -49 -31 -251q0 -134 1 -161q6 -111 32 -154q20 39 26 104q4 48 4 193q0 129 -7 187q-7 54 -25 82zM19 387q0 304 87 391q23 23 57 23q32 0 58 -26q84 -84 84 -385q0 -286 -83 -369q-26 -26 -58 -26q-84 0 -121 156q-24 101 -24 236zM213 944q41 0 41 -52
q0 -57 -40 -57q-41 0 -41 55q0 54 40 54zM110 944q41 0 41 -52q0 -57 -41 -57t-41 55q0 54 41 54z" />
    <glyph glyph-name="Oslash" unicode="&#xd8;" 
d="M131 336l57 204q1 4 1 14q0 30 -7 68q-9 44 -20 57q-31 -49 -31 -213v-130zM192 316v121l-58 -205q-3 -12 5 -54q9 -45 23 -59q30 44 30 197zM21 -5l34 112q-35 117 -35 296q0 156 28 261q37 138 113 138q53 0 87 -65l20 66h36l-34 -115q34 -91 34 -296q0 -157 -29 -262
q-37 -135 -114 -135q-52 0 -84 63l-21 -63h-35z" />
    <glyph glyph-name="Ugrave" unicode="&#xd9;" 
d="M29 217v579h106v-581q0 -76 29 -97q25 30 25 87v591h106v-589q0 -96 -42 -157q-38 -55 -87 -55q-65 0 -103 71q-34 63 -34 151zM153 837l-87 152h84l57 -152h-54z" />
    <glyph glyph-name="Uacute" unicode="&#xda;" 
d="M29 217v579h106v-581q0 -76 29 -97q25 30 25 87v591h106v-589q0 -96 -42 -157q-38 -55 -87 -55q-65 0 -103 71q-34 63 -34 151zM132 837l55 153h84l-86 -153h-53z" />
    <glyph glyph-name="Ucircumflex" unicode="&#xdb;" 
d="M29 217v579h106v-581q0 -76 29 -97q25 30 25 87v591h106v-589q0 -96 -42 -157q-38 -55 -87 -55q-65 0 -103 71q-34 63 -34 151zM82 835l45 147h89l46 -147h-55l-34 71l-39 -71h-52z" />
    <glyph glyph-name="Udieresis" unicode="&#xdc;" 
d="M29 217v579h106v-581q0 -76 29 -97q25 30 25 87v591h106v-589q0 -96 -42 -157q-38 -55 -87 -55q-65 0 -103 71q-34 63 -34 151zM223 944q41 0 41 -52q0 -57 -40 -57q-41 0 -41 55q0 54 40 54zM120 944q41 0 41 -52q0 -57 -41 -57t-41 55q0 54 41 54z" />
    <glyph glyph-name="Yacute" unicode="&#xdd;" horiz-adv-x="313" 
d="M103 380l-91 416h109l36 -203l38 203h107l-92 -416v-380h-107v380zM132 837l55 153h84l-86 -153h-53z" />
    <glyph glyph-name="Thorn" unicode="&#xde;" horiz-adv-x="313" 
d="M137 522v-233q54 32 54 117q0 88 -54 116zM30 0v796h106v-155q54 -10 96 -52q65 -65 65 -172q0 -89 -42.5 -151.5t-118.5 -83.5v-182h-106z" />
    <glyph glyph-name="germandbls" unicode="&#xdf;" horiz-adv-x="271" 
d="M29 0v637q0 79 30 122.5t82 43.5q106 0 106 -166q0 -115 -36 -135q51 -31 51 -167v-112q0 -221 -110 -228v122q18 10 18 34v254q0 38 -19 58v83q17 15 17 72q0 68 -27 91q-21 -37 -21 -89v-620h-91z" />
    <glyph glyph-name="agrave" unicode="&#xe0;" horiz-adv-x="281" 
d="M166 91v413q-47 -15 -47 -156v-112q0 -151 31 -151q13 0 16 6zM26 268v74q0 118 42 191q49 85 146 85h43v-456q0 -70 24 -88l-53 -79q-28 7 -49 53q-9 -19 -27.5 -36t-35.5 -17q-90 0 -90 273zM85 803h95l36 -149h-56z" />
    <glyph glyph-name="aacute" unicode="&#xe1;" horiz-adv-x="281" 
d="M166 91v413q-47 -15 -47 -156v-112q0 -151 31 -151q13 0 16 6zM26 268v74q0 118 42 191q49 85 146 85h43v-456q0 -70 24 -88l-53 -79q-28 7 -49 53q-9 -19 -27.5 -36t-35.5 -17q-90 0 -90 273zM135 653l36 149h95l-76 -149h-55z" />
    <glyph glyph-name="acircumflex" unicode="&#xe2;" horiz-adv-x="281" 
d="M166 91v413q-47 -15 -47 -156v-112q0 -151 31 -151q13 0 16 6zM26 268v74q0 118 42 191q49 85 146 85h43v-456q0 -70 24 -88l-53 -79q-28 7 -49 53q-9 -19 -27.5 -36t-35.5 -17q-90 0 -90 273zM79 651l28 147h111l27 -147h-57l-26 63l-26 -63h-57z" />
    <glyph glyph-name="atilde" unicode="&#xe3;" horiz-adv-x="281" 
d="M166 91v413q-47 -15 -47 -156v-112q0 -151 31 -151q13 0 16 6zM26 268v74q0 118 42 191q49 85 146 85h43v-456q0 -70 24 -88l-53 -79q-28 7 -49 53q-9 -19 -27.5 -36t-35.5 -17q-90 0 -90 273zM119 651l-32 1q-2 18 -2 27q0 43 14.5 71.5t41.5 28.5q12 0 32.5 -12.5
t34.5 -12.5q19 0 28 24h29q2 -22 2 -30q0 -47 -17.5 -73.5t-41.5 -26.5q-13 0 -31 13.5t-32 13.5q-19 0 -26 -24z" />
    <glyph glyph-name="adieresis" unicode="&#xe4;" horiz-adv-x="281" 
d="M166 91v413q-47 -15 -47 -156v-112q0 -151 31 -151q13 0 16 6zM26 268v74q0 118 42 191q49 85 146 85h43v-456q0 -70 24 -88l-53 -79q-28 7 -49 53q-9 -19 -27.5 -36t-35.5 -17q-90 0 -90 273zM114 764q42 0 42 -56q0 -57 -42 -57q-41 0 -41 57q0 23 11.5 39.5t29.5 16.5
zM220 764q41 0 41 -56t-41 -56t-41 56q0 23 11.5 39.5t29.5 16.5z" />
    <glyph glyph-name="aring" unicode="&#xe5;" horiz-adv-x="281" 
d="M166 91v413q-47 -15 -47 -156v-112q0 -151 31 -151q13 0 16 6zM26 268v74q0 118 42 191q49 85 146 85h43v-456q0 -70 24 -88l-53 -79q-28 7 -49 53q-9 -19 -27.5 -36t-35.5 -17q-90 0 -90 273z" />
    <glyph glyph-name="ae" unicode="&#xe6;" horiz-adv-x="396" 
d="M228 620v-21q26 22 52 22q56 0 85 -57q24 -48 24 -123q0 -65 -27 -114q-35 -64 -106 -82q8 -66 22 -97q23 -53 73 -53q21 0 35 14v-104q-33 -11 -53 -11q-84 0 -134 78q-42 -78 -85 -78q-20 0 -41 21q-47 47 -47 230v54q0 203 71 273q49 48 131 48zM257 426v-79
q41 20 41 102q0 48 -18 75q-23 -49 -23 -98zM166 91v416q-29 -15 -39 -76q-7 -45 -7 -151q0 -90 1 -108q6 -86 31 -86q8 0 14 5z" />
    <glyph glyph-name="ccedilla" unicode="&#xe7;" horiz-adv-x="198" 
d="M15 270v89q0 106 26 174q33 86 104 86q22 0 42 -8v-93q-20 8 -23 8q-56 0 -56 -167v-82q0 -92 7 -132q11 -58 42 -58q21 0 31 13v-90q-13 -18 -46 -18q-10 0 -16 1q31 -13 31 -50q0 -25 -22 -43t-63 -18q-15 0 -43 5l11 38q49 -6 49 22q0 19 -28 22l36 34q-82 43 -82 267
z" />
    <glyph glyph-name="egrave" unicode="&#xe8;" horiz-adv-x="260" 
d="M115 423v-79q44 16 44 93q0 59 -20 86q-24 -39 -24 -100zM21 304v71q0 243 115 243q56 0 85 -48.5t29 -130.5q0 -77 -36 -129t-95 -67q-1 -50 19 -94q24 -55 69 -55q13 0 39 12v-103q-20 -8 -49 -8q-59 0 -106 47q-70 70 -70 262zM41 803h95l36 -149h-56z" />
    <glyph glyph-name="eacute" unicode="&#xe9;" horiz-adv-x="260" 
d="M115 423v-79q44 16 44 93q0 59 -20 86q-24 -39 -24 -100zM21 304v71q0 243 115 243q56 0 85 -48.5t29 -130.5q0 -77 -36 -129t-95 -67q-1 -50 19 -94q24 -55 69 -55q13 0 39 12v-103q-20 -8 -49 -8q-59 0 -106 47q-70 70 -70 262zM91 653l36 149h95l-76 -149h-55z" />
    <glyph glyph-name="ecircumflex" unicode="&#xea;" horiz-adv-x="260" 
d="M115 423v-79q44 16 44 93q0 59 -20 86q-24 -39 -24 -100zM21 304v71q0 243 115 243q56 0 85 -48.5t29 -130.5q0 -77 -36 -129t-95 -67q-1 -50 19 -94q24 -55 69 -55q13 0 39 12v-103q-20 -8 -49 -8q-59 0 -106 47q-70 70 -70 262zM64 651l28 147h111l27 -147h-57l-26 63
l-26 -63h-57z" />
    <glyph glyph-name="edieresis" unicode="&#xeb;" horiz-adv-x="260" 
d="M115 423v-79q44 16 44 93q0 59 -20 86q-24 -39 -24 -100zM21 304v71q0 243 115 243q56 0 85 -48.5t29 -130.5q0 -77 -36 -129t-95 -67q-1 -50 19 -94q24 -55 69 -55q13 0 39 12v-103q-20 -8 -49 -8q-59 0 -106 47q-70 70 -70 262zM94 764q42 0 42 -56q0 -57 -42 -57
q-41 0 -41 57q0 23 11.5 39.5t29.5 16.5zM200 764q41 0 41 -56t-41 -56t-41 56q0 23 11.5 39.5t29.5 16.5z" />
    <glyph glyph-name="igrave" unicode="&#xec;" horiz-adv-x="135" 
d="M-22 803h95l36 -149h-56z" />
    <glyph glyph-name="iacute" unicode="&#xed;" horiz-adv-x="135" 
d="M28 653l36 149h95l-76 -149h-55z" />
    <glyph glyph-name="icircumflex" unicode="&#xee;" horiz-adv-x="135" 
d="M-14 651l28 147h111l27 -147h-57l-26 63l-26 -63h-57z" />
    <glyph glyph-name="idieresis" unicode="&#xef;" horiz-adv-x="135" 
d="M16 764q42 0 42 -56q0 -57 -42 -57q-41 0 -41 57q0 23 11.5 39.5t29.5 16.5zM122 764q41 0 41 -56t-41 -56t-41 56q0 23 11.5 39.5t29.5 16.5z" />
    <glyph glyph-name="eth" unicode="&#xf0;" horiz-adv-x="260" 
d="M131 512q-22 -15 -22 -197q0 -195 22 -215q22 24 22 204q0 194 -22 208zM39 631l-19 34l45 31q-12 25 -39 58l54 49q17 -22 46 -65l47 32l19 -34l-45 -31q98 -168 98 -399q0 -138 -28 -222q-29 -90 -83 -90q-32 0 -57 25q-29 29 -46 114q-16 79 -16 173q0 241 91 308
q-14 34 -22 48z" />
    <glyph glyph-name="ntilde" unicode="&#xf1;" horiz-adv-x="281" 
d="M255 511v-511h-92v502q0 26 -23 26q-13 0 -23 -15v-513h-91v504q0 35 -19 48l58 67q26 -6 46 -43q33 43 70 43q74 0 74 -108zM95 651l-32 1q-2 18 -2 27q0 43 14.5 71.5t41.5 28.5q12 0 32.5 -12.5t34.5 -12.5q19 0 28 24h29q2 -22 2 -30q0 -47 -17.5 -73.5t-41.5 -26.5
q-13 0 -31 13.5t-32 13.5q-19 0 -26 -24z" />
    <glyph glyph-name="ograve" unicode="&#xf2;" horiz-adv-x="260" 
d="M109 315q0 -195 22 -215q22 24 22 204q0 194 -22 208q-22 -15 -22 -197zM15 306q0 137 28 221q31 91 86 91q29 0 54 -24q29 -29 46 -110q16 -77 16 -178q0 -138 -28 -222q-29 -90 -83 -90q-32 0 -57 25q-29 29 -46 114q-16 79 -16 173zM41 803h95l36 -149h-56z" />
    <glyph glyph-name="oacute" unicode="&#xf3;" horiz-adv-x="260" 
d="M109 315q0 -195 22 -215q22 24 22 204q0 194 -22 208q-22 -15 -22 -197zM15 306q0 137 28 221q31 91 86 91q29 0 54 -24q29 -29 46 -110q16 -77 16 -178q0 -138 -28 -222q-29 -90 -83 -90q-32 0 -57 25q-29 29 -46 114q-16 79 -16 173zM91 653l36 149h95l-76 -149h-55z
" />
    <glyph glyph-name="ocircumflex" unicode="&#xf4;" horiz-adv-x="260" 
d="M109 315q0 -195 22 -215q22 24 22 204q0 194 -22 208q-22 -15 -22 -197zM15 306q0 137 28 221q31 91 86 91q29 0 54 -24q29 -29 46 -110q16 -77 16 -178q0 -138 -28 -222q-29 -90 -83 -90q-32 0 -57 25q-29 29 -46 114q-16 79 -16 173zM49 651l28 147h111l27 -147h-57
l-26 63l-26 -63h-57z" />
    <glyph glyph-name="otilde" unicode="&#xf5;" horiz-adv-x="260" 
d="M109 315q0 -195 22 -215q22 24 22 204q0 194 -22 208q-22 -15 -22 -197zM15 306q0 137 28 221q31 91 86 91q29 0 54 -24q29 -29 46 -110q16 -77 16 -178q0 -138 -28 -222q-29 -90 -83 -90q-32 0 -57 25q-29 29 -46 114q-16 79 -16 173zM75 651l-32 1q-2 18 -2 27
q0 43 14.5 71.5t41.5 28.5q12 0 32.5 -12.5t34.5 -12.5q19 0 28 24h29q2 -22 2 -30q0 -47 -17.5 -73.5t-41.5 -26.5q-13 0 -31 13.5t-32 13.5q-19 0 -26 -24z" />
    <glyph glyph-name="odieresis" unicode="&#xf6;" horiz-adv-x="260" 
d="M109 315q0 -195 22 -215q22 24 22 204q0 194 -22 208q-22 -15 -22 -197zM15 306q0 137 28 221q31 91 86 91q29 0 54 -24q29 -29 46 -110q16 -77 16 -178q0 -138 -28 -222q-29 -90 -83 -90q-32 0 -57 25q-29 29 -46 114q-16 79 -16 173zM79 764q42 0 42 -56q0 -57 -42 -57
q-41 0 -41 57q0 23 11.5 39.5t29.5 16.5zM185 764q41 0 41 -56t-41 -56t-41 56q0 23 11.5 39.5t29.5 16.5z" />
    <glyph glyph-name="oslash" unicode="&#xf8;" horiz-adv-x="260" 
d="M109 273l42 140q3 9 -4 52t-16 50q-22 -24 -22 -160v-82zM153 230v101l-41 -137q-3 -8 2 -43q6 -39 17 -52q22 23 22 131zM17 -7l29 89q-13 34 -22 103q-9 64 -9 111q0 130 24 216q30 108 91 108q45 0 71 -50l16 49h27l-27 -85q29 -83 29 -231q0 -123 -23 -205
q-29 -104 -89 -104q-48 0 -73 50l-17 -51h-27z" />
    <glyph glyph-name="ugrave" unicode="&#xf9;" horiz-adv-x="281" 
d="M26 85v528h92v-501q0 -26 21 -26q8 0 16.5 7t8.5 16v504h91v-515q0 -17 18 -37l-56 -67q-38 18 -47 44q-36 -44 -73 -44t-56 33q-15 26 -15 58zM51 803h95l36 -149h-56z" />
    <glyph glyph-name="uacute" unicode="&#xfa;" horiz-adv-x="281" 
d="M26 85v528h92v-501q0 -26 21 -26q8 0 16.5 7t8.5 16v504h91v-515q0 -17 18 -37l-56 -67q-38 18 -47 44q-36 -44 -73 -44t-56 33q-15 26 -15 58zM101 653l36 149h95l-76 -149h-55z" />
    <glyph glyph-name="ucircumflex" unicode="&#xfb;" horiz-adv-x="281" 
d="M26 85v528h92v-501q0 -26 21 -26q8 0 16.5 7t8.5 16v504h91v-515q0 -17 18 -37l-56 -67q-38 18 -47 44q-36 -44 -73 -44t-56 33q-15 26 -15 58zM69 651l28 147h111l27 -147h-57l-26 63l-26 -63h-57z" />
    <glyph glyph-name="udieresis" unicode="&#xfc;" horiz-adv-x="281" 
d="M26 85v528h92v-501q0 -26 21 -26q8 0 16.5 7t8.5 16v504h91v-515q0 -17 18 -37l-56 -67q-38 18 -47 44q-36 -44 -73 -44t-56 33q-15 26 -15 58zM89 764q42 0 42 -56q0 -57 -42 -57q-41 0 -41 57q0 23 11.5 39.5t29.5 16.5zM195 764q41 0 41 -56t-41 -56t-41 56
q0 23 11.5 39.5t29.5 16.5z" />
    <glyph glyph-name="yacute" unicode="&#xfd;" horiz-adv-x="250" 
d="M84 23l-73 591h92l26 -419l22 418h91l-66 -582q-18 -158 -160 -146v87q33 -3 48 10q11 10 20 41zM86 653l36 149h95l-76 -149h-55z" />
    <glyph glyph-name="thorn" unicode="&#xfe;" horiz-adv-x="271" 
d="M167 270v128q0 131 -33 131q-8 0 -14 -6v-415q47 5 47 162zM120 -8v-107h-91v916h91v-220q26 39 49 39q91 0 91 -264v-70q0 -130 -34 -207q-37 -83 -106 -87z" />
    <glyph glyph-name="ydieresis" unicode="&#xff;" horiz-adv-x="250" 
d="M84 23l-73 591h92l26 -419l22 418h91l-66 -582q-18 -158 -160 -146v87q33 -3 48 10q11 10 20 41zM74 764q42 0 42 -56q0 -57 -42 -57q-41 0 -41 57q0 23 11.5 39.5t29.5 16.5zM180 764q41 0 41 -56t-41 -56t-41 56q0 23 11.5 39.5t29.5 16.5z" />
    <glyph glyph-name="OE" unicode="&#x152;" horiz-adv-x="385" 
d="M161 672q-30 -48 -30 -281q0 -122 5 -174q6 -69 25 -94q30 64 30 260q0 129 -4 177q-6 75 -26 112zM373 0h-203q-41 0 -70 29q-81 81 -81 361q0 294 83 377q29 29 65 29h205v-105h-74v-252h74v-104h-74v-232h75v-103z" />
    <glyph glyph-name="oe" unicode="&#x153;" horiz-adv-x="396" 
d="M386 108v-103q-24 -11 -50 -11q-70 0 -119 63q-30 -64 -80 -64q-25 0 -46 21q-67 66 -67 296q0 174 42 254q30 57 73 57q34 0 64 -38q27 38 70 38q60 0 90 -55q25 -46 25 -121q0 -164 -130 -202q2 -68 27.5 -109t62.5 -41q19 0 38 15zM160 206v214q0 71 -21 98
q-20 -31 -20 -110v-188q0 -98 21 -121q20 26 20 107zM254 406v-62q44 22 44 97q0 55 -18 83q-26 -30 -26 -118z" />
    <glyph glyph-name="Scaron" unicode="&#x160;" horiz-adv-x="240" 
d="M13 6v110q26 -11 48 -11q61 0 61 73q0 61 -54.5 199.5t-54.5 226.5q0 198 143 198q31 0 69 -12v-106q-20 11 -40 11q-31 0 -48.5 -24t-17.5 -65q0 -55 54 -200t54 -236q0 -87 -47 -134q-40 -41 -101 -41q-28 0 -66 11zM99 835l-49 146h56l36 -69l38 69h53l-50 -146h-84z
" />
    <glyph glyph-name="scaron" unicode="&#x161;" horiz-adv-x="188" 
d="M10 10v92q15 -18 37 -18q46 0 46 47q0 50 -41 168t-41 180q0 140 95 140q27 0 62 -20v-85q-18 16 -34 16q-37 0 -37 -47q0 -37 40.5 -160.5t40.5 -188.5q0 -141 -106 -140q-34 0 -62 16z" />
    <glyph glyph-name="Ydieresis" unicode="&#x178;" horiz-adv-x="313" 
d="M103 380l-91 416h109l36 -203l38 203h107l-92 -416v-380h-107v380zM213 944q41 0 41 -52q0 -57 -40 -57q-41 0 -41 55q0 54 40 54zM110 944q41 0 41 -52q0 -57 -41 -57t-41 55q0 54 41 54z" />
    <glyph glyph-name="florin" unicode="&#x192;" horiz-adv-x="198" 
d="M51 613v41q0 65 28 104q34 48 107 43v-87q-44 -5 -44 -54v-47h43v-78h-43v-488q0 -70 -16 -103q-29 -60 -113 -60v100q39 -1 39 79v472h-40v78h39z" />
    <glyph glyph-name="circumflex" unicode="&#x2c6;" horiz-adv-x="333" 
d="M84 651l28 147h111l27 -147h-57l-26 63l-26 -63h-57z" />
    <glyph glyph-name="tilde" unicode="&#x2dc;" horiz-adv-x="333" 
d="M110 651l-32 1q-2 18 -2 27q0 43 14.5 71.5t41.5 28.5q12 0 32.5 -12.5t34.5 -12.5q19 0 28 24h29q2 -22 2 -30q0 -47 -17.5 -73.5t-41.5 -26.5q-13 0 -31 13.5t-32 13.5q-19 0 -26 -24z" />
    <glyph glyph-name="endash" unicode="&#x2013;" horiz-adv-x="500" 
d="M-4 206v88h508v-88h-508z" />
    <glyph glyph-name="emdash" unicode="&#x2014;" horiz-adv-x="1000" 
d="M-4 205v90h1008v-90h-1008z" />
    <glyph glyph-name="quoteleft" unicode="&#x2018;" horiz-adv-x="135" 
d="M125 816v-45q-34 -23 -46 -70q46 -7 46 -57q0 -26 -16.5 -43t-39.5 -17q-58 0 -58 72q0 41 25 81q30 50 89 79z" />
    <glyph glyph-name="quoteright" unicode="&#x2019;" horiz-adv-x="135" 
d="M10 588v43q36 24 47 68q-48 13 -48 59q0 25 17.5 41.5t41.5 16.5q23 0 41 -17t18 -51q0 -42 -27 -84q-32 -50 -90 -76z" />
    <glyph glyph-name="quotesinglbase" unicode="&#x201a;" horiz-adv-x="135" 
d="M16 -117v43q36 24 47 68q-47 13 -47 59q0 25 17.5 41.5t41.5 16.5q23 0 40.5 -17t17.5 -51q0 -45 -28 -87q-32 -47 -89 -73z" />
    <glyph glyph-name="quotedblleft" unicode="&#x201c;" horiz-adv-x="281" 
d="M268 816v-45q-35 -23 -47 -70q47 -7 47 -56q0 -26 -16.5 -43.5t-39.5 -17.5q-22 0 -38 15q-21 19 -21 57q0 41 25 81q31 50 90 79zM127 816v-45q-34 -23 -46 -70q46 -7 46 -56q0 -26 -16.5 -43.5t-39.5 -17.5q-58 0 -58 72q0 41 25 81q30 50 89 79z" />
    <glyph glyph-name="quotedblright" unicode="&#x201d;" horiz-adv-x="281" 
d="M153 588v43q36 24 47 68q-48 13 -48 59q0 25 17.5 41.5t41.5 16.5q23 0 41 -17t18 -51q0 -42 -27 -84q-32 -50 -90 -76zM11 588v43q38 24 47 68q-47 13 -47 59q0 25 17.5 41.5t41.5 16.5q23 0 39 -16q20 -18 20 -52q0 -42 -27 -84q-32 -50 -91 -76z" />
    <glyph glyph-name="quotedblbase" unicode="&#x201e;" horiz-adv-x="281" 
d="M20 -117v43q38 24 47 68q-47 13 -47 59q0 25 17.5 41.5t41.5 16.5q23 0 40.5 -17t17.5 -51q0 -45 -28 -86q-31 -48 -89 -74zM159 -117v43q36 24 47 68q-48 13 -48 59q0 25 17.5 41.5t41.5 16.5q23 0 41 -17t18 -51q0 -44 -28 -86q-32 -48 -89 -74z" />
    <glyph glyph-name="bullet" unicode="&#x2022;" horiz-adv-x="150" 
d="M75 352q25 0 42 -17t17 -41t-17 -41.5t-42 -17.5q-24 0 -41 17.5t-17 41.5t17 41t41 17z" />
    <glyph glyph-name="ellipsis" unicode="&#x2026;" horiz-adv-x="1000" 
d="M221 114q26 0 43.5 -17.5t17.5 -43.5q0 -25 -18 -42.5t-43 -17.5t-42.5 17.5t-17.5 42.5t17.5 43t42.5 18zM500 113q26 0 43.5 -17.5t17.5 -43.5q0 -25 -18 -42.5t-43 -17.5t-42.5 17.5t-17.5 42.5t17.5 43t42.5 18zM779 113q26 0 43.5 -17.5t17.5 -43.5q0 -25 -18 -42.5
t-43 -17.5t-42.5 17.5t-17.5 42.5t17.5 43t42.5 18z" />
    <glyph glyph-name="guilsinglleft" unicode="&#x2039;" horiz-adv-x="177" 
d="M7 341l84 246h77l-84 -244l86 -247h-76z" />
    <glyph glyph-name="guilsinglright" unicode="&#x203a;" horiz-adv-x="177" 
d="M93 341l-86 246h76l87 -245l-85 -246h-77z" />
    <glyph glyph-name="trademark" unicode="&#x2122;" horiz-adv-x="1000" 
d="M165 396v330h-124v70h325v-70h-120v-330h-81zM414 396v400h126l72 -275h2l72 275h127v-400h-77v318h-2l-85 -318h-74l-83 318h-2v-318h-76z" />
    <glyph glyph-name="lslash" horiz-adv-x="156" 
d="M32 76v267l-40 -24v61l40 26v390h91v-345l46 28v-63l-46 -29v-262q0 -50 29 -63l-71 -67q-49 15 -49 81z" />
    <glyph glyph-name="dotlessi" horiz-adv-x="135" 
d="M21 0v613h93v-613h-93z" />
    <glyph glyph-name="Lslash" horiz-adv-x="225" 
d="M137 106h63v-106h-170v337l-35 -20v62l35 22v395h107v-341l41 24v-63l-41 -25v-285z" />
    <glyph glyph-name="caron" horiz-adv-x="333" 
d="M120 652l-34 145h53l28 -71l27 71h54l-33 -145h-95z" />
    <glyph glyph-name="ogonek" horiz-adv-x="333" 
d="M112 65h71q-6 -21 -6 -29q0 -37 52 -37v-45h-5q-129 0 -129 63q0 24 17 48z" />
    <glyph glyph-name="hungarumlaut" horiz-adv-x="333" 
d="M21 653l36 149h95l-76 -149h-55zM21 653l36 149h95l-76 -149h-55zM21 653l36 149h95l-76 -149h-55zM171 653l36 149h95l-76 -149h-55z" />
    <glyph glyph-name="ring" horiz-adv-x="333" 
d="M167 812q34 0 57 -23.5t23 -56.5t-23 -56.5t-57 -23.5q-33 0 -56.5 23.5t-23.5 56.5t23.5 56.5t56.5 23.5zM168 779q-20 0 -34 -14t-14 -33t14.5 -33.5t33.5 -14.5t33 14t14 34t-13.5 33.5t-33.5 13.5z" />
    <glyph glyph-name="dotaccent" horiz-adv-x="333" 
d="M166 764q42 0 42 -56q0 -57 -42 -57q-41 0 -41 57q0 23 11.5 39.5t29.5 16.5z" />
    <glyph glyph-name="breve" horiz-adv-x="333" 
d="M196 797h52q3 -146 -80 -146q-86 0 -82 146h52q1 -28 2 -55q6 -39 27 -39q16 0 22 26q4 16 7 68z" />
    <glyph glyph-name="fl" 
d="M47 613v41q0 62 26 101q32 47 95 47q15 0 42 -3t65 -3v-670q0 -50 29 -64l-70 -67q-50 15 -50 81v459h-46v-488q0 -70 -16 -103q-29 -60 -112 -60v100q38 -1 38 79v472h-40v78h39zM184 613v101q-46 -7 -46 -54v-47h46z" />
    <glyph glyph-name="fi" horiz-adv-x="302" 
d="M128 613h136v-613h-92v535h-44v-488q0 -79 -21 -113q-27 -45 -108 -51v101q26 -2 33 26q5 18 5 74v451h-40v78h39v41q0 67 29 107q33 44 97 40v-90q-34 0 -34 -51v-47zM221 800q20 0 34.5 -14.5t14.5 -34.5t-14.5 -34.5t-34.5 -14.5t-34.5 14.5t-14.5 34.5t14.5 34.5
t34.5 14.5z" />
    </font>
</defs>
</svg>
